SplineFontDB: 3.0
FontName: OldStandard-Italic
FullName: Old Standard Italic
FamilyName: Old Standard
Weight: Regular
Copyright: Copyright (c) 2006-2008 by Alexey Kryukov
UComments: "Anchor shift for caps +AD0A 372+AAoACgAA-encl max width +AD0A 1128+AAoACgAA-cyra w+AD0A-536 a+AD0A-276 as+AD0A-8 xd+AD0A-288 xa+AD0A-592+AAoA-cyraz w+AD0A-520 a+AD0A-272 as+AD0A-12 xd+AD0A-292 xa+AD0A-608+AAoA-cyrv w+AD0A-426 a+AD0A-232 as+AD0A-19 xd+AD0A-332 xa+AD0A-702+AAoA-cyrg w+AD0A-420 a+AD0A-220 as+AD0A-10 xd+AD0A-344 xa+AD0A-708+AAoA-cyrvard w+AD0A-480 a+AD0A-254 as+AD0A-14 xd+AD0A-310 xa+AD0A-648+AAoA-cyre w+AD0A-410 a+AD0A-228 as+AD0A-23 xd+AD0A-336 xa+AD0A-718+AAoA-cyrie w+AD0A-422 a+AD0A-238 as+AD0A-27 xd+AD0A-326 xa+AD0A-706+AAoA-cyrdze w+AD0A-420 a+AD0A-228 as+AD0A-18 xd+AD0A-336 xa+AD0A-708+AAoA-cyrz w+AD0A-414 a+AD0A-212 as+AD0A-5 xd+AD0A-352 xa+AD0A-714+AAoA-cyrzem w+AD0A-454 a+AD0A-252 as+AD0A-25 xa+AD0A-674+AAoA-cyri w+AD0A-572 a+AD0A-296 as+AD0A-10 xd+AD0A-268 xa+AD0A-556+AAoA-cyrfita w+AD0A-462 a+AD0A-250 as+AD0A-19 xd+AD0A-314 xa+AD0A-666+AAoACgAA-xd+AD0A(max-w)/2-as+AAoA-xa+AD0A-max-w" 
Version: 2.0.2
DefaultBaseFilename: OldStandard-Italic
ItalicAngle: -15.2
UnderlinePosition: -158
UnderlineWidth: 40
Ascent: 762
Descent: 238
LayerCount: 3
Layer: 0 0 "Back"  1
Layer: 1 0 "Fore"  0
Layer: 2 1 "TTF"  0
XUID: [1021 675 718133685 4816453]
FSType: 0
OS2Version: 0
OS2_WeightWidthSlopeOnly: 0
OS2_UseTypoMetrics: 1
CreationTime: 1222415246
ModificationTime: 1227532459
PfmFamily: 17
TTFWeight: 400
TTFWidth: 5
LineGap: 236
VLineGap: 0
Panose: 2 4 5 3 5 5 5 9 3 3
OS2TypoAscent: 0
OS2TypoAOffset: 1
OS2TypoDescent: 0
OS2TypoDOffset: 1
OS2TypoLinegap: 236
OS2WinAscent: 4
OS2WinAOffset: 1
OS2WinDescent: 0
OS2WinDOffset: 1
HheadAscent: 4
HheadAOffset: 1
HheadDescent: 0
HheadDOffset: 1
OS2SubXSize: 600
OS2SubYSize: 640
OS2SubXOff: 0
OS2SubYOff: 480
OS2SupXSize: 600
OS2SupYSize: 640
OS2SupXOff: 0
OS2SupYOff: 0
OS2StrikeYSize: 40
OS2StrikeYPos: 212
OS2FamilyClass: 768

StartChar: exclam
Encoding: 33 33 1
Width: 280
Flags: W
TeX: 101 0
HStem: -12 124<69.5898 166.41> 674 20G<260 291.5>
VStem: 56 124<1.58984 98.4102> 204 122<541.082 672.789>
LayerCount: 3
Fore
SplineSet
56 50 m 0
 56 86 82 112 118 112 c 0
 154 112 180 86 180 50 c 0
 180 14 154 -12 118 -12 c 0
 82 -12 56 14 56 50 c 0
130 158 m 25
 166 361 l 18
 174 405 181 454 185 493 c 0
 190 538 196 582 204 624 c 0
 215 680 246 694 274 694 c 0
 309 694 326 667 326 624 c 0
 326 588 298 522 268 454 c 0
 252 417 236 380 224 346 c 10
 154 158 l 25
 130 158 l 25
EndSplineSet
Layer: 2
SplineSet
56 50 m 128,-1,1
 56 77 56 77 73.5 94.5 c 128,-1,2
 91 112 91 112 118 112 c 128,-1,3
 145 112 145 112 162.5 94.5 c 128,-1,4
 180 77 180 77 180 50 c 128,-1,5
 180 23 180 23 162.5 5.5 c 128,-1,6
 145 -12 145 -12 118 -12 c 128,-1,7
 91 -12 91 -12 73.5 5.5 c 128,-1,0
 56 23 56 23 56 50 c 128,-1,1
130 158 m 1,8,-1
 166 361 l 2,9,10
 178 430 178 430 185 493 c 0,11,12
 194 568 194 568 204 624 c 0,13,14
 218 694 218 694 274 694 c 0,15,16
 300 694 300 694 313 675.5 c 128,-1,17
 326 657 326 657 326 624 c 0,18,19
 326 586 326 586 268 454 c 0,20,21
 236 380 236 380 224 346 c 2,22,-1
 154 158 l 1,23,-1
 130 158 l 1,8,-1
EndSplineSet
EndChar

StartChar: numbersign
Encoding: 35 35 3
Width: 684
Flags: W
TeX: 110 0
HStem: 0 21G<88 140.571 278 330.469> 196 40<67 172 232 361 424 582> 450 40<136 282 342 472 532 654> 664 20G<372.546 425 562.443 615>
DStem2: 88 0 132 0 0.393757 0.919215<17.3253 213.242 273.636 490.035 550.429 744.114> 278 0 322 0 0.393757 0.919215<17.3253 212.848 274.423 490.035 550.429 744.114>
LayerCount: 3
Fore
SplineSet
56 196 m 1
 67 236 l 1
 188 236 l 1
 282 450 l 1
 125 450 l 1
 136 490 l 1
 299 490 l 1
 381 684 l 1
 425 684 l 1
 342 490 l 1
 488 490 l 1
 571 684 l 1
 615 684 l 1
 532 490 l 1
 665 490 l 1
 654 450 l 1
 516 450 l 1
 424 236 l 1
 593 236 l 1
 582 196 l 1
 405 196 l 1
 322 0 l 1
 278 0 l 1
 361 196 l 1
 216 196 l 1
 132 0 l 1
 88 0 l 1
 172 196 l 1
 56 196 l 1
232 236 m 1
 380 236 l 1
 472 450 l 1
 326 450 l 1
 232 236 l 1
EndSplineSet
Layer: 2
SplineSet
56 196 m 1,0,-1
 67 236 l 1,1,-1
 188 236 l 1,2,-1
 282 450 l 1,3,-1
 125 450 l 1,4,-1
 136 490 l 1,5,-1
 299 490 l 1,6,-1
 381 684 l 1,7,-1
 425 684 l 1,8,-1
 342 490 l 1,9,-1
 488 490 l 1,10,-1
 571 684 l 1,11,-1
 615 684 l 1,12,-1
 532 490 l 1,13,-1
 665 490 l 1,14,-1
 654 450 l 1,15,-1
 516 450 l 1,16,-1
 424 236 l 1,17,-1
 593 236 l 1,18,-1
 582 196 l 1,19,-1
 405 196 l 1,20,-1
 322 0 l 1,21,-1
 278 0 l 1,22,-1
 361 196 l 1,23,-1
 216 196 l 1,24,-1
 132 0 l 1,25,-1
 88 0 l 1,26,-1
 172 196 l 1,27,-1
 56 196 l 1,0,-1
232 236 m 1,28,-1
 380 236 l 1,29,-1
 472 450 l 1,30,-1
 326 450 l 1,31,-1
 232 236 l 1,28,-1
EndSplineSet
EndChar

StartChar: dollar
Encoding: 36 36 4
Width: 580
Flags: W
TeX: 100 0
HStem: -16 32<203 249.708 291 325.69> 153 95<101.765 175.758> 441 93<467.674 537.626> 659 32<473 499.451> 668 32<387.325 434>
VStem: 50 48<64.436 150.686> 160 56<461.438 576.674> 438 72<117.501 251.916> 550 44<544.189 618.913>
DStem2: 144 -80 176 -80 0.262189 0.965016<8.39005 76.6849 110.041 435.342 528.341 766.55 815.46 872.323> 232 -80 264 -80 0.262189 0.965016<8.39005 67.4455 112.936 390.7 482.734 772.865 806.274 872.323> 256 445 233 363 0.866274 -0.499569<-51.0749 30.0167 84.1721 117.835 171.49 260.959>
LayerCount: 3
Fore
SplineSet
50 142 m 0xf780
 50 196 84 248 130 248 c 0
 158 248 184 234 184 201 c 0
 184 178 168 153 129 153 c 0
 114 153 108 145 104 138 c 0
 100 132 98 122 98 112 c 0
 98 73 128 41 173 25 c 1
 260 348 l 1
 233 363 l 2
 194 385 160 414 160 493 c 0
 160 609 264 675 354 694 c 1
 372 762 l 1
 404 762 l 1
 387 699 l 1
 394 700 400 700 406 700 c 0xef80
 419 700 431 699 442 697 c 1
 460 762 l 1
 492 762 l 1
 473 691 l 1
 549 668 594 607 594 552 c 0
 594 480 557 441 506 441 c 0
 488 441 458 451 458 482 c 0
 458 510 477 529 504 534 c 0
 524 538 530 540 538 546 c 0
 547 552 550 563 550 576 c 0
 550 604 521 642 464 659 c 1
 386 370 l 1
 419 351 l 2
 466 324 510 293 510 198 c 0
 510 100 418 9 283 -12 c 1
 264 -80 l 1
 232 -80 l 1
 250 -15 l 1
 241 -16 233 -16 224 -16 c 0
 213 -16 203 -15 194 -14 c 1
 176 -80 l 1
 144 -80 l 1
 164 -7 l 1
 87 16 50 84 50 142 c 0xf780
216 529 m 0
 216 485 234 458 256 445 c 2
 282 430 l 1
 344 660 l 1
 284 644 216 603 216 529 c 0
203 18 m 1
 212 17 222 16 232 16 c 0
 241 16 250 16 258 17 c 1
 336 304 l 1
 288 332 l 1
 203 18 l 1
310 414 m 1
 358 386 l 1
 434 666 l 1
 423 667 412 668 400 668 c 0
 393 668 386 668 378 667 c 1
 310 414 l 1
291 21 m 1
 382 39 438 96 438 174 c 0
 438 245 409 263 386 276 c 2
 364 289 l 1
 291 21 l 1
EndSplineSet
Layer: 2
SplineSet
50 142 m 0,0,1
 50 184 50 184 73 216 c 128,-1,2
 96 248 96 248 130 248 c 0,3,4
 153 248 153 248 168.5 236 c 128,-1,5
 184 224 184 224 184 201 c 0,6,7
 184 182 184 182 170 167.5 c 128,-1,8
 156 153 156 153 129 153 c 0,9,10
 112 153 112 153 104 138 c 0,11,12
 98 129 98 129 98 112 c 0,13,14
 98 84 98 84 118 60.5 c 128,-1,15
 138 37 138 37 173 25 c 1,16,-1
 260 348 l 1,17,-1
 233 363 l 2,18,19
 210 376 210 376 196 389 c 128,-1,20
 182 402 182 402 171 429 c 128,-1,21
 160 456 160 456 160 493 c 0,22,23
 160 534 160 534 177 570 c 128,-1,24
 194 606 194 606 223 630 c 128,-1,25
 252 654 252 654 285 670 c 128,-1,26
 318 686 318 686 354 694 c 1,27,-1
 372 762 l 1,28,-1
 404 762 l 1,29,-1
 387 699 l 1,30,31
 394 700 394 700 406 700 c 0,32,33
 426 700 426 700 442 697 c 1,34,-1
 460 762 l 1,35,-1
 492 762 l 1,36,-1
 473 691 l 1,37,38
 528 674 528 674 561 634.5 c 128,-1,39
 594 595 594 595 594 552 c 0,40,41
 594 500 594 500 570 470.5 c 128,-1,42
 546 441 546 441 506 441 c 0,43,44
 489 441 489 441 473.5 451 c 128,-1,45
 458 461 458 461 458 482 c 0,46,47
 458 502 458 502 471 516 c 128,-1,48
 484 530 484 530 504 534 c 0,49,50
 528 539 528 539 538 546 c 0,51,52
 550 554 550 554 550 576 c 0,53,54
 550 599 550 599 527 623 c 128,-1,55
 504 647 504 647 464 659 c 1,56,-1
 386 370 l 1,57,-1
 419 351 l 2,58,59
 436 342 436 342 447 334 c 128,-1,60
 458 326 458 326 471 313 c 128,-1,61
 484 300 484 300 492 285 c 128,-1,62
 500 270 500 270 505 248 c 128,-1,63
 510 226 510 226 510 198 c 0,64,65
 510 124 510 124 446.5 64 c 128,-1,66
 383 4 383 4 283 -12 c 1,67,-1
 264 -80 l 1,68,-1
 232 -80 l 1,69,-1
 250 -15 l 1,70,71
 241 -16 241 -16 224 -16 c 0,72,73
 212 -16 212 -16 194 -14 c 1,74,-1
 176 -80 l 1,75,-1
 144 -80 l 1,76,-1
 164 -7 l 1,77,78
 110 10 110 10 80 52.5 c 128,-1,79
 50 95 50 95 50 142 c 0,0,1
216 529 m 0,80,81
 216 468 216 468 256 445 c 2,82,-1
 282 430 l 1,83,-1
 344 660 l 1,84,85
 320 654 320 654 298.5 643 c 128,-1,86
 277 632 277 632 257.5 616.5 c 128,-1,87
 238 601 238 601 227 578.5 c 128,-1,88
 216 556 216 556 216 529 c 0,80,81
203 18 m 1,89,90
 221 16 221 16 232 16 c 0,91,92
 250 16 250 16 258 17 c 1,93,-1
 336 304 l 1,94,-1
 288 332 l 1,95,-1
 203 18 l 1,89,90
310 414 m 1,96,-1
 358 386 l 1,97,-1
 434 666 l 1,98,99
 412 668 412 668 400 668 c 0,100,101
 386 668 386 668 378 667 c 1,102,-1
 310 414 l 1,96,-1
291 21 m 1,103,104
 360 34 360 34 399 75 c 128,-1,105
 438 116 438 116 438 174 c 0,106,107
 438 199 438 199 433.5 217.5 c 128,-1,108
 429 236 429 236 420 247 c 128,-1,109
 411 258 411 258 404.5 264 c 128,-1,110
 398 270 398 270 386 276 c 2,111,-1
 364 289 l 1,112,-1
 291 21 l 1,103,104
EndSplineSet
EndChar

StartChar: percent
Encoding: 37 37 5
Width: 860
Flags: W
TeX: 112 0
HStem: -16 40<590.107 670.271> 320 24<666.485 740.225> 340 40<218.107 297.23> 554 24<445.178 570.826> 676 24<294.485 356.431> 704 20G<745 770>
VStem: 128 72<396.2 560.501> 394 28<504.496 572> 500 72<40.1999 204.501> 766 28<148.63 287.568>
DStem2: 164 0 188 -24 0.629136 0.777295<0 762.921 791.615 927.88>
LayerCount: 3
Fore
SplineSet
572 106 m 0xdfc0
 572 48 602 24 628 24 c 0
 708 24 766 126 766 238 c 0
 766 296 736 320 710 320 c 0
 630 320 572 218 572 106 c 0xdfc0
500 106 m 0
 500 202 576 344 696 344 c 0
 754 344 794 294 794 222 c 0
 794 126 718 -16 598 -16 c 0
 540 -16 500 34 500 106 c 0
128 462 m 0
 128 558 204 700 324 700 c 0
 373 700 409 664 419 610 c 0
 430 588 479 578 504 578 c 0
 582 578 669 628 718 683 c 2
 718 683 740 711 750 724 c 1
 774 700 l 1
 188 -24 l 1
 164 0 l 1
 644 593 l 1
 639 595 l 1
 597 571 544 554 504 554 c 0
 472 554 445 561 422 572 c 1
 419 476 343 340 226 340 c 0xbfc0
 168 340 128 390 128 462 c 0
200 462 m 0
 200 404 230 380 256 380 c 0
 335 380 392 478 394 588 c 1
 366 608 351 634 351 652 c 0
 351 661 353 668 357 672 c 1
 351 675 344 676 338 676 c 0
 258 676 200 574 200 462 c 0
EndSplineSet
Layer: 2
SplineSet
572 106 m 0,0,1
 572 66 572 66 589 45 c 128,-1,2
 606 24 606 24 628 24 c 0,3,4
 686 24 686 24 726 88 c 128,-1,5
 766 152 766 152 766 238 c 0,6,7
 766 278 766 278 749 299 c 128,-1,8
 732 320 732 320 710 320 c 0,9,10
 652 320 652 320 612 256 c 128,-1,11
 572 192 572 192 572 106 c 0,0,1
500 106 m 0,12,13
 500 135 500 135 509 167.5 c 128,-1,14
 518 200 518 200 535 231 c 128,-1,15
 552 262 552 262 575 287.5 c 128,-1,16
 598 313 598 313 630 328.5 c 128,-1,17
 662 344 662 344 696 344 c 0,18,19
 740 344 740 344 767 310 c 128,-1,20
 794 276 794 276 794 222 c 0,21,22
 794 193 794 193 785 160.5 c 128,-1,23
 776 128 776 128 759 97 c 128,-1,24
 742 66 742 66 719 40.5 c 128,-1,25
 696 15 696 15 664 -0.5 c 128,-1,26
 632 -16 632 -16 598 -16 c 0,27,28
 554 -16 554 -16 527 18 c 128,-1,29
 500 52 500 52 500 106 c 0,12,13
128 462 m 0,30,31
 128 491 128 491 137 523.5 c 128,-1,32
 146 556 146 556 163 587 c 128,-1,33
 180 618 180 618 203 643.5 c 128,-1,34
 226 669 226 669 258 684.5 c 128,-1,35
 290 700 290 700 324 700 c 0,36,37
 360 700 360 700 386 675.5 c 128,-1,38
 412 651 412 651 419 610 c 1,39,40
 426 595 426 595 453.5 586.5 c 128,-1,41
 481 578 481 578 504 578 c 0,42,43
 560 578 560 578 619.5 609 c 128,-1,44
 679 640 679 640 718 683 c 2,45,-1
 750 724 l 1,46,-1
 774 700 l 1,47,-1
 188 -24 l 1,48,-1
 164 0 l 1,49,-1
 644 593 l 1,50,-1
 639 595 l 1,51,52
 607 576 607 576 570.5 565 c 128,-1,53
 534 554 534 554 504 554 c 0,54,55
 460 554 460 554 422 572 c 1,56,57
 421 536 421 536 406.5 495.5 c 128,-1,58
 392 455 392 455 367 420.5 c 128,-1,59
 342 386 342 386 305 363 c 128,-1,60
 268 340 268 340 226 340 c 0,61,62
 182 340 182 340 155 374 c 128,-1,63
 128 408 128 408 128 462 c 0,30,31
200 462 m 0,64,65
 200 422 200 422 217 401 c 128,-1,66
 234 380 234 380 256 380 c 0,67,68
 294 380 294 380 326 409 c 128,-1,69
 358 438 358 438 375.5 485.5 c 128,-1,70
 393 533 393 533 394 588 c 1,71,72
 374 602 374 602 362.5 620 c 128,-1,73
 351 638 351 638 351 652 c 128,-1,74
 351 666 351 666 357 672 c 1,75,76
 349 676 349 676 338 676 c 0,77,78
 280 676 280 676 240 612 c 128,-1,79
 200 548 200 548 200 462 c 0,64,65
EndSplineSet
LCarets2: 2 0 0 
Ligature2: "'frac' Diagonal Fractions-1" zero slash zero
Ligature2: "'frac' Diagonal Fractions-1" zero fraction zero
EndChar

StartChar: ampersand
Encoding: 38 38 6
Width: 740
Flags: W
TeX: 97 0
HStem: -18 30<183.727 269.953 451.459 522.853> 432 26<654.32 700.779> 672 30<508.795 584.249>
VStem: 56 96<45.5374 221.431> 357 72<95.2885 140 169 406> 599 36<547.528 660.191> 702 54<379.805 431.659>
DStem2: 301 411 321 393 0.942103 0.335325<-57.6015 51.0811 135.679 268.483> 429 169 430 140 0.620054 0.784559<0 353.8>
LayerCount: 3
Fore
SplineSet
56 129 m 0
 56 291 232 388 301 411 c 2
 359 432 l 1
 371 557 441 702 554 702 c 0
 621 702 635 643 635 612 c 0
 635 514 536 471 488 455 c 2
 429 434 l 1
 429 169 l 1
 604 401 l 2
 617 418 648 458 692 458 c 0
 736 458 756 426 756 390 c 0
 756 373 747 337 710 337 c 0
 698 337 678 342 678 367 c 0
 678 380 683 388 691 396 c 0
 696 401 702 408 702 416 c 0
 702 423 695 432 682 432 c 0
 662 432 648 415 626 388 c 2
 430 140 l 1
 430 86 430 12 484 12 c 0
 548 12 642 159 664 202 c 1
 682 192 l 1
 658 144 572 -18 474 -18 c 0
 400 -18 378 28 367 72 c 1
 332 35 279 -18 203 -18 c 0
 122 -18 56 31 56 129 c 0
429 456 m 1
 478 474 l 2
 523 488 599 525 599 611 c 0
 599 630 592 672 552 672 c 0
 507 672 429 620 429 456 c 1
152 124 m 0
 152 50 179 12 225 12 c 0
 285 12 328 58 361 95 c 1
 359 101 357 117 357 131 c 2
 357 406 l 1
 321 393 l 2
 212 354 152 248 152 124 c 0
EndSplineSet
Layer: 2
SplineSet
56 129 m 0,0,1
 56 175 56 175 75 218 c 128,-1,2
 94 261 94 261 122 291.5 c 128,-1,3
 150 322 150 322 185 348 c 128,-1,4
 220 374 220 374 249 388.5 c 128,-1,5
 278 403 278 403 301 411 c 2,6,-1
 359 432 l 1,7,8
 364 480 364 480 379 527 c 128,-1,9
 394 574 394 574 418 613.5 c 128,-1,10
 442 653 442 653 478 677.5 c 128,-1,11
 514 702 514 702 554 702 c 0,12,13
 578 702 578 702 595 692.5 c 128,-1,14
 612 683 612 683 620 668.5 c 128,-1,15
 628 654 628 654 631.5 640 c 128,-1,16
 635 626 635 626 635 612 c 0,17,18
 635 584 635 584 624 559.5 c 128,-1,19
 613 535 613 535 597.5 519 c 128,-1,20
 582 503 582 503 560 489 c 128,-1,21
 538 475 538 475 522 468 c 128,-1,22
 506 461 506 461 488 455 c 2,23,-1
 429 434 l 1,24,-1
 429 169 l 1,25,-1
 604 401 l 2,26,27
 648 458 648 458 692 458 c 0,28,29
 724 458 724 458 740 438.5 c 128,-1,30
 756 419 756 419 756 390 c 0,31,32
 756 372 756 372 745 354.5 c 128,-1,33
 734 337 734 337 710 337 c 0,34,35
 698 337 698 337 688 343.5 c 128,-1,36
 678 350 678 350 678 367 c 0,37,38
 678 383 678 383 691 396 c 0,39,40
 702 407 702 407 702 416 c 0,41,42
 702 422 702 422 696.5 427 c 128,-1,43
 691 432 691 432 682 432 c 0,44,45
 672 432 672 432 663 426 c 128,-1,46
 654 420 654 420 647 412 c 128,-1,47
 640 404 640 404 626 388 c 2,48,-1
 430 140 l 1,49,50
 430 124 430 124 430 115.5 c 128,-1,51
 430 107 430 107 431 91.5 c 128,-1,52
 432 76 432 76 434 67 c 128,-1,53
 436 58 436 58 440 46 c 128,-1,54
 444 34 444 34 450 27.5 c 128,-1,55
 456 21 456 21 464.5 16.5 c 128,-1,56
 473 12 473 12 484 12 c 0,57,58
 506 12 506 12 535 35 c 128,-1,59
 564 58 564 58 590 91.5 c 128,-1,60
 616 125 616 125 635 153.5 c 128,-1,61
 654 182 654 182 664 202 c 1,62,-1
 682 192 l 1,63,64
 674 176 674 176 665 159.5 c 128,-1,65
 656 143 656 143 640 116.5 c 128,-1,66
 624 90 624 90 606 68.5 c 128,-1,67
 588 47 588 47 567 26.5 c 128,-1,68
 546 6 546 6 522 -6 c 128,-1,69
 498 -18 498 -18 474 -18 c 0,70,71
 448 -18 448 -18 428 -10.5 c 128,-1,72
 408 -3 408 -3 396.5 11 c 128,-1,73
 385 25 385 25 378.5 39 c 128,-1,74
 372 53 372 53 367 72 c 1,75,76
 350 54 350 54 336.5 42 c 128,-1,77
 323 30 323 30 301.5 14 c 128,-1,78
 280 -2 280 -2 255 -10 c 128,-1,79
 230 -18 230 -18 203 -18 c 0,80,81
 139 -18 139 -18 97.5 20 c 128,-1,82
 56 58 56 58 56 129 c 0,0,1
429 456 m 1,83,-1
 478 474 l 2,84,85
 498 480 498 480 516 489.5 c 128,-1,86
 534 499 534 499 554.5 515 c 128,-1,87
 575 531 575 531 587 555.5 c 128,-1,88
 599 580 599 580 599 611 c 0,89,90
 599 624 599 624 596 636 c 128,-1,91
 593 648 593 648 581.5 660 c 128,-1,92
 570 672 570 672 552 672 c 0,93,94
 538 672 538 672 522 665.5 c 128,-1,95
 506 659 506 659 489 643 c 128,-1,96
 472 627 472 627 459 603.5 c 128,-1,97
 446 580 446 580 437.5 541.5 c 128,-1,98
 429 503 429 503 429 456 c 1,83,-1
152 124 m 0,99,100
 152 69 152 69 171 40.5 c 128,-1,101
 190 12 190 12 225 12 c 0,102,103
 246 12 246 12 266 19 c 128,-1,104
 286 26 286 26 304 40 c 128,-1,105
 322 54 322 54 333.5 65.5 c 128,-1,106
 345 77 345 77 361 95 c 1,107,108
 357 107 357 107 357 131 c 2,109,-1
 357 406 l 1,110,-1
 321 393 l 2,111,112
 241 364 241 364 196.5 291.5 c 128,-1,113
 152 219 152 219 152 124 c 0,99,100
EndSplineSet
EndChar

StartChar: quotesingle
Encoding: 39 39 7
Width: 240
VWidth: 959
Flags: W
TeX: 113 0
HStem: 520 210
VStem: 192 74<637.969 718.177>
LayerCount: 3
Fore
SplineSet
172 520 m 25
 192 666 l 18
 194 681 202 730 242 730 c 0
 256 730 266 722 266 704 c 0
 266 693 261 679 258 671 c 2
 196 520 l 25
 172 520 l 25
EndSplineSet
Layer: 2
SplineSet
172 520 m 1,0,-1
 192 666 l 2,1,2
 200 730 200 730 242 730 c 0,3,4
 266 730 266 730 266 704 c 0,5,6
 266 692 266 692 258 671 c 2,7,-1
 196 520 l 1,8,-1
 172 520 l 1,0,-1
EndSplineSet
EndChar

StartChar: parenleft
Encoding: 40 40 8
Width: 370
Flags: W
TeX: 112 0
HStem: 710 20G<336.5 450>
VStem: 84 42<-37.3636 248.343>
LayerCount: 3
Fore
SplineSet
84 92 m 0
 84 347 243 591 430 730 c 9
 454 706 l 17
 158 464 126 200 126 92 c 0
 126 -6 160 -102 216 -174 c 9
 184 -198 l 17
 129 -133 84 -20 84 92 c 0
EndSplineSet
Layer: 2
SplineSet
84 92 m 0,0,1
 84 185 84 185 111.5 279.5 c 128,-1,2
 139 374 139 374 187 455.5 c 128,-1,3
 235 537 235 537 297 607 c 128,-1,4
 359 677 359 677 430 730 c 1,5,-1
 454 706 l 1,6,7
 393 656 393 656 342.5 601 c 128,-1,8
 292 546 292 546 259 497 c 128,-1,9
 226 448 226 448 201 396.5 c 128,-1,10
 176 345 176 345 162 303 c 128,-1,11
 148 261 148 261 139.5 218.5 c 128,-1,12
 131 176 131 176 128.5 147.5 c 128,-1,13
 126 119 126 119 126 92 c 0,14,15
 126 20 126 20 150 -50 c 128,-1,16
 174 -120 174 -120 216 -174 c 1,17,-1
 184 -198 l 1,18,19
 141 -147 141 -147 112.5 -68 c 128,-1,20
 84 11 84 11 84 92 c 0,0,1
EndSplineSet
EndChar

StartChar: parenright
Encoding: 41 41 9
Width: 370
Flags: W
TeX: 112 0
HStem: 710 20G<181.333 235.5>
VStem: 266 42<283.657 569.364>
LayerCount: 3
Fore
SplineSet
-62 -174 m 17
 234 68 266 332 266 440 c 0
 266 538 232 634 176 706 c 9
 208 730 l 17
 263 665 308 552 308 440 c 0
 308 185 149 -59 -38 -198 c 9
 -62 -174 l 17
EndSplineSet
Layer: 2
SplineSet
-62 -174 m 1,0,1
 -1 -124 -1 -124 49.5 -69 c 128,-1,2
 100 -14 100 -14 133 35 c 128,-1,3
 166 84 166 84 191 135.5 c 128,-1,4
 216 187 216 187 230 229 c 128,-1,5
 244 271 244 271 252.5 313.5 c 128,-1,6
 261 356 261 356 263.5 384.5 c 128,-1,7
 266 413 266 413 266 440 c 0,8,9
 266 512 266 512 242 582 c 128,-1,10
 218 652 218 652 176 706 c 1,11,-1
 208 730 l 1,12,13
 251 679 251 679 279.5 600 c 128,-1,14
 308 521 308 521 308 440 c 0,15,16
 308 347 308 347 280.5 252.5 c 128,-1,17
 253 158 253 158 205 76.5 c 128,-1,18
 157 -5 157 -5 95 -75 c 128,-1,19
 33 -145 33 -145 -38 -198 c 1,20,-1
 -62 -174 l 1,0,1
EndSplineSet
EndChar

StartChar: asterisk
Encoding: 42 42 10
Width: 580
Flags: W
TeX: 97 0
HStem: 374 84<172.33 240.653 449.347 517.67> 468 54<313.201 332.998 357.002 376.799> 532 84<172.33 240.653 449.347 517.67> 680 20G<339 351>
VStem: 307 76<302.376 410.218 474.993 515.007 579.782 687.624> 333 24<381.445 467.996 522.004 608.555>
LayerCount: 3
Fore
SplineSet
162 411 m 0xf4
 162 436 184 452 229 458 c 0
 254 461 278 470 303 484 c 2
 308 488 l 2
 311 490 313 492 313 495 c 256
 313 498 311 500 308 502 c 2
 303 506 l 2
 278 520 254 529 229 532 c 0
 184 538 162 554 162 579 c 0
 162 588 165 597 172 604 c 0
 179 612 188 616 199 616 c 0
 217 616 236 603 255 577 c 0
 269 559 288 543 311 528 c 0
 317 524 322 522 325 522 c 0
 330 522 333 527 333 537 c 0xf4
 333 565 328 591 319 614 c 0
 311 633 307 648 307 657 c 0
 307 670 310 680 317 688 c 0
 324 696 333 700 345 700 c 256
 357 700 366 696 373 688 c 0
 380 680 383 670 383 657 c 0xf8
 383 648 379 633 371 614 c 0
 362 591 357 565 357 537 c 0
 357 527 360 522 365 522 c 0
 368 522 373 524 379 528 c 0
 402 543 421 559 435 577 c 0
 454 603 473 616 491 616 c 0
 502 616 511 612 518 604 c 0
 525 597 528 588 528 579 c 0
 528 554 506 538 461 532 c 0
 436 529 412 520 387 506 c 2
 382 502 l 2
 379 500 377 498 377 495 c 256
 377 492 379 490 382 488 c 2
 387 484 l 2
 412 470 436 461 461 458 c 0
 506 452 528 436 528 411 c 0
 528 402 525 393 518 386 c 0
 511 378 502 374 491 374 c 0
 473 374 454 387 435 413 c 0
 421 431 402 447 379 462 c 0
 373 466 368 468 365 468 c 0
 360 468 357 463 357 453 c 0xf4
 357 425 362 399 371 376 c 0
 379 357 383 342 383 333 c 0
 383 320 380 310 373 302 c 0
 366 294 357 290 345 290 c 256
 333 290 324 294 317 302 c 0
 310 310 307 320 307 333 c 0xf8
 307 342 311 357 319 376 c 0
 328 399 333 425 333 453 c 0
 333 463 330 468 325 468 c 0
 322 468 317 466 311 462 c 0
 288 447 269 431 255 413 c 0
 236 387 217 374 199 374 c 0
 188 374 179 378 172 386 c 0
 165 393 162 402 162 411 c 0xf4
EndSplineSet
Layer: 2
SplineSet
162 411 m 0,0,1
 162 449 162 449 229 458 c 0,2,3
 264 462 264 462 303 484 c 1,4,-1
 308 488 l 2,5,6
 313 492 313 492 313 495 c 128,-1,7
 313 498 313 498 308 502 c 2,8,-1
 303 506 l 1,9,10
 264 528 264 528 229 532 c 0,11,12
 162 541 162 541 162 579 c 0,13,14
 162 594 162 594 172 604 c 0,15,16
 182 616 182 616 199 616 c 0,17,18
 226 616 226 616 255 577 c 0,19,20
 274 552 274 552 311 528 c 0,21,22
 320 522 320 522 325 522 c 0,23,24
 333 522 333 522 333 537 c 0,25,26
 333 578 333 578 319 614 c 0,27,28
 307 642 307 642 307 657 c 0,29,30
 307 676 307 676 317 688 c 0,31,32
 328 700 328 700 345 700 c 128,-1,33
 362 700 362 700 373 688 c 0,34,35
 383 676 383 676 383 657 c 0,36,37
 383 642 383 642 371 614 c 0,38,39
 357 578 357 578 357 537 c 0,40,41
 357 522 357 522 365 522 c 0,42,43
 370 522 370 522 379 528 c 0,44,45
 416 552 416 552 435 577 c 0,46,47
 464 616 464 616 491 616 c 0,48,49
 508 616 508 616 518 604 c 0,50,51
 528 594 528 594 528 579 c 0,52,53
 528 541 528 541 461 532 c 0,54,55
 426 528 426 528 387 506 c 1,56,-1
 382 502 l 2,57,58
 377 498 377 498 377 495 c 128,-1,59
 377 492 377 492 382 488 c 2,60,-1
 387 484 l 1,61,62
 426 462 426 462 461 458 c 0,63,64
 528 449 528 449 528 411 c 0,65,66
 528 396 528 396 518 386 c 0,67,68
 508 374 508 374 491 374 c 0,69,70
 464 374 464 374 435 413 c 0,71,72
 416 438 416 438 379 462 c 0,73,74
 370 468 370 468 365 468 c 0,75,76
 357 468 357 468 357 453 c 0,77,78
 357 412 357 412 371 376 c 0,79,80
 383 348 383 348 383 333 c 0,81,82
 383 314 383 314 373 302 c 0,83,84
 362 290 362 290 345 290 c 128,-1,85
 328 290 328 290 317 302 c 0,86,87
 307 314 307 314 307 333 c 0,88,89
 307 348 307 348 319 376 c 0,90,91
 333 412 333 412 333 453 c 0,92,93
 333 468 333 468 325 468 c 0,94,95
 320 468 320 468 311 462 c 0,96,97
 274 438 274 438 255 413 c 0,98,99
 226 374 226 374 199 374 c 0,100,101
 182 374 182 374 172 386 c 0,102,103
 162 396 162 396 162 411 c 0,0,1
EndSplineSet
EndChar

StartChar: plus
Encoding: 43 43 11
Width: 940
Flags: W
TeX: 112 0
HStem: -156 21G<456 500> 244 40<56 456 500 900> 664 20G<456 500>
VStem: 456 44<-156 244 284 684>
LayerCount: 3
Fore
SplineSet
56 244 m 1
 56 284 l 1
 456 284 l 1
 456 684 l 1
 500 684 l 1
 500 284 l 1
 900 284 l 1
 900 244 l 1
 500 244 l 1
 500 -156 l 1
 456 -156 l 1
 456 244 l 1
 56 244 l 1
EndSplineSet
Layer: 2
SplineSet
56 244 m 1,0,-1
 56 284 l 1,1,-1
 456 284 l 1,2,-1
 456 684 l 1,3,-1
 500 684 l 1,4,-1
 500 284 l 1,5,-1
 900 284 l 1,6,-1
 900 244 l 1,7,-1
 500 244 l 1,8,-1
 500 -156 l 1,9,-1
 456 -156 l 1,10,-1
 456 244 l 1,11,-1
 56 244 l 1,0,-1
EndSplineSet
EndChar

StartChar: comma
Encoding: 44 44 12
Width: 280
Flags: W
TeX: 99 0
HStem: -168 21G<22 52.5> 25 115<73.1831 135.669>
VStem: 145 41<-39.7185 75>
LayerCount: 3
Fore
SplineSet
22 -152 m 17
 73 -126 145 -75 145 -5 c 0
 145 4 144 11 136 18 c 0
 129 24 118 25 107 25 c 0
 77 25 60 52 60 77 c 0
 60 116 85 140 121 140 c 0
 166 140 186 91 186 59 c 0
 186 -86 75 -150 30 -168 c 9
 22 -152 l 17
EndSplineSet
Layer: 2
SplineSet
22 -152 m 1,0,1
 44 -141 44 -141 63 -127.5 c 128,-1,2
 82 -114 82 -114 102 -95.5 c 128,-1,3
 122 -77 122 -77 133.5 -53.5 c 128,-1,4
 145 -30 145 -30 145 -5 c 0,5,6
 145 10 145 10 136 18 c 0,7,8
 128 25 128 25 107 25 c 128,-1,9
 86 25 86 25 73 40.5 c 128,-1,10
 60 56 60 56 60 77 c 0,11,12
 60 106 60 106 77 123 c 128,-1,13
 94 140 94 140 121 140 c 0,14,15
 152 140 152 140 169 114 c 128,-1,16
 186 88 186 88 186 59 c 0,17,18
 186 18 186 18 174 -18 c 128,-1,19
 162 -54 162 -54 144.5 -78 c 128,-1,20
 127 -102 127 -102 104 -122 c 128,-1,21
 81 -142 81 -142 63.5 -152 c 128,-1,22
 46 -162 46 -162 30 -168 c 1,23,-1
 22 -152 l 1,0,1
EndSplineSet
EndChar

StartChar: hyphen
Encoding: 45 45 13
Width: 370
Flags: W
TeX: 104 0
HStem: 224 56<76.879 325.121>
VStem: 56 18<196 218.15> 328 18<285.85 308>
LayerCount: 3
Fore
SplineSet
56 196 m 1
 56 240 80 280 124 280 c 10
 300 280 l 18
 320 280 328 288 328 308 c 1
 346 308 l 1
 346 264 322 224 278 224 c 10
 102 224 l 18
 82 224 74 216 74 196 c 1
 56 196 l 1
EndSplineSet
Layer: 2
SplineSet
56 196 m 1,0,1
 56 231 56 231 74 255.5 c 128,-1,2
 92 280 92 280 124 280 c 2,3,-1
 300 280 l 2,4,5
 315 280 315 280 321.5 286.5 c 128,-1,6
 328 293 328 293 328 308 c 1,7,-1
 346 308 l 1,8,9
 346 273 346 273 328 248.5 c 128,-1,10
 310 224 310 224 278 224 c 2,11,-1
 102 224 l 2,12,13
 87 224 87 224 80.5 217.5 c 128,-1,14
 74 211 74 211 74 196 c 1,15,-1
 56 196 l 1,0,1
EndSplineSet
EndChar

StartChar: period
Encoding: 46 46 14
Width: 280
Flags: W
TeX: 112 0
HStem: -12 124<73.5898 170.41>
VStem: 60 124<1.58984 98.4102>
LayerCount: 3
Fore
SplineSet
60 50 m 0
 60 86 86 112 122 112 c 0
 158 112 184 86 184 50 c 0
 184 14 158 -12 122 -12 c 0
 86 -12 60 14 60 50 c 0
EndSplineSet
Layer: 2
SplineSet
60 50 m 128,-1,1
 60 77 60 77 77.5 94.5 c 128,-1,2
 95 112 95 112 122 112 c 128,-1,3
 149 112 149 112 166.5 94.5 c 128,-1,4
 184 77 184 77 184 50 c 128,-1,5
 184 23 184 23 166.5 5.5 c 128,-1,6
 149 -12 149 -12 122 -12 c 128,-1,7
 95 -12 95 -12 77.5 5.5 c 128,-1,0
 60 23 60 23 60 50 c 128,-1,1
EndSplineSet
EndChar

StartChar: slash
Encoding: 47 47 15
Width: 440
Flags: W
TeX: 115 0
HStem: 710 20G<359.578 406>
DStem2: 68 -198 108 -198 0.305743 0.952114<12.2297 974.673>
LayerCount: 3
Fore
SplineSet
68 -198 m 25
 366 730 l 25
 406 730 l 25
 108 -198 l 25
 68 -198 l 25
EndSplineSet
Layer: 2
SplineSet
68 -198 m 1,0,-1
 366 730 l 1,1,-1
 406 730 l 1,2,-1
 108 -198 l 1,3,-1
 68 -198 l 1,0,-1
EndSplineSet
EndChar

StartChar: zero
Encoding: 48 48 16
Width: 580
VWidth: 1080
Flags: W
TeX: 122 0
HStem: -16 32<183.927 283.907> 668 32<346.917 445.257>
VStem: 72 80<95.0242 292.188> 478 80<392.118 588.554>
LayerCount: 3
Fore
SplineSet
152 143 m 0
 152 76 168 16 226 16 c 0
 322 16 372 118 412 238 c 0
 447 343 478 462 478 540 c 0
 478 607 462 668 404 668 c 0
 312 668 258 566 218 446 c 0
 183 341 152 224 152 143 c 0
72 256 m 0
 72 456 206 700 402 700 c 0
 514 700 558 586 558 428 c 0
 558 228 424 -16 228 -16 c 0
 116 -16 72 98 72 256 c 0
EndSplineSet
Layer: 2
SplineSet
152 143 m 0,0,1
 152 16 152 16 226 16 c 0,2,3
 260 16 260 16 289 33 c 128,-1,4
 318 50 318 50 340.5 83 c 128,-1,5
 363 116 363 116 379.5 152 c 128,-1,6
 396 188 396 188 412 238 c 0,7,8
 478 436 478 436 478 540 c 0,9,10
 478 668 478 668 404 668 c 0,11,12
 371 668 371 668 342.5 651 c 128,-1,13
 314 634 314 634 291 601.5 c 128,-1,14
 268 569 268 569 251 532 c 128,-1,15
 234 495 234 495 218 446 c 0,16,17
 152 248 152 248 152 143 c 0,0,1
72 256 m 0,18,19
 72 306 72 306 83 358.5 c 128,-1,20
 94 411 94 411 114 460 c 128,-1,21
 134 509 134 509 164 552.5 c 128,-1,22
 194 596 194 596 229.5 629 c 128,-1,23
 265 662 265 662 309.5 681 c 128,-1,24
 354 700 354 700 402 700 c 0,25,26
 443 700 443 700 473.5 680 c 128,-1,27
 504 660 504 660 522 623 c 128,-1,28
 540 586 540 586 549 537.5 c 128,-1,29
 558 489 558 489 558 428 c 0,30,31
 558 378 558 378 547 325.5 c 128,-1,32
 536 273 536 273 516 224 c 128,-1,33
 496 175 496 175 466 131.5 c 128,-1,34
 436 88 436 88 400.5 55 c 128,-1,35
 365 22 365 22 320.5 3 c 128,-1,36
 276 -16 276 -16 228 -16 c 0,37,38
 187 -16 187 -16 156.5 4 c 128,-1,39
 126 24 126 24 108 61 c 128,-1,40
 90 98 90 98 81 146.5 c 128,-1,41
 72 195 72 195 72 256 c 0,18,19
EndSplineSet
AlternateSubs2: "'aalt' Access All Alternates in Latin lookup 0 subtable" zerosuperior zeroinferior
Substitution2: "'sups' Superscript Forms-1" zerosuperior
Substitution2: "'subs' Subscript Forms-1" zeroinferior
EndChar

StartChar: one
Encoding: 49 49 17
Width: 580
VWidth: 1080
Flags: W
TeX: 111 0
HStem: 0 32<62 187.185 281.03 392> 516 20<201.55 227.063> 664 20G<393 452>
VStem: 421 31<663.045 684>
DStem2: 175.242 0 266.242 0 0.262189 0.965016<62.9856 583.356>
LayerCount: 3
Fore
SplineSet
54 0 m 25
 62 32 l 25
 155 32 l 18
 175 32 186 39 191 58 c 10
 328 563 l 17
 298 543 248 531 204 516 c 9
 197 536 l 17
 264 556 365 590 421 684 c 9
 452 684 l 25
 282 58 l 18
 277 39 283 32 302 32 c 10
 400 32 l 25
 392 0 l 25
 54 0 l 25
EndSplineSet
Layer: 2
SplineSet
54 0 m 1,0,-1
 62 32 l 1,1,-1
 155 32 l 2,2,3
 170 32 170 32 179 38 c 128,-1,4
 188 44 188 44 191 58 c 2,5,-1
 328 563 l 1,6,7
 318 556 318 556 302 549 c 128,-1,8
 286 542 286 542 272 538 c 128,-1,9
 258 534 258 534 236.5 527 c 128,-1,10
 215 520 215 520 204 516 c 1,11,-1
 197 536 l 1,12,13
 222 544 222 544 241 550 c 128,-1,14
 260 556 260 556 288 569 c 128,-1,15
 316 582 316 582 337.5 597 c 128,-1,16
 359 612 359 612 382 634.5 c 128,-1,17
 405 657 405 657 421 684 c 1,18,-1
 452 684 l 1,19,-1
 282 58 l 2,20,21
 278 44 278 44 283 38 c 128,-1,22
 288 32 288 32 302 32 c 2,23,-1
 400 32 l 1,24,-1
 392 0 l 1,25,-1
 54 0 l 1,0,-1
EndSplineSet
AlternateSubs2: "'aalt' Access All Alternates in Latin lookup 0 subtable" onesuperior oneinferior
Substitution2: "'sups' Superscript Forms-1" onesuperior
Substitution2: "'subs' Subscript Forms-1" oneinferior
EndChar

StartChar: two
Encoding: 50 50 18
Width: 580
VWidth: 1080
Flags: W
TeX: 116 0
HStem: -17 104<237.036 376.586> 114 29<116 148.281> 410 97<196.113 265.584> 668 32<292.676 416.931>
VStem: 32 42<10.3203 110.115> 156 39<470.5 580.641> 470 96<459.362 608.971>
LayerCount: 3
Fore
SplineSet
32 26 m 0
 32 109 78 186 174 235 c 10
 310 315 l 18
 385 359 470 448 470 540 c 0
 470 598 446 668 353 668 c 0
 276 668 195 590 195 540 c 0
 195 528 196 507 212 507 c 0
 217 507 221 509 228 513 c 0
 238 518 244 520 252 520 c 0
 283 520 296 498 296 474 c 0
 296 440 269 410 228 410 c 0
 195 410 156 442 156 499 c 0
 156 617 264 700 362 700 c 0
 489 700 566 626 566 522 c 0
 566 389 413 318 331 280 c 10
 216 227 l 18
 146 195 116 161 116 143 c 1
 139 143 167 133 197 120 c 0
 236 104 281 87 329 87 c 0
 378 87 426 108 445 155 c 2
 464 201 l 9
 483 201 l 17
 466 113 416 -17 305 -17 c 0
 244 -17 210 24 183 61 c 0
 161 90 141 114 114 114 c 0
 88 114 74 106 74 70 c 0
 74 62 77 55 81 52 c 0
 91 43 98 35 98 23 c 0
 98 9 91 -8 68 -8 c 0
 45 -8 32 7 32 26 c 0
EndSplineSet
Layer: 2
SplineSet
32 26 m 0,0,1
 32 90 32 90 68 144.5 c 128,-1,2
 104 199 104 199 174 235 c 2,3,-1
 310 315 l 2,4,5
 374 352 374 352 422 414 c 128,-1,6
 470 476 470 476 470 540 c 0,7,8
 470 558 470 558 467 575 c 128,-1,9
 464 592 464 592 455.5 610 c 128,-1,10
 447 628 447 628 434.5 640 c 128,-1,11
 422 652 422 652 401 660 c 128,-1,12
 380 668 380 668 353 668 c 0,13,14
 316 668 316 668 278.5 646.5 c 128,-1,15
 241 625 241 625 218 595 c 128,-1,16
 195 565 195 565 195 540 c 0,17,18
 195 507 195 507 212 507 c 0,19,20
 218 507 218 507 228 513 c 0,21,22
 242 520 242 520 252 520 c 0,23,24
 274 520 274 520 285 507 c 128,-1,25
 296 494 296 494 296 474 c 0,26,27
 296 448 296 448 277 429 c 128,-1,28
 258 410 258 410 228 410 c 0,29,30
 201 410 201 410 178.5 434.5 c 128,-1,31
 156 459 156 459 156 499 c 0,32,33
 156 542 156 542 174.5 580 c 128,-1,34
 193 618 193 618 222.5 644 c 128,-1,35
 252 670 252 670 289 685 c 128,-1,36
 326 700 326 700 362 700 c 0,37,38
 456 700 456 700 511 650.5 c 128,-1,39
 566 601 566 601 566 522 c 0,40,41
 566 494 566 494 557 468 c 128,-1,42
 548 442 548 442 534.5 422.5 c 128,-1,43
 521 403 521 403 498.5 382.5 c 128,-1,44
 476 362 476 362 458 349 c 128,-1,45
 440 336 440 336 412.5 321 c 128,-1,46
 385 306 385 306 370.5 299 c 128,-1,47
 356 292 356 292 331 280 c 2,48,-1
 216 227 l 2,49,50
 168 204 168 204 142 181 c 128,-1,51
 116 158 116 158 116 143 c 1,52,53
 144 143 144 143 197 120 c 0,54,55
 278 87 278 87 329 87 c 0,56,57
 368 87 368 87 400 104.5 c 128,-1,58
 432 122 432 122 445 155 c 2,59,-1
 464 201 l 1,60,-1
 483 201 l 1,61,62
 478 172 478 172 469 144 c 128,-1,63
 460 116 460 116 445 86 c 128,-1,64
 430 56 430 56 411 34 c 128,-1,65
 392 12 392 12 364.5 -2.5 c 128,-1,66
 337 -17 337 -17 305 -17 c 0,67,68
 284 -17 284 -17 265 -10.5 c 128,-1,69
 246 -4 246 -4 231 9 c 128,-1,70
 216 22 216 22 206 33 c 128,-1,71
 196 44 196 44 183 61 c 0,72,73
 163 88 163 88 147.5 101 c 128,-1,74
 132 114 132 114 114 114 c 0,75,76
 93 114 93 114 83.5 105 c 128,-1,77
 74 96 74 96 74 70 c 0,78,79
 74 57 74 57 81 52 c 0,80,81
 98 36 98 36 98 23 c 128,-1,82
 98 10 98 10 91 1 c 128,-1,83
 84 -8 84 -8 68 -8 c 0,84,85
 51 -8 51 -8 41.5 1.5 c 128,-1,86
 32 11 32 11 32 26 c 0,0,1
EndSplineSet
AlternateSubs2: "'aalt' Access All Alternates in Latin lookup 0 subtable" twosuperior twoinferior
Substitution2: "'sups' Superscript Forms-1" twosuperior
Substitution2: "'subs' Subscript Forms-1" twoinferior
EndChar

StartChar: three
Encoding: 51 51 19
Width: 580
VWidth: 1080
Flags: W
TeX: 116 0
HStem: -16 32<144.561 276.97> 126 94<94.7608 170.135> 328 63<203.841 280.997> 366 25<285.17 365.266> 477 85<233.071 294.548> 668 32<295.552 434.423>
VStem: 52 42<54.1657 124.646> 186 47<528 619.732> 392 96<157.802 309.688> 472 86<471.363 615.888>
LayerCount: 3
Fore
SplineSet
52 120 m 0xdf80
 52 191 107 220 147 220 c 0
 187 220 200 189 200 166 c 0
 200 138 180 116 150 116 c 0
 141 116 135 118 130 121 c 0
 125 124 120 126 112 126 c 0
 101 126 94 118 94 105 c 0
 94 36 168 16 216 16 c 0
 261 16 304 40 336 86 c 0
 376 144 392 232 392 278 c 0
 392 310 392 366 320 366 c 0xdf80
 304 366 294 362 281 350 c 0
 270 340 254 328 235 328 c 0
 212 328 200 339 200 354 c 0
 200 370 213 391 240 391 c 2xef80
 343 391 l 2
 383 391 424 425 448 466 c 0
 468 500 472 540 472 575 c 0
 472 626 444 668 371 668 c 0
 305 668 233 631 233 583 c 0
 233 567 238 562 244 562 c 0
 245 562 249 563 253 565 c 0
 259 567 265 568 269 568 c 0
 295 568 304 554 304 530 c 0
 304 504 287 477 248 477 c 0
 211 477 186 508 186 548 c 0
 186 644 284 700 377 700 c 0
 485 700 558 629 558 534 c 0xdf40
 558 442 460 386 398 376 c 9
 397 369 l 17
 434 355 488 312 488 226 c 0
 488 152 446 83 393 42 c 0
 349 8 283 -16 213 -16 c 0
 144 -16 52 30 52 120 c 0xdf80
EndSplineSet
Layer: 2
SplineSet
52 120 m 0,0,1
 52 168 52 168 82 194 c 128,-1,2
 112 220 112 220 147 220 c 0,3,4
 174 220 174 220 187 203.5 c 128,-1,5
 200 187 200 187 200 166 c 0,6,7
 200 144 200 144 186 130 c 128,-1,8
 172 116 172 116 150 116 c 0,9,10
 138 116 138 116 130 121 c 128,-1,11
 122 126 122 126 112 126 c 0,12,13
 104 126 104 126 99 120 c 128,-1,14
 94 114 94 114 94 105 c 0,15,16
 94 80 94 80 106 62 c 128,-1,17
 118 44 118 44 137 34.5 c 128,-1,18
 156 25 156 25 176 20.5 c 128,-1,19
 196 16 196 16 216 16 c 0,20,21
 250 16 250 16 281 34 c 128,-1,22
 312 52 312 52 336 86 c 0,23,24
 364 126 364 126 378 181.5 c 128,-1,25
 392 237 392 237 392 278 c 0,26,27
 392 292 392 292 391.5 300 c 128,-1,28
 391 308 391 308 387.5 322 c 128,-1,29
 384 336 384 336 377 344.5 c 128,-1,30
 370 353 370 353 355 359.5 c 128,-1,31
 340 366 340 366 320 366 c 0,32,33
 298 366 298 366 281 350 c 0,34,35
 257 328 257 328 235 328 c 0,36,37
 218 328 218 328 209 335 c 128,-1,38
 200 342 200 342 200 354 c 0,39,40
 200 368 200 368 211 379.5 c 128,-1,41
 222 391 222 391 240 391 c 2,42,-1
 343 391 l 2,43,44
 372 391 372 391 400.5 412.5 c 128,-1,45
 429 434 429 434 448 466 c 0,46,47
 472 507 472 507 472 575 c 0,48,49
 472 616 472 616 447 642 c 128,-1,50
 422 668 422 668 371 668 c 128,-1,51
 320 668 320 668 276.5 643 c 128,-1,52
 233 618 233 618 233 583 c 0,53,54
 233 562 233 562 244 562 c 0,55,56
 247 562 247 562 253 565 c 1,57,58
 262 568 262 568 269 568 c 0,59,60
 304 568 304 568 304 530 c 0,61,62
 304 508 304 508 290 492.5 c 128,-1,63
 276 477 276 477 248 477 c 128,-1,64
 220 477 220 477 203 497.5 c 128,-1,65
 186 518 186 518 186 548 c 0,66,67
 186 594 186 594 215 629.5 c 128,-1,68
 244 665 244 665 287 682.5 c 128,-1,69
 330 700 330 700 377 700 c 0,70,71
 457 700 457 700 507.5 653 c 128,-1,72
 558 606 558 606 558 534 c 0,73,74
 558 508 558 508 547 483.5 c 128,-1,75
 536 459 536 459 519 441.5 c 128,-1,76
 502 424 502 424 481 410 c 128,-1,77
 460 396 460 396 439 387.5 c 128,-1,78
 418 379 418 379 398 376 c 1,79,-1
 397 369 l 1,80,81
 412 363 412 363 427 352.5 c 128,-1,82
 442 342 442 342 456 325 c 128,-1,83
 470 308 470 308 479 282 c 128,-1,84
 488 256 488 256 488 226 c 0,85,86
 488 172 488 172 461 123 c 128,-1,87
 434 74 434 74 393 42 c 0,88,89
 359 16 359 16 311.5 0 c 128,-1,90
 264 -16 264 -16 213 -16 c 0,91,92
 186 -16 186 -16 158.5 -7 c 128,-1,93
 131 2 131 2 106.5 18 c 128,-1,94
 82 34 82 34 67 61 c 128,-1,95
 52 88 52 88 52 120 c 0,0,1
EndSplineSet
AlternateSubs2: "'aalt' Access All Alternates in Latin lookup 0 subtable" threesuperior threeinferior
Substitution2: "'sups' Superscript Forms-1" threesuperior
Substitution2: "'subs' Subscript Forms-1" threeinferior
EndChar

StartChar: four
Encoding: 52 52 20
Width: 580
VWidth: 1080
Flags: W
TeX: 102 0
HStem: 0 32<126 250.194 348.031 454> 208 36<116 294 398 546> 674 20G<454.5 544>
VStem: 461 17<517.379 535> 462 82<642.712 694>
DStem2: 74 244 116 244 0.740397 0.67217<31.0967 410.147> 238.242 0 333.242 0 0.262189 0.965016<64.2295 215.343 277.351 437.976>
LayerCount: 3
Fore
SplineSet
64 208 m 1xf0
 74 244 l 1
 290 438 l 2
 362 509 447 632 462 694 c 1
 544 694 l 1xe8
 533 644 494 590 409 510 c 2
 116 244 l 1
 303 244 l 1
 347 396 l 1
 402 434 442 489 461 535 c 9
 478 535 l 17
 398 244 l 1
 556 244 l 1
 546 208 l 1
 389 208 l 1
 349 58 l 2
 344 39 350 32 370 32 c 2
 463 32 l 1
 454 0 l 1
 117 0 l 1
 126 32 l 1
 219 32 l 2
 238 32 249 39 254 58 c 2
 294 208 l 1
 64 208 l 1xf0
EndSplineSet
Layer: 2
SplineSet
64 208 m 1,0,-1
 74 244 l 1,1,-1
 290 438 l 2,2,3
 345 492 345 492 398 570 c 128,-1,4
 451 648 451 648 462 694 c 1,5,-1
 544 694 l 1,6,7
 536 656 536 656 504 613 c 128,-1,8
 472 570 472 570 409 510 c 2,9,-1
 116 244 l 1,10,-1
 303 244 l 1,11,-1
 347 396 l 1,12,13
 386 423 386 423 416 460.5 c 128,-1,14
 446 498 446 498 461 535 c 1,15,-1
 478 535 l 1,16,-1
 398 244 l 1,17,-1
 556 244 l 1,18,-1
 546 208 l 1,19,-1
 389 208 l 1,20,-1
 349 58 l 2,21,22
 346 44 346 44 350.5 38 c 128,-1,23
 355 32 355 32 370 32 c 2,24,-1
 463 32 l 1,25,-1
 454 0 l 1,26,-1
 117 0 l 1,27,-1
 126 32 l 1,28,-1
 219 32 l 2,29,30
 247 32 247 32 254 58 c 2,31,-1
 294 208 l 1,32,-1
 64 208 l 1,0,-1
EndSplineSet
AlternateSubs2: "'aalt' Access All Alternates in Latin lookup 0 subtable" foursuperior fourinferior
Substitution2: "'sups' Superscript Forms-1" foursuperior
Substitution2: "'subs' Subscript Forms-1" fourinferior
EndChar

StartChar: five
Encoding: 53 53 21
Width: 580
VWidth: 1080
Flags: W
TeX: 102 0
HStem: -16 32<142.522 282.223> 102 105<116.517 189.915> 418 34<265.423 375.581> 566 60<346.554 480.071> 680 20G<263 297.5 538.5 574>
VStem: 62 44<43.907 141.5> 414 94<183.043 373.964>
LayerCount: 3
Fore
SplineSet
62 114 m 0
 62 169 98 207 140 207 c 0
 178 207 200 187 200 150 c 0
 200 125 182 102 149 102 c 0
 140 102 127 105 116 99 c 0
 110 95 106 90 106 82 c 0
 106 43 152 16 216 16 c 0
 279 16 333 53 370 126 c 0
 396 177 414 257 414 312 c 0
 414 373 389 418 313 418 c 0
 276 418 220 395 195 317 c 0
 190 300 179 286 166 286 c 0
 155 286 137 288 137 310 c 0
 137 333 151 350 167 367 c 0
 181 382 195 399 202 422 c 2
 252 585 l 2
 262 618 266 638 266 658 c 0
 266 666 265 674 263 683 c 1
 287 700 l 1
 308 676 357 626 410 626 c 0
 469 626 518 646 559 700 c 9
 574 685 l 17
 544 638 496 566 391 566 c 0
 344 566 313 589 292 609 c 1
 236 423 l 1
 240 420 l 1
 258 436 303 452 330 452 c 0
 443 452 508 390 508 284 c 0
 508 220 479 130 419 68 c 0
 370 17 299 -16 222 -16 c 0
 126 -16 62 36 62 114 c 0
EndSplineSet
Layer: 2
SplineSet
62 114 m 0,0,1
 62 154 62 154 85 180.5 c 128,-1,2
 108 207 108 207 140 207 c 0,3,4
 168 207 168 207 184 192.5 c 128,-1,5
 200 178 200 178 200 150 c 0,6,7
 200 130 200 130 186 116 c 128,-1,8
 172 102 172 102 149 102 c 0,9,10
 148 102 148 102 140 102.5 c 128,-1,11
 132 103 132 103 126.5 102.5 c 128,-1,12
 121 102 121 102 116 99 c 0,13,14
 106 92 106 92 106 82 c 0,15,16
 106 53 106 53 137 34.5 c 128,-1,17
 168 16 168 16 216 16 c 0,18,19
 314 16 314 16 370 126 c 0,20,21
 389 164 389 164 401.5 217 c 128,-1,22
 414 270 414 270 414 312 c 0,23,24
 414 418 414 418 313 418 c 0,25,26
 280 418 280 418 246 394 c 128,-1,27
 212 370 212 370 195 317 c 0,28,29
 191 304 191 304 183.5 295 c 128,-1,30
 176 286 176 286 166 286 c 0,31,32
 137 286 137 286 137 310 c 0,33,34
 137 335 137 335 167 367 c 0,35,36
 194 396 194 396 202 422 c 2,37,-1
 252 585 l 2,38,39
 266 631 266 631 266 658 c 0,40,41
 266 670 266 670 263 683 c 1,42,-1
 287 700 l 1,43,44
 352 626 352 626 410 626 c 0,45,46
 503 626 503 626 559 700 c 1,47,-1
 574 685 l 1,48,49
 558 661 558 661 546 645.5 c 128,-1,50
 534 630 534 630 511.5 609 c 128,-1,51
 489 588 489 588 458.5 577 c 128,-1,52
 428 566 428 566 391 566 c 0,53,54
 337 566 337 566 292 609 c 1,55,-1
 236 423 l 1,56,-1
 240 420 l 1,57,58
 254 432 254 432 282 442 c 128,-1,59
 310 452 310 452 330 452 c 0,60,61
 414 452 414 452 461 408 c 128,-1,62
 508 364 508 364 508 284 c 0,63,64
 508 232 508 232 485 172 c 128,-1,65
 462 112 462 112 419 68 c 0,66,67
 382 29 382 29 330 6.5 c 128,-1,68
 278 -16 278 -16 222 -16 c 0,69,70
 150 -16 150 -16 106 20 c 128,-1,71
 62 56 62 56 62 114 c 0,0,1
EndSplineSet
AlternateSubs2: "'aalt' Access All Alternates in Latin lookup 0 subtable" fivesuperior fiveinferior
Substitution2: "'sups' Superscript Forms-1" fivesuperior
Substitution2: "'subs' Subscript Forms-1" fiveinferior
EndChar

StartChar: six
Encoding: 54 54 22
Width: 580
VWidth: 1080
Flags: W
TeX: 115 0
HStem: -16 32<214.795 314.843> 390 36<283.407 390.117> 668 32<372.951 486.594>
VStem: 90 88<83.0693 257.005> 422 87<158.226 350.76> 500 48<566.5 658.118>
LayerCount: 3
Fore
SplineSet
178 120 m 0xf8
 178 60 210 16 260 16 c 0
 311 16 352 53 378 101 c 0
 406 153 422 220 422 284 c 0
 422 342 397 390 342 390 c 0
 291 390 243 355 203 265 c 0
 184 223 178 165 178 120 c 0xf8
90 212 m 0
 90 302 123 435 189 540 c 0
 262 656 356 700 431 700 c 0
 465 700 496 687 515 671 c 0
 541 649 548 621 548 595 c 0
 548 538 514 502 477 502 c 0
 449 502 429 518 429 545 c 0
 429 586 460 597 475 600 c 0
 484 602 500 608 500 625 c 0xf4
 500 633 500 642 483 655 c 0
 472 663 457 668 429 668 c 0
 364 668 296 602 254 514 c 0
 226 456 210 398 203 347 c 1
 210 342 l 1
 245 397 302 426 355 426 c 0
 455 426 509 353 509 261 c 0
 509 190 474 113 428 62 c 0
 403 35 344 -16 252 -16 c 0
 164 -16 90 51 90 212 c 0
EndSplineSet
Layer: 2
SplineSet
178 120 m 0,0,1
 178 74 178 74 200.5 45 c 128,-1,2
 223 16 223 16 260 16 c 0,3,4
 296 16 296 16 326.5 39 c 128,-1,5
 357 62 357 62 378 101 c 0,6,7
 422 182 422 182 422 284 c 0,8,9
 422 330 422 330 402 360 c 128,-1,10
 382 390 382 390 342 390 c 0,11,12
 258 390 258 390 203 265 c 0,13,14
 178 210 178 210 178 120 c 0,0,1
90 212 m 0,15,16
 90 284 90 284 116 374.5 c 128,-1,17
 142 465 142 465 189 540 c 0,18,19
 240 622 240 622 305 661 c 128,-1,20
 370 700 370 700 431 700 c 0,21,22
 480 700 480 700 515 671 c 0,23,24
 548 643 548 643 548 595 c 0,25,26
 548 554 548 554 527 528 c 128,-1,27
 506 502 506 502 477 502 c 0,28,29
 456 502 456 502 442.5 513.5 c 128,-1,30
 429 525 429 525 429 545 c 0,31,32
 429 564 429 564 438 577 c 128,-1,33
 447 590 447 590 456 594 c 128,-1,34
 465 598 465 598 475 600 c 0,35,36
 500 606 500 606 500 625 c 0,37,38
 500 642 500 642 483 655 c 0,39,40
 465 668 465 668 429 668 c 0,41,42
 382 668 382 668 334 625 c 128,-1,43
 286 582 286 582 254 514 c 0,44,45
 215 432 215 432 203 347 c 1,46,-1
 210 342 l 1,47,48
 236 382 236 382 275 404 c 128,-1,49
 314 426 314 426 355 426 c 0,50,51
 428 426 428 426 468.5 379.5 c 128,-1,52
 509 333 509 333 509 261 c 0,53,54
 509 210 509 210 486.5 156 c 128,-1,55
 464 102 464 102 428 62 c 0,56,57
 416 50 416 50 402 38 c 128,-1,58
 388 26 388 26 366 13 c 128,-1,59
 344 0 344 0 314 -8 c 128,-1,60
 284 -16 284 -16 252 -16 c 0,61,62
 181 -16 181 -16 135.5 41 c 128,-1,63
 90 98 90 98 90 212 c 0,15,16
EndSplineSet
AlternateSubs2: "'aalt' Access All Alternates in Latin lookup 0 subtable" sixsuperior sixinferior
Substitution2: "'sups' Superscript Forms-1" sixsuperior
Substitution2: "'subs' Subscript Forms-1" sixinferior
EndChar

StartChar: seven
Encoding: 55 55 23
Width: 580
VWidth: 1080
Flags: W
TeX: 115 0
HStem: -17 21G<188.5 227> 530 50<440.5 533.74> 612 32<246.855 269.91> 682 20G<213.035 238>
VStem: 144 128<0.118744 125.42> 219 19<678.529 702> 554 38<583.591 643.5>
LayerCount: 3
Fore
SplineSet
144 54 m 0xfa
 144 134 256 259 320 330 c 2
 508 538 l 1
 504 542 l 1
 491 533 473 530 464 530 c 0
 417 530 389 553 362 576 c 0
 340 595 319 612 291 612 c 0
 247 612 222 576 191 515 c 2
 170 474 l 9
 151 474 l 25
 219 702 l 17
 238 702 l 1xf6
 230 675 232 644 251 644 c 1
 279 669 310 692 354 692 c 0
 392 692 420 663 442 633 c 0
 464 603 485 580 514 580 c 0
 546 580 554 596 554 606 c 0
 554 615 550 621 542 625 c 0
 535 630 528 636 528 651 c 0
 528 673 544 681 555 681 c 0
 586 681 592 654 592 633 c 0
 592 594 557 553 512 501 c 0
 384 352 337 297 302 214 c 0
 275 149 272 106 272 62 c 0
 272 12 246 -17 208 -17 c 0
 169 -17 144 6 144 54 c 0xfa
EndSplineSet
Layer: 2
SplineSet
144 54 m 0,0,1
 144 82 144 82 161 118.5 c 128,-1,2
 178 155 178 155 210 197.5 c 128,-1,3
 242 240 242 240 264 266 c 128,-1,4
 286 292 286 292 320 330 c 2,5,-1
 508 538 l 1,6,-1
 504 542 l 1,7,8
 486 530 486 530 464 530 c 128,-1,9
 442 530 442 530 422 537.5 c 128,-1,10
 402 545 402 545 391 553 c 128,-1,11
 380 561 380 561 362 576 c 0,12,13
 348 588 348 588 339.5 594.5 c 128,-1,14
 331 601 331 601 317.5 606.5 c 128,-1,15
 304 612 304 612 291 612 c 0,16,17
 260 612 260 612 238.5 589 c 128,-1,18
 217 566 217 566 191 515 c 2,19,-1
 170 474 l 1,20,-1
 151 474 l 1,21,-1
 219 702 l 1,22,-1
 238 702 l 1,23,24
 231 682 231 682 234.5 663 c 128,-1,25
 238 644 238 644 251 644 c 1,26,27
 276 667 276 667 300 679.5 c 128,-1,28
 324 692 324 692 354 692 c 0,29,30
 398 692 398 692 442 633 c 0,31,32
 461 607 461 607 477.5 593.5 c 128,-1,33
 494 580 494 580 514 580 c 0,34,35
 536 580 536 580 545 588 c 128,-1,36
 554 596 554 596 554 606 c 0,37,38
 554 619 554 619 542 625 c 1,39,40
 528 635 528 635 528 651 c 0,41,42
 528 666 528 666 536.5 673.5 c 128,-1,43
 545 681 545 681 555 681 c 0,44,45
 592 681 592 681 592 633 c 0,46,47
 592 614 592 614 580 591 c 128,-1,48
 568 568 568 568 554 551 c 128,-1,49
 540 534 540 534 512 501 c 0,50,51
 404 376 404 376 365 324 c 128,-1,52
 326 272 326 272 302 214 c 0,53,54
 284 170 284 170 278 136 c 128,-1,55
 272 102 272 102 272 62 c 0,56,57
 272 25 272 25 254.5 4 c 128,-1,58
 237 -17 237 -17 208 -17 c 0,59,60
 178 -17 178 -17 161 1 c 128,-1,61
 144 19 144 19 144 54 c 0,0,1
EndSplineSet
AlternateSubs2: "'aalt' Access All Alternates in Latin lookup 0 subtable" sevensuperior seveninferior
Substitution2: "'sups' Superscript Forms-1" sevensuperior
Substitution2: "'subs' Subscript Forms-1" seveninferior
EndChar

StartChar: eight
Encoding: 56 56 24
Width: 580
VWidth: 1080
Flags: W
TeX: 101 0
HStem: -16 32<181.814 333.106> 668 32<324.233 458.343>
VStem: 68 44<75.1924 243.882> 184 70<457.353 590.888> 414 72<96.2547 229.145> 524 54<453.574 610.796>
DStem2: 290 443 271 336 0.764911 -0.644136<38.984 137.952 149.037 251.272>
LayerCount: 3
Fore
SplineSet
254 526 m 0
 254 483 266 464 290 443 c 2
 381 363 l 1
 468 376 524 452 524 522 c 0
 524 613 478 668 386 668 c 0
 340 668 254 637 254 526 c 0
68 161 m 0
 68 234 110 291 154 318 c 0
 186 338 205 346 251 354 c 1
 220 376 184 430 184 497 c 0
 184 553 204 599 235 635 c 0
 277 683 345 700 390 700 c 0
 502 700 578 644 578 544 c 0
 578 491 555 430 513 398 c 0
 482 374 435 352 404 347 c 1
 458 301 486 256 486 192 c 0
 486 126 463 79 420 41 c 0
 381 6 322 -16 248 -16 c 0
 168 -16 68 40 68 161 c 0
112 162 m 0
 112 72 160 16 260 16 c 0
 344 16 414 72 414 142 c 0
 414 182 405 223 376 248 c 2
 271 336 l 1
 235 328 200 320 166 287 c 0
 138 260 112 215 112 162 c 0
EndSplineSet
Layer: 2
SplineSet
254 526 m 0,0,1
 254 496 254 496 262 478 c 128,-1,2
 270 460 270 460 290 443 c 2,3,-1
 381 363 l 1,4,5
 444 372 444 372 484 419.5 c 128,-1,6
 524 467 524 467 524 522 c 0,7,8
 524 592 524 592 489 630 c 128,-1,9
 454 668 454 668 386 668 c 0,10,11
 371 668 371 668 354.5 664 c 128,-1,12
 338 660 338 660 320 650 c 128,-1,13
 302 640 302 640 287.5 624 c 128,-1,14
 273 608 273 608 263.5 583 c 128,-1,15
 254 558 254 558 254 526 c 0,0,1
68 161 m 0,16,17
 68 212 68 212 93 254 c 128,-1,18
 118 296 118 296 154 318 c 0,19,20
 179 334 179 334 198.5 341 c 128,-1,21
 218 348 218 348 251 354 c 1,22,23
 224 372 224 372 204 411 c 128,-1,24
 184 450 184 450 184 497 c 0,25,26
 184 576 184 576 235 635 c 0,27,28
 264 668 264 668 307.5 684 c 128,-1,29
 351 700 351 700 390 700 c 0,30,31
 476 700 476 700 527 659 c 128,-1,32
 578 618 578 618 578 544 c 0,33,34
 578 502 578 502 561 461.5 c 128,-1,35
 544 421 544 421 513 398 c 0,36,37
 490 380 490 380 458.5 365 c 128,-1,38
 427 350 427 350 404 347 c 1,39,40
 446 311 446 311 466 274.5 c 128,-1,41
 486 238 486 238 486 192 c 0,42,43
 486 100 486 100 420 41 c 0,44,45
 356 -16 356 -16 248 -16 c 0,46,47
 217 -16 217 -16 186 -5 c 128,-1,48
 155 6 155 6 128.5 27 c 128,-1,49
 102 48 102 48 85 83 c 128,-1,50
 68 118 68 118 68 161 c 0,16,17
112 162 m 0,51,52
 112 93 112 93 149 54.5 c 128,-1,53
 186 16 186 16 260 16 c 0,54,55
 324 16 324 16 369 53 c 128,-1,56
 414 90 414 90 414 142 c 0,57,58
 414 215 414 215 376 248 c 2,59,-1
 271 336 l 1,60,61
 248 331 248 331 234.5 327 c 128,-1,62
 221 323 221 323 201.5 312.5 c 128,-1,63
 182 302 182 302 166 287 c 0,64,65
 143 264 143 264 127.5 231.5 c 128,-1,66
 112 199 112 199 112 162 c 0,51,52
EndSplineSet
AlternateSubs2: "'aalt' Access All Alternates in Latin lookup 0 subtable" eightsuperior eightinferior
Substitution2: "'sups' Superscript Forms-1" eightsuperior
Substitution2: "'subs' Subscript Forms-1" eightinferior
EndChar

StartChar: nine
Encoding: 57 57 25
Width: 580
VWidth: 1080
Flags: W
TeX: 110 0
HStem: -16 32<149.407 263.049> 258 36<245.883 352.593> 668 32<321.157 421.205>
VStem: 88 48<25.8818 117.5> 127 87<333.24 525.774> 458 88<426.995 600.931>
LayerCount: 3
Fore
SplineSet
214 400 m 0xec
 214 342 239 294 294 294 c 0
 345 294 393 329 433 419 c 0
 452 461 458 519 458 564 c 0
 458 624 426 668 376 668 c 0
 325 668 284 631 258 583 c 0
 230 531 214 464 214 400 c 0xec
88 89 m 0xf4
 88 146 122 182 159 182 c 0
 187 182 207 166 207 139 c 0
 207 98 176 87 161 84 c 0
 152 82 136 76 136 59 c 0xf4
 136 51 136 42 153 29 c 0
 164 21 179 16 207 16 c 0
 272 16 340 82 382 170 c 0
 410 228 426 286 433 337 c 1
 426 342 l 1
 391 287 334 258 281 258 c 0
 181 258 127 331 127 423 c 0xec
 127 494 162 571 208 622 c 0
 233 649 292 700 384 700 c 0
 472 700 546 633 546 472 c 0
 546 382 513 249 447 144 c 0
 374 28 280 -16 205 -16 c 0
 171 -16 140 -3 121 13 c 0
 95 35 88 63 88 89 c 0xf4
EndSplineSet
Layer: 2
SplineSet
214 400 m 0,0,1
 214 354 214 354 234 324 c 128,-1,2
 254 294 254 294 294 294 c 0,3,4
 378 294 378 294 433 419 c 0,5,6
 458 474 458 474 458 564 c 0,7,8
 458 610 458 610 435.5 639 c 128,-1,9
 413 668 413 668 376 668 c 0,10,11
 340 668 340 668 309.5 645 c 128,-1,12
 279 622 279 622 258 583 c 0,13,14
 214 502 214 502 214 400 c 0,0,1
88 89 m 0,15,16
 88 130 88 130 109 156 c 128,-1,17
 130 182 130 182 159 182 c 0,18,19
 180 182 180 182 193.5 170.5 c 128,-1,20
 207 159 207 159 207 139 c 0,21,22
 207 120 207 120 198 107 c 128,-1,23
 189 94 189 94 180 90 c 128,-1,24
 171 86 171 86 161 84 c 0,25,26
 136 78 136 78 136 59 c 0,27,28
 136 42 136 42 153 29 c 0,29,30
 171 16 171 16 207 16 c 0,31,32
 254 16 254 16 302 59 c 128,-1,33
 350 102 350 102 382 170 c 0,34,35
 421 252 421 252 433 337 c 1,36,-1
 426 342 l 1,37,38
 400 302 400 302 361 280 c 128,-1,39
 322 258 322 258 281 258 c 0,40,41
 208 258 208 258 167.5 304.5 c 128,-1,42
 127 351 127 351 127 423 c 0,43,44
 127 474 127 474 149.5 528 c 128,-1,45
 172 582 172 582 208 622 c 0,46,47
 220 634 220 634 234 646 c 128,-1,48
 248 658 248 658 270 671 c 128,-1,49
 292 684 292 684 322 692 c 128,-1,50
 352 700 352 700 384 700 c 0,51,52
 455 700 455 700 500.5 643 c 128,-1,53
 546 586 546 586 546 472 c 0,54,55
 546 400 546 400 520 309.5 c 128,-1,56
 494 219 494 219 447 144 c 0,57,58
 396 62 396 62 331 23 c 128,-1,59
 266 -16 266 -16 205 -16 c 0,60,61
 156 -16 156 -16 121 13 c 0,62,63
 88 41 88 41 88 89 c 0,15,16
EndSplineSet
AlternateSubs2: "'aalt' Access All Alternates in Latin lookup 0 subtable" ninesuperior nineinferior
Substitution2: "'sups' Superscript Forms-1" ninesuperior
Substitution2: "'subs' Subscript Forms-1" nineinferior
EndChar

StartChar: less
Encoding: 60 60 28
Width: 940
Flags: W
TeX: 108 0
HStem: -156 21G<802.759 851.111> 664 20G<802.759 851.111>
VStem: 84 62<219 309>
DStem2: 84 278 146 264 0.880994 0.473127<47.9979 858.121> 146 264 84 250 0.880994 -0.473127<0 810.123>
LayerCount: 3
Fore
SplineSet
84 250 m 1
 84 278 l 1
 840 684 l 1
 860 648 l 1
 146 264 l 1
 860 -120 l 1
 840 -156 l 1
 84 250 l 1
EndSplineSet
Layer: 2
SplineSet
84 250 m 1,0,-1
 84 278 l 1,1,-1
 840 684 l 1,2,-1
 860 648 l 1,3,-1
 146 264 l 1,4,-1
 860 -120 l 1,5,-1
 840 -156 l 1,6,-1
 84 250 l 1,0,-1
EndSplineSet
EndChar

StartChar: equal
Encoding: 61 61 29
Width: 940
Flags: W
TeX: 101 0
HStem: 148 40<56 900> 338 40<56 900>
LayerCount: 3
Fore
SplineSet
56 338 m 1
 56 378 l 1
 900 378 l 1
 900 338 l 1
 56 338 l 1
56 148 m 1
 56 188 l 1
 900 188 l 1
 900 148 l 1
 56 148 l 1
EndSplineSet
Layer: 2
SplineSet
56 338 m 1,0,-1
 56 378 l 1,1,-1
 900 378 l 1,2,-1
 900 338 l 1,3,-1
 56 338 l 1,0,-1
56 148 m 1,4,-1
 56 188 l 1,5,-1
 900 188 l 1,6,-1
 900 148 l 1,7,-1
 56 148 l 1,4,-1
EndSplineSet
EndChar

StartChar: greater
Encoding: 62 62 30
Width: 940
Flags: W
TeX: 103 0
HStem: -156 21G<88.8889 137.241> 664 20G<88.8889 137.241>
VStem: 794 62<219 309>
DStem2: 100 684 80 648 0.880994 -0.473127<0 810.123> 80 -120 100 -156 0.880994 0.473127<0.58733 810.711>
LayerCount: 3
Fore
SplineSet
80 -120 m 1
 794 264 l 1
 80 648 l 1
 100 684 l 1
 856 278 l 1
 856 250 l 1
 100 -156 l 1
 80 -120 l 1
EndSplineSet
Layer: 2
SplineSet
80 -120 m 1,0,-1
 794 264 l 1,1,-1
 80 648 l 1,2,-1
 100 684 l 1,3,-1
 856 278 l 1,4,-1
 856 250 l 1,5,-1
 100 -156 l 1,6,-1
 80 -120 l 1,0,-1
EndSplineSet
EndChar

StartChar: question
Encoding: 63 63 31
Width: 436
Flags: W
TeX: 113 0
HStem: -12 124<125.59 222.41> 154 30<191.642 280.148> 664 30<261.195 375.067>
VStem: 112 124<1.58984 98.4102> 136 42<193.585 283.775> 138 48<529 604.559> 310 20<221.564 289.316> 420 72<483.71 623.484>
LayerCount: 3
Fore
SplineSet
112 50 m 0xf3
 112 86 138 112 174 112 c 0
 210 112 236 86 236 50 c 0
 236 14 210 -12 174 -12 c 0
 138 -12 112 14 112 50 c 0xf3
136 242 m 0xeb
 136 293 172 337 218 364 c 10
 342 438 l 18
 386 462 420 496 420 544 c 0
 420 612 388 664 324 664 c 0
 215 664 186 607 186 581 c 0
 186 566 192 559 199 556 c 0
 209 552 215 549 220 544 c 0
 228 535 230 528 230 515 c 0
 230 500 217 478 191 478 c 0
 177 478 165 482 156 492 c 0
 145 503 138 517 138 541 c 0xe7
 138 626 248 694 333 694 c 0
 442 694 492 623 492 534 c 0
 492 472 442 417 382 388 c 2
 249 324 l 2
 206 300 178 268 178 236 c 0
 178 199 204 184 230 184 c 0
 290 184 310 226 310 262 c 0
 310 270 306 284 300 291 c 9
 312 300 l 17
 320 292 330 275 330 254 c 0
 330 198 284 154 226 154 c 0
 178 154 136 188 136 242 c 0xeb
EndSplineSet
Layer: 2
SplineSet
112 50 m 128,-1,1
 112 77 112 77 129.5 94.5 c 128,-1,2
 147 112 147 112 174 112 c 128,-1,3
 201 112 201 112 218.5 94.5 c 128,-1,4
 236 77 236 77 236 50 c 128,-1,5
 236 23 236 23 218.5 5.5 c 128,-1,6
 201 -12 201 -12 174 -12 c 128,-1,7
 147 -12 147 -12 129.5 5.5 c 128,-1,0
 112 23 112 23 112 50 c 128,-1,1
136 242 m 0,8,9
 136 278 136 278 159 310 c 128,-1,10
 182 342 182 342 218 364 c 2,11,-1
 342 438 l 2,12,13
 420 480 420 480 420 544 c 0,14,15
 420 597 420 597 395 630.5 c 128,-1,16
 370 664 370 664 324 664 c 0,17,18
 293 664 293 664 268 658 c 128,-1,19
 243 652 243 652 228.5 642.5 c 128,-1,20
 214 633 214 633 204 621.5 c 128,-1,21
 194 610 194 610 190 600 c 128,-1,22
 186 590 186 590 186 581 c 0,23,24
 186 562 186 562 199 556 c 0,25,26
 214 550 214 550 220 544 c 0,27,28
 230 533 230 533 230 515 c 0,29,30
 230 502 230 502 219.5 490 c 128,-1,31
 209 478 209 478 191 478 c 0,32,33
 168 478 168 478 156 492 c 0,34,35
 138 510 138 510 138 541 c 0,36,37
 138 582 138 582 169 618 c 128,-1,38
 200 654 200 654 245 674 c 128,-1,39
 290 694 290 694 333 694 c 0,40,41
 411 694 411 694 451.5 649 c 128,-1,42
 492 604 492 604 492 534 c 0,43,44
 492 490 492 490 461 450.5 c 128,-1,45
 430 411 430 411 382 388 c 2,46,-1
 249 324 l 2,47,48
 216 306 216 306 197 283 c 128,-1,49
 178 260 178 260 178 236 c 0,50,51
 178 210 178 210 193 197 c 128,-1,52
 208 184 208 184 230 184 c 0,53,54
 271 184 271 184 290.5 207 c 128,-1,55
 310 230 310 230 310 262 c 0,56,57
 310 280 310 280 300 291 c 1,58,-1
 312 300 l 1,59,60
 330 282 330 282 330 254 c 0,61,62
 330 212 330 212 300 183 c 128,-1,63
 270 154 270 154 226 154 c 0,64,65
 188 154 188 154 162 178 c 128,-1,66
 136 202 136 202 136 242 c 0,8,9
EndSplineSet
EndChar

StartChar: at
Encoding: 64 64 32
Width: 820
Flags: W
TeX: 97 0
HStem: -18 28<360.421 553.491> 131 24<343.186 412.246 580.602 655.248> 555 24<447.739 521.854> 702 28<373.467 559.88>
VStem: 96 48<213.544 469.137> 254 68<178.352 375.985> 766 48<277.379 509.079>
DStem2: 426.092 -18 497.284 -18 0.262189 0.965016<239.043 530.14 561.557 605.936>
LayerCount: 3
Fore
SplineSet
96 355 m 0
 96 561 260 730 468 730 c 0
 693 730 814 572 814 377 c 0
 814 278 744 131 586 131 c 0
 536 131 497 159 491 206 c 9
 486 207 l 17
 471 184 426 131 366 131 c 0
 312 131 254 170 254 255 c 0
 254 333 275 426 321 481 c 0
 381 553 445 579 497 579 c 0
 535 579 564 543 568 524 c 1
 573 524 l 9
 584 567 l 25
 656 567 l 25
 572 257 l 18
 554 191 578 155 602 155 c 0
 734 155 766 302 766 397 c 0
 766 590 643 702 459 702 c 0
 285 702 144 544 144 335 c 0
 144 135 264 10 468 10 c 0
 550 10 612 47 644 68 c 9
 660 45 l 17
 631 24 562 -18 458 -18 c 0
 231 -18 96 134 96 355 c 0
322 223 m 0
 322 179 348 155 370 155 c 0
 442 155 498 246 522 335 c 2
 545 420 l 2
 559 472 540 555 497 555 c 0
 446 555 405 525 364 435 c 0
 341 385 322 297 322 223 c 0
EndSplineSet
Layer: 2
SplineSet
96 355 m 0,0,1
 96 456 96 456 145 542.5 c 128,-1,2
 194 629 194 629 280 679.5 c 128,-1,3
 366 730 366 730 468 730 c 0,4,5
 550 730 550 730 616.5 702 c 128,-1,6
 683 674 683 674 725.5 626 c 128,-1,7
 768 578 768 578 791 514 c 128,-1,8
 814 450 814 450 814 377 c 0,9,10
 814 346 814 346 806 313 c 128,-1,11
 798 280 798 280 779 247.5 c 128,-1,12
 760 215 760 215 734.5 189 c 128,-1,13
 709 163 709 163 670.5 147 c 128,-1,14
 632 131 632 131 586 131 c 0,15,16
 548 131 548 131 522 151.5 c 128,-1,17
 496 172 496 172 491 206 c 1,18,-1
 486 207 l 1,19,20
 479 196 479 196 468.5 185 c 128,-1,21
 458 174 458 174 443 161 c 128,-1,22
 428 148 428 148 407.5 139.5 c 128,-1,23
 387 131 387 131 366 131 c 0,24,25
 321 131 321 131 287.5 163.5 c 128,-1,26
 254 196 254 196 254 255 c 0,27,28
 254 318 254 318 271 380 c 128,-1,29
 288 442 288 442 321 481 c 0,30,31
 364 532 364 532 409 555.5 c 128,-1,32
 454 579 454 579 497 579 c 0,33,34
 523 579 523 579 543.5 560 c 128,-1,35
 564 541 564 541 568 524 c 1,36,-1
 573 524 l 1,37,-1
 584 567 l 1,38,-1
 656 567 l 1,39,-1
 572 257 l 2,40,41
 561 208 561 208 571.5 181.5 c 128,-1,42
 582 155 582 155 602 155 c 0,43,44
 630 155 630 155 653 163.5 c 128,-1,45
 676 172 676 172 692.5 186 c 128,-1,46
 709 200 709 200 722 220 c 128,-1,47
 735 240 735 240 743 262 c 128,-1,48
 751 284 751 284 756.5 308 c 128,-1,49
 762 332 762 332 764 354 c 128,-1,50
 766 376 766 376 766 397 c 0,51,52
 766 540 766 540 682.5 621 c 128,-1,53
 599 702 599 702 459 702 c 0,54,55
 373 702 373 702 300.5 654 c 128,-1,56
 228 606 228 606 186 522 c 128,-1,57
 144 438 144 438 144 335 c 0,58,59
 144 184 144 184 230 97 c 128,-1,60
 316 10 316 10 468 10 c 0,61,62
 556 10 556 10 644 68 c 1,63,-1
 660 45 l 1,64,65
 573 -18 573 -18 458 -18 c 0,66,67
 346 -18 346 -18 264 29 c 128,-1,68
 182 76 182 76 139 160 c 128,-1,69
 96 244 96 244 96 355 c 0,0,1
322 223 m 0,70,71
 322 192 322 192 337 173.5 c 128,-1,72
 352 155 352 155 370 155 c 0,73,74
 420 155 420 155 461 208.5 c 128,-1,75
 502 262 502 262 522 335 c 2,76,-1
 545 420 l 2,77,78
 551 440 551 440 549.5 463 c 128,-1,79
 548 486 548 486 542.5 507 c 128,-1,80
 537 528 537 528 524.5 541.5 c 128,-1,81
 512 555 512 555 497 555 c 0,82,83
 457 555 457 555 425.5 527.5 c 128,-1,84
 394 500 394 500 364 435 c 0,85,86
 346 396 346 396 334 336.5 c 128,-1,87
 322 277 322 277 322 223 c 0,70,71
EndSplineSet
EndChar

StartChar: A
Encoding: 65 65 33
Width: 728
VWidth: 1039
Flags: W
TeX: 65 0
HStem: 0 32<-36 65.3728 165.482 248 368 465.874 568.167 656> 244 36<288 472> 692 20G<522.48 560>
VStem: 472 88<36.554 244 280 549>
DStem2: 125 104 195 144 0.560034 0.828469<-10.3744 193.27 237.096 563.001>
AnchorPoint: "Bottom" 312 0 basechar 0
AnchorPoint: "Top" 550 762 basechar 0
LayerCount: 3
Fore
SplineSet
288 280 m 1
 472 280 l 1
 472 549 l 1
 288 280 l 1
-44 0 m 1
 -36 32 l 1
 1 32 l 2
 61 32 104 70 125 104 c 2
 536 712 l 1
 560 712 l 1
 560 75 l 2
 563 40 581 32 608 32 c 2
 664 32 l 1
 656 0 l 1
 360 0 l 1
 368 32 l 1
 430 32 l 2
 453 32 472 37 472 78 c 2
 472 244 l 1
 263 244 l 1
 195 144 l 2
 181 124 161 90 161 66 c 0
 161 48 170 32 201 32 c 2
 256 32 l 1
 248 0 l 1
 -44 0 l 1
EndSplineSet
Layer: 2
SplineSet
288 280 m 1,0,-1
 472 280 l 1,1,-1
 472 549 l 1,2,-1
 288 280 l 1,0,-1
-44 0 m 1,3,-1
 -36 32 l 1,4,-1
 1 32 l 2,5,6
 42 32 42 32 74 53 c 128,-1,7
 106 74 106 74 125 104 c 2,8,-1
 536 712 l 1,9,-1
 560 712 l 1,10,-1
 560 75 l 2,11,12
 562 50 562 50 574 41 c 128,-1,13
 586 32 586 32 608 32 c 2,14,-1
 664 32 l 1,15,-1
 656 0 l 1,16,-1
 360 0 l 1,17,-1
 368 32 l 1,18,-1
 430 32 l 2,19,20
 450 32 450 32 461 41 c 128,-1,21
 472 50 472 50 472 78 c 2,22,-1
 472 244 l 1,23,-1
 263 244 l 1,24,-1
 195 144 l 2,25,26
 161 96 161 96 161 66 c 0,27,28
 161 32 161 32 201 32 c 2,29,-1
 256 32 l 1,30,-1
 248 0 l 1,31,-1
 -44 0 l 1,3,-1
EndSplineSet
EndChar

StartChar: B
Encoding: 66 66 34
Width: 690
VWidth: 1039
Flags: W
TeX: 66 0
HStem: 0 32<-2 103.609 197.755 441.174> 362 32<290 479.902> 680 32<182 270.346 364.517 563.402>
VStem: 538 106<136.763 295.798> 610 96<484.118 637.32>
DStem2: 91.9701 0 182.97 0 0.262189 0.965016<63.0346 398.898 432.138 698.555>
AnchorPoint: "Top" 452 762 basechar 0
AnchorPoint: "Bottom" 226 0 basechar 0
LayerCount: 3
Fore
SplineSet
199 59 m 2xf0
 194 41 200 32 218 32 c 2
 381 32 l 2
 480 32 538 132 538 215 c 0
 538 302 500 362 419 362 c 10
 281 362 l 25
 199 59 l 2xf0
-10 0 m 1
 -2 32 l 1
 74 32 l 2
 93 32 103 41 108 59 c 2
 269 653 l 2
 275 672 268 680 250 680 c 2
 174 680 l 1
 182 712 l 1
 530 712 l 2
 620 712 706 662 706 559 c 0xe8
 706 438 570 388 485 376 c 1
 484 374 l 1
 568 370 644 310 644 220 c 0
 644 82 486 0 364 0 c 2
 -10 0 l 1
290 394 m 25
 424 394 l 2
 573 394 610 496 610 561 c 0
 610 645 568 680 499 680 c 2
 394 680 l 2
 376 680 365 672 360 653 c 10
 290 394 l 25
EndSplineSet
Layer: 2
SplineSet
199 59 m 2,0,1
 192 32 192 32 218 32 c 2,2,-1
 381 32 l 2,3,4
 410 32 410 32 435 43 c 128,-1,5
 460 54 460 54 479 72.5 c 128,-1,6
 498 91 498 91 511 114.5 c 128,-1,7
 524 138 524 138 531 164 c 128,-1,8
 538 190 538 190 538 215 c 0,9,10
 538 282 538 282 508 322 c 128,-1,11
 478 362 478 362 419 362 c 2,12,-1
 281 362 l 1,13,-1
 199 59 l 2,0,1
-10 0 m 1,14,-1
 -2 32 l 1,15,-1
 74 32 l 2,16,17
 100 32 100 32 108 59 c 2,18,-1
 269 653 l 2,19,20
 278 680 278 680 250 680 c 2,21,-1
 174 680 l 1,22,-1
 182 712 l 1,23,-1
 530 712 l 2,24,25
 576 712 576 712 615 696 c 128,-1,26
 654 680 654 680 680 644 c 128,-1,27
 706 608 706 608 706 559 c 0,28,29
 706 524 706 524 691 495 c 128,-1,30
 676 466 676 466 653 446 c 128,-1,31
 630 426 630 426 599.5 411 c 128,-1,32
 569 396 569 396 541 388 c 128,-1,33
 513 380 513 380 485 376 c 1,34,-1
 484 374 l 1,35,36
 550 371 550 371 597 328.5 c 128,-1,37
 644 286 644 286 644 220 c 0,38,39
 644 180 644 180 627 144 c 128,-1,40
 610 108 610 108 581 82.5 c 128,-1,41
 552 57 552 57 515.5 38 c 128,-1,42
 479 19 479 19 440 9.5 c 128,-1,43
 401 0 401 0 364 0 c 2,44,-1
 -10 0 l 1,14,-1
290 394 m 1,45,-1
 424 394 l 2,46,47
 466 394 466 394 500 405 c 128,-1,48
 534 416 534 416 554 433.5 c 128,-1,49
 574 451 574 451 587 474.5 c 128,-1,50
 600 498 600 498 605 519 c 128,-1,51
 610 540 610 540 610 561 c 0,52,53
 610 680 610 680 499 680 c 2,54,-1
 394 680 l 2,55,56
 367 680 367 680 360 653 c 2,57,-1
 290 394 l 1,45,-1
EndSplineSet
EndChar

StartChar: C
Encoding: 67 67 35
Width: 670
VWidth: 1039
Flags: W
TeX: 67 0
HStem: -18 32<251.858 393.178> 698 32<399.668 531.277>
VStem: 92 96<125.916 374.277> 613 23<416 449.469> 677 23<688.531 722>
AnchorPoint: "Bottom" 306 0 basechar 0
AnchorPoint: "Top" 488 762 basechar 0
LayerCount: 3
Fore
SplineSet
92 252 m 0
 92 486 284 730 474 730 c 0
 530 730 567 702 585 684 c 2
 603 666 l 2
 615 654 621 649 632 649 c 0
 661 649 674 702 677 722 c 9
 700 722 l 25
 636 416 l 25
 613 416 l 17
 614 436 614 456 614 479 c 0
 614 507 608 596 571 647 c 0
 544 683 510 698 470 698 c 0
 395 698 332 660 266 536 c 0
 225 459 188 330 188 196 c 0
 188 30 262 14 321 14 c 0
 438 14 540 126 581 242 c 1
 612 231 l 1
 570 106 472 -18 304 -18 c 0
 208 -18 92 60 92 252 c 0
EndSplineSet
Layer: 2
SplineSet
92 252 m 0,0,1
 92 320 92 320 113 391 c 128,-1,2
 134 462 134 462 172 522 c 128,-1,3
 210 582 210 582 257.5 629 c 128,-1,4
 305 676 305 676 361.5 703 c 128,-1,5
 418 730 418 730 474 730 c 0,6,7
 539 730 539 730 585 684 c 2,8,-1
 603 666 l 2,9,10
 613 656 613 656 618.5 652.5 c 128,-1,11
 624 649 624 649 632 649 c 0,12,13
 645 649 645 649 655.5 664 c 128,-1,14
 666 679 666 679 670.5 693.5 c 128,-1,15
 675 708 675 708 677 722 c 1,16,-1
 700 722 l 1,17,-1
 636 416 l 1,18,-1
 613 416 l 1,19,20
 614 436 614 436 614 479 c 0,21,22
 614 514 614 514 604.5 564 c 128,-1,23
 595 614 595 614 571 647 c 0,24,25
 533 698 533 698 470 698 c 0,26,27
 410 698 410 698 362 661.5 c 128,-1,28
 314 625 314 625 266 536 c 0,29,30
 233 474 233 474 210.5 382.5 c 128,-1,31
 188 291 188 291 188 196 c 0,32,33
 188 148 188 148 196.5 113.5 c 128,-1,34
 205 79 205 79 217.5 60.5 c 128,-1,35
 230 42 230 42 249 31 c 128,-1,36
 268 20 268 20 284 17 c 128,-1,37
 300 14 300 14 321 14 c 0,38,39
 377 14 377 14 430.5 47 c 128,-1,40
 484 80 484 80 522 131 c 128,-1,41
 560 182 560 182 581 242 c 1,42,-1
 612 231 l 1,43,44
 599 192 599 192 580.5 157 c 128,-1,45
 562 122 562 122 534 89.5 c 128,-1,46
 506 57 506 57 473 33.5 c 128,-1,47
 440 10 440 10 396.5 -4 c 128,-1,48
 353 -18 353 -18 304 -18 c 0,49,50
 274 -18 274 -18 245 -8.5 c 128,-1,51
 216 1 216 1 188 22 c 128,-1,52
 160 43 160 43 139 73.5 c 128,-1,53
 118 104 118 104 105 150 c 128,-1,54
 92 196 92 196 92 252 c 0,0,1
EndSplineSet
EndChar

StartChar: D
Encoding: 68 68 36
Width: 750
VWidth: 1039
Flags: W
TeX: 68 0
HStem: 0 32<-2 103.609 197.755 420.672> 680 32<183 270.346 364.517 553.219>
VStem: 630 96<317.502 574.826>
DStem2: 91.9701 0 182.97 0 0.262189 0.965016<63.0346 698.555>
AnchorPoint: "Bottom" 226 0 basechar 0
AnchorPoint: "Top" 458 762 basechar 0
LayerCount: 3
Fore
SplineSet
-10 0 m 25
 -2 32 l 25
 74 32 l 18
 93 32 103 41 108 59 c 10
 269 653 l 18
 275 672 268 680 250 680 c 10
 174 680 l 25
 183 712 l 25
 504 712 l 18
 647 712 726 603 726 453 c 0
 726 349 686 234 616 148 c 0
 550 66 457 0 334 0 c 10
 -10 0 l 25
199 59 m 18
 194 41 200 32 218 32 c 10
 344 32 l 18
 433 32 504 86 557 180 c 0
 600 256 630 375 630 500 c 0
 630 594 596 680 482 680 c 10
 394 680 l 18
 376 680 365 672 360 653 c 10
 199 59 l 18
EndSplineSet
Layer: 2
SplineSet
-10 0 m 1,0,-1
 -2 32 l 1,1,-1
 74 32 l 2,2,3
 100 32 100 32 108 59 c 2,4,-1
 269 653 l 2,5,6
 278 680 278 680 250 680 c 2,7,-1
 174 680 l 1,8,-1
 183 712 l 1,9,-1
 504 712 l 2,10,11
 608 712 608 712 667 640 c 128,-1,12
 726 568 726 568 726 453 c 0,13,14
 726 374 726 374 697 293 c 128,-1,15
 668 212 668 212 616 148 c 0,16,17
 497 0 497 0 334 0 c 2,18,-1
 -10 0 l 1,0,-1
199 59 m 2,19,20
 192 32 192 32 218 32 c 2,21,-1
 344 32 l 2,22,23
 474 32 474 32 557 180 c 0,24,25
 590 238 590 238 610 323 c 128,-1,26
 630 408 630 408 630 500 c 0,27,28
 630 538 630 538 623 568.5 c 128,-1,29
 616 599 616 599 599 625 c 128,-1,30
 582 651 582 651 552.5 665.5 c 128,-1,31
 523 680 523 680 482 680 c 2,32,-1
 394 680 l 2,33,34
 367 680 367 680 360 653 c 2,35,-1
 199 59 l 2,19,20
EndSplineSet
EndChar

StartChar: E
Encoding: 69 69 37
Width: 700
VWidth: 1039
Flags: W
TeX: 69 0
HStem: 0 32<-2 103.609 197.755 472.021> 350 36<288 421.409> 680 32<182 270.346 364.517 621.176>
VStem: 429 25<200 226.091> 517 25<501.909 528> 634 24<245.667 268> 663 25<484 518.696>
DStem2: 91.9701 0 182.97 0 0.262189 0.965016<63.0346 386.531 423.893 698.555>
AnchorPoint: "Bottom" 312 0 basechar 0
AnchorPoint: "Top" 478 762 basechar 0
LayerCount: 3
Fore
SplineSet
-10 0 m 1
 -2 32 l 1
 74 32 l 2
 93 32 103 41 108 59 c 2
 269 653 l 2
 275 672 268 680 250 680 c 2
 174 680 l 1
 182 712 l 1
 734 712 l 1
 688 484 l 1
 663 484 l 1
 663 484 666 505 666 532 c 0
 666 650 624 680 558 680 c 2
 394 680 l 2
 376 680 365 672 360 653 c 2
 288 386 l 1
 396 386 l 2
 480 386 502 470 517 528 c 1
 542 528 l 1
 454 200 l 1
 429 200 l 1
 434 222 439 250 439 275 c 0
 439 318 426 350 379 350 c 2
 278 350 l 1
 199 59 l 2
 194 41 200 32 218 32 c 2
 404 32 l 2
 433 32 487 45 528 84 c 0
 591 146 634 268 634 268 c 1
 658 268 l 1
 574 0 l 1
 -10 0 l 1
EndSplineSet
Layer: 2
SplineSet
-10 0 m 1,0,-1
 -2 32 l 1,1,-1
 74 32 l 2,2,3
 100 32 100 32 108 59 c 2,4,-1
 269 653 l 2,5,6
 278 680 278 680 250 680 c 2,7,-1
 174 680 l 1,8,-1
 182 712 l 1,9,-1
 734 712 l 1,10,-1
 688 484 l 1,11,-1
 663 484 l 1,12,13
 666 505 666 505 666 532 c 0,14,15
 666 575 666 575 659 604.5 c 128,-1,16
 652 634 652 634 637 650 c 128,-1,17
 622 666 622 666 603 673 c 128,-1,18
 584 680 584 680 558 680 c 2,19,-1
 394 680 l 2,20,21
 367 680 367 680 360 653 c 2,22,-1
 288 386 l 1,23,-1
 396 386 l 2,24,25
 414 386 414 386 429 391 c 128,-1,26
 444 396 444 396 454 403.5 c 128,-1,27
 464 411 464 411 474 424 c 128,-1,28
 484 437 484 437 489.5 447.5 c 128,-1,29
 495 458 495 458 501 475 c 128,-1,30
 507 492 507 492 509.5 501.5 c 128,-1,31
 512 511 512 511 517 528 c 1,32,-1
 542 528 l 1,33,-1
 454 200 l 1,34,-1
 429 200 l 1,35,36
 439 244 439 244 439 275 c 0,37,38
 439 310 439 310 425.5 330 c 128,-1,39
 412 350 412 350 379 350 c 2,40,-1
 278 350 l 1,41,-1
 199 59 l 2,42,43
 192 32 192 32 218 32 c 2,44,-1
 404 32 l 2,45,46
 430 32 430 32 465 45 c 128,-1,47
 500 58 500 58 528 84 c 0,48,49
 556 112 556 112 582.5 158 c 128,-1,50
 609 204 609 204 622 236 c 2,51,-1
 634 268 l 1,52,-1
 658 268 l 1,53,-1
 574 0 l 1,54,-1
 -10 0 l 1,0,-1
EndSplineSet
EndChar

StartChar: F
Encoding: 70 70 38
Width: 680
VWidth: 1039
Flags: W
TeX: 70 0
HStem: 0 32<-2 103.609 197.755 322> 350 36<288 420.409> 680 32<182 270.346 364.517 621.176>
VStem: 428 25<200 226.091> 516 25<501.909 528> 663 25<484 518.696>
DStem2: 91.9701 0 182.97 0 0.262189 0.965016<63.0346 386.531 423.893 698.555>
AnchorPoint: "Top" 478 762 basechar 0
AnchorPoint: "Bottom" 180 0 basechar 0
LayerCount: 3
Fore
SplineSet
-10 0 m 1
 -2 32 l 1
 74 32 l 2
 93 32 103 41 108 59 c 2
 269 653 l 2
 275 672 268 680 250 680 c 2
 174 680 l 1
 182 712 l 1
 734 712 l 1
 688 484 l 1
 663 484 l 1
 663 484 666 505 666 532 c 0
 666 650 624 680 558 680 c 2
 394 680 l 2
 376 680 365 672 360 653 c 2
 288 386 l 1
 395 386 l 2
 479 386 501 470 516 528 c 1
 541 528 l 1
 453 200 l 1
 428 200 l 1
 433 222 438 250 438 275 c 0
 438 318 425 350 378 350 c 2
 278 350 l 1
 199 59 l 2
 194 41 200 32 218 32 c 10
 330 32 l 25
 322 0 l 25
 -10 0 l 1
EndSplineSet
Layer: 2
SplineSet
-10 0 m 1,0,-1
 -2 32 l 1,1,-1
 74 32 l 2,2,3
 100 32 100 32 108 59 c 2,4,-1
 269 653 l 2,5,6
 278 680 278 680 250 680 c 2,7,-1
 174 680 l 1,8,-1
 182 712 l 1,9,-1
 734 712 l 1,10,-1
 688 484 l 1,11,-1
 663 484 l 1,12,13
 666 505 666 505 666 532 c 0,14,15
 666 575 666 575 659 604.5 c 128,-1,16
 652 634 652 634 637 650 c 128,-1,17
 622 666 622 666 603 673 c 128,-1,18
 584 680 584 680 558 680 c 2,19,-1
 394 680 l 2,20,21
 367 680 367 680 360 653 c 2,22,-1
 288 386 l 1,23,-1
 395 386 l 2,24,25
 412 386 412 386 427 391 c 128,-1,26
 442 396 442 396 453 403.5 c 128,-1,27
 464 411 464 411 473.5 424 c 128,-1,28
 483 437 483 437 488.5 447.5 c 128,-1,29
 494 458 494 458 500 475 c 128,-1,30
 506 492 506 492 509 501.5 c 128,-1,31
 512 511 512 511 516 528 c 1,32,-1
 541 528 l 1,33,-1
 453 200 l 1,34,-1
 428 200 l 1,35,36
 438 244 438 244 438 275 c 0,37,38
 438 310 438 310 424.5 330 c 128,-1,39
 411 350 411 350 378 350 c 2,40,-1
 278 350 l 1,41,-1
 199 59 l 2,42,43
 192 32 192 32 218 32 c 2,44,-1
 330 32 l 1,45,-1
 322 0 l 1,46,-1
 -10 0 l 1,0,-1
EndSplineSet
EndChar

StartChar: G
Encoding: 71 71 39
Width: 740
VWidth: 1039
Flags: W
TeX: 71 0
HStem: -18 32<249.204 379.981> 304 32<420 532.996 627.53 722> 698 32<399.497 545.148>
VStem: 92 96<127.02 374.277> 537 25<-14 19.3934> 637 23<416 449.469> 701 23<688.531 722>
DStem2: 521 224 623 277 0.214963 0.976622<-113.813 64.9453>
AnchorPoint: "Top" 488 762 basechar 0
AnchorPoint: "Bottom" 312 0 basechar 0
LayerCount: 3
Fore
SplineSet
92 252 m 0
 92 486 282 730 474 730 c 0
 534 730 580 706 614 676 c 0
 634 658 644 649 657 649 c 0
 687 649 697 700 701 722 c 9
 724 722 l 25
 660 416 l 25
 637 416 l 17
 638 435 638 456 638 479 c 0
 638 507 637 598 595 647 c 0
 562 685 510 698 470 698 c 0
 395 698 333 662 266 536 c 0
 225 459 188 330 188 196 c 0
 188 26 264 14 314 14 c 0
 420 14 502 133 521 224 c 10
 532 277 l 18
 533 281 533 285 533 288 c 0
 533 298 527 304 512 304 c 10
 412 304 l 25
 420 336 l 25
 730 336 l 25
 722 304 l 25
 658 304 l 18
 639 304 628 295 623 277 c 10
 562 -14 l 25
 537 -14 l 17
 537 56 l 2
 537 64 537 97 522 97 c 0
 510 97 498 85 485 70 c 0
 437 19 376 -18 304 -18 c 0
 188 -18 92 84 92 252 c 0
EndSplineSet
Layer: 2
SplineSet
92 252 m 0,0,1
 92 310 92 310 107 369 c 128,-1,2
 122 428 122 428 148 480 c 128,-1,3
 174 532 174 532 211 578.5 c 128,-1,4
 248 625 248 625 289.5 658.5 c 128,-1,5
 331 692 331 692 379 711 c 128,-1,6
 427 730 427 730 474 730 c 0,7,8
 553 730 553 730 614 676 c 0,9,10
 632 660 632 660 640 654.5 c 128,-1,11
 648 649 648 649 657 649 c 0,12,13
 688 649 688 649 701 722 c 1,14,-1
 724 722 l 1,15,-1
 660 416 l 1,16,-1
 637 416 l 1,17,18
 638 435 638 435 638 479 c 0,19,20
 638 597 638 597 595 647 c 0,21,22
 572 674 572 674 538 686 c 128,-1,23
 504 698 504 698 470 698 c 0,24,25
 410 698 410 698 362 662 c 128,-1,26
 314 626 314 626 266 536 c 0,27,28
 233 474 233 474 210.5 382.5 c 128,-1,29
 188 291 188 291 188 196 c 0,30,31
 188 148 188 148 197 112 c 128,-1,32
 206 76 206 76 218 58 c 128,-1,33
 230 40 230 40 248.5 29.5 c 128,-1,34
 267 19 267 19 281.5 16.5 c 128,-1,35
 296 14 296 14 314 14 c 0,36,37
 352 14 352 14 388 34 c 128,-1,38
 424 54 424 54 450.5 85 c 128,-1,39
 477 116 477 116 495.5 152.5 c 128,-1,40
 514 189 514 189 521 224 c 2,41,-1
 532 277 l 2,42,43
 533 281 533 281 533 288 c 0,44,45
 533 304 533 304 512 304 c 2,46,-1
 412 304 l 1,47,-1
 420 336 l 1,48,-1
 730 336 l 1,49,-1
 722 304 l 1,50,-1
 658 304 l 2,51,52
 630 304 630 304 623 277 c 2,53,-1
 562 -14 l 1,54,-1
 537 -14 l 1,55,-1
 537 56 l 2,56,57
 537 97 537 97 522 97 c 0,58,59
 508 97 508 97 485 70 c 0,60,61
 402 -18 402 -18 304 -18 c 0,62,63
 214 -18 214 -18 153 56 c 128,-1,64
 92 130 92 130 92 252 c 0,0,1
EndSplineSet
AlternateSubs2: "'aalt' Access All Alternates in Latin lookup 0 subtable" uniA77D
Substitution2: "'ss02' Insular Forms for Old English-1" uniA77D
Substitution2: "'salt' Stylistic Alternatives-1" uniA77D
EndChar

StartChar: H
Encoding: 72 72 40
Width: 800
VWidth: 1039
Flags: W
TeX: 72 0
HStem: 0 32<-2 103.609 197.755 286 398 503.483 597.755 686> 350 36<287 587> 680 32<182 270.245 364.391 470 582 670.276 764.391 870>
DStem2: 91.9701 0 182.97 0 0.262189 0.965016<63.0346 386.531 423.631 698.535> 491.97 0 582.97 0 0.262189 0.965016<63.0346 362.672 399.772 698.587>
AnchorPoint: "Top" 552 762 basechar 0
AnchorPoint: "Bottom" 346 0 basechar 0
LayerCount: 3
Fore
SplineSet
-10 0 m 1
 -2 32 l 1
 74 32 l 2
 93 32 103 41 108 59 c 2
 269 653 l 2
 274 671 268 680 250 680 c 2
 174 680 l 1
 182 712 l 1
 478 712 l 1
 470 680 l 1
 394 680 l 2
 375 680 365 671 360 653 c 2
 287 386 l 1
 596 386 l 1
 669 653 l 2
 674 671 669 680 650 680 c 2
 574 680 l 1
 582 712 l 1
 878 712 l 1
 870 680 l 1
 794 680 l 2
 775 680 765 671 760 653 c 2
 599 59 l 2
 594 41 600 32 618 32 c 2
 694 32 l 1
 686 0 l 1
 390 0 l 1
 398 32 l 1
 474 32 l 2
 492 32 503 41 508 59 c 2
 587 350 l 1
 278 350 l 1
 199 59 l 2
 194 41 200 32 218 32 c 2
 294 32 l 1
 286 0 l 1
 -10 0 l 1
EndSplineSet
Layer: 2
SplineSet
-10 0 m 1,0,-1
 -2 32 l 1,1,-1
 74 32 l 2,2,3
 100 32 100 32 108 59 c 2,4,-1
 269 653 l 2,5,6
 276 680 276 680 250 680 c 2,7,-1
 174 680 l 1,8,-1
 182 712 l 1,9,-1
 478 712 l 1,10,-1
 470 680 l 1,11,-1
 394 680 l 2,12,13
 368 680 368 680 360 653 c 2,14,-1
 287 386 l 1,15,-1
 596 386 l 1,16,-1
 669 653 l 2,17,18
 676 680 676 680 650 680 c 2,19,-1
 574 680 l 1,20,-1
 582 712 l 1,21,-1
 878 712 l 1,22,-1
 870 680 l 1,23,-1
 794 680 l 2,24,25
 768 680 768 680 760 653 c 2,26,-1
 599 59 l 2,27,28
 592 32 592 32 618 32 c 2,29,-1
 694 32 l 1,30,-1
 686 0 l 1,31,-1
 390 0 l 1,32,-1
 398 32 l 1,33,-1
 474 32 l 2,34,35
 500 32 500 32 508 59 c 2,36,-1
 587 350 l 1,37,-1
 278 350 l 1,38,-1
 199 59 l 2,39,40
 192 32 192 32 218 32 c 2,41,-1
 294 32 l 1,42,-1
 286 0 l 1,43,-1
 -10 0 l 1,0,-1
EndSplineSet
EndChar

StartChar: I
Encoding: 73 73 41
Width: 400
VWidth: 1039
Flags: W
TeX: 73 0
HStem: 0 32<-2 103.609 197.755 286> 680 32<182 270.346 364.517 470>
DStem2: 91.9701 0 182.97 0 0.262189 0.965016<63.0346 698.555>
AnchorPoint: "Top" 346 762 basechar 0
AnchorPoint: "Bottom" 145 0 basechar 0
LayerCount: 3
Fore
SplineSet
-10 0 m 25
 -2 32 l 25
 74 32 l 18
 93 32 103 41 108 59 c 10
 269 653 l 18
 275 672 268 680 250 680 c 10
 174 680 l 25
 182 712 l 25
 478 712 l 25
 470 680 l 25
 394 680 l 18
 376 680 365 672 360 653 c 10
 199 59 l 18
 194 41 200 32 218 32 c 10
 294 32 l 25
 286 0 l 25
 -10 0 l 25
EndSplineSet
Layer: 2
SplineSet
-10 0 m 1,0,-1
 -2 32 l 1,1,-1
 74 32 l 2,2,3
 100 32 100 32 108 59 c 2,4,-1
 269 653 l 2,5,6
 278 680 278 680 250 680 c 2,7,-1
 174 680 l 1,8,-1
 182 712 l 1,9,-1
 478 712 l 1,10,-1
 470 680 l 1,11,-1
 394 680 l 2,12,13
 367 680 367 680 360 653 c 2,14,-1
 199 59 l 2,15,16
 192 32 192 32 218 32 c 2,17,-1
 294 32 l 1,18,-1
 286 0 l 1,19,-1
 -10 0 l 1,0,-1
EndSplineSet
EndChar

StartChar: J
Encoding: 74 74 42
Width: 540
VWidth: 1039
Flags: W
TeX: 74 0
HStem: -18 32<97.6164 212.959> 91 125<81.7431 150.515> 680 32<308 432.995 526.517 632>
VStem: 14 66<35.3456 142.5>
DStem2: 249.344 -18 339.846 -18 0.262189 0.965016<125.024 707.078>
AnchorPoint: "Top" 488 762 basechar 0
AnchorPoint: "Bottom" 172 0 basechar 0
LayerCount: 3
Fore
SplineSet
14 110 m 0
 14 175 55 216 104 216 c 0
 139 216 166 193 166 159 c 0
 166 121 144 91 100 91 c 0
 87 91 80 80 80 68 c 0
 80 35 105 14 156 14 c 0
 225 14 275 74 292 139 c 10
 431 653 l 18
 432 657 433 661 433 665 c 0
 433 675 426 680 412 680 c 10
 300 680 l 25
 308 712 l 25
 640 712 l 25
 632 680 l 25
 556 680 l 18
 538 680 527 672 522 653 c 10
 395 185 l 18
 360 56 252 -18 148 -18 c 0
 63 -18 14 38 14 110 c 0
EndSplineSet
Layer: 2
SplineSet
14 110 m 0,0,1
 14 158 14 158 40 187 c 128,-1,2
 66 216 66 216 104 216 c 0,3,4
 130 216 130 216 148 200 c 128,-1,5
 166 184 166 184 166 159 c 0,6,7
 166 129 166 129 149 110 c 128,-1,8
 132 91 132 91 100 91 c 0,9,10
 90 91 90 91 85 84.5 c 128,-1,11
 80 78 80 78 80 68 c 0,12,13
 80 42 80 42 99 28 c 128,-1,14
 118 14 118 14 156 14 c 0,15,16
 205 14 205 14 241.5 50.5 c 128,-1,17
 278 87 278 87 292 139 c 2,18,-1
 431 653 l 2,19,20
 433 661 433 661 433 665 c 0,21,22
 433 680 433 680 412 680 c 2,23,-1
 300 680 l 1,24,-1
 308 712 l 1,25,-1
 640 712 l 1,26,-1
 632 680 l 1,27,-1
 556 680 l 2,28,29
 529 680 529 680 522 653 c 2,30,-1
 395 185 l 2,31,32
 370 92 370 92 300 37 c 128,-1,33
 230 -18 230 -18 148 -18 c 0,34,35
 86 -18 86 -18 50 18 c 128,-1,36
 14 54 14 54 14 110 c 0,0,1
EndSplineSet
EndChar

StartChar: K
Encoding: 75 75 43
Width: 756
VWidth: 1039
Flags: W
TeX: 75 0
HStem: 0 32<-2 103.609 197.755 286 390 473.811 586.647 674> 680 32<182 270.346 364.517 470 570 636.786 761.982 836>
DStem2: 91.9701 0 182.97 0 0.262189 0.965016<63.0346 342.151 392.845 698.555> 280 356 267 307 0.802718 0.596359<0 94.7453 186.143 457.248> 448 442 375 387 0.316228 -0.948683<29.093 387.385>
AnchorPoint: "Top" 532 762 basechar 0
AnchorPoint: "Bottom" 336 0 basechar 0
LayerCount: 3
Fore
SplineSet
-10 0 m 1
 -2 32 l 1
 74 32 l 2
 93 32 103 41 108 59 c 2
 269 653 l 2
 275 672 268 680 250 680 c 2
 174 680 l 1
 182 712 l 1
 478 712 l 1
 470 680 l 1
 394 680 l 2
 376 680 365 672 360 653 c 2
 280 356 l 1
 578 580 l 2
 615 608 640 628 640 654 c 0
 640 674 612 680 586 680 c 2
 562 680 l 1
 570 712 l 1
 844 712 l 1
 836 680 l 1
 800 680 759 672 691 622 c 2
 448 442 l 1
 570 76 l 2
 582 44 596 32 640 32 c 2
 682 32 l 1
 674 0 l 1
 382 0 l 1
 390 32 l 1
 442 32 l 2
 463 32 485 43 474 78 c 2
 375 387 l 1
 267 307 l 1
 199 59 l 2
 194 41 200 32 218 32 c 2
 294 32 l 1
 286 0 l 1
 -10 0 l 1
EndSplineSet
Layer: 2
SplineSet
-10 0 m 1,0,-1
 -2 32 l 1,1,-1
 74 32 l 2,2,3
 100 32 100 32 108 59 c 2,4,-1
 269 653 l 2,5,6
 278 680 278 680 250 680 c 2,7,-1
 174 680 l 1,8,-1
 182 712 l 1,9,-1
 478 712 l 1,10,-1
 470 680 l 1,11,-1
 394 680 l 2,12,13
 367 680 367 680 360 653 c 2,14,-1
 280 356 l 1,15,-1
 578 580 l 2,16,17
 611 605 611 605 625.5 620.5 c 128,-1,18
 640 636 640 636 640 654 c 0,19,20
 640 680 640 680 586 680 c 2,21,-1
 562 680 l 1,22,-1
 570 712 l 1,23,-1
 844 712 l 1,24,-1
 836 680 l 1,25,26
 804 680 804 680 771 668 c 128,-1,27
 738 656 738 656 691 622 c 2,28,-1
 448 442 l 1,29,-1
 570 76 l 2,30,31
 580 51 580 51 594 41.5 c 128,-1,32
 608 32 608 32 640 32 c 2,33,-1
 682 32 l 1,34,-1
 674 0 l 1,35,-1
 382 0 l 1,36,-1
 390 32 l 1,37,-1
 442 32 l 2,38,39
 460 32 460 32 471 43 c 128,-1,40
 482 54 482 54 474 78 c 2,41,-1
 375 387 l 1,42,-1
 267 307 l 1,43,-1
 199 59 l 2,44,45
 192 32 192 32 218 32 c 2,46,-1
 294 32 l 1,47,-1
 286 0 l 1,48,-1
 -10 0 l 1,0,-1
EndSplineSet
EndChar

StartChar: L
Encoding: 76 76 44
Width: 680
VWidth: 1039
Flags: W
TeX: 76 0
HStem: 0 32<-2 103.609 197.755 472.021> 680 32<183 270.346 364.517 470>
VStem: 634 24<245.667 268>
DStem2: 91.9701 0 182.97 0 0.262189 0.965016<63.0346 698.555>
AnchorPoint: "Top" 344 762 basechar 0
AnchorPoint: "Bottom" 312 0 basechar 0
LayerCount: 3
Fore
SplineSet
-10 0 m 1
 -2 32 l 1
 74 32 l 2
 93 32 103 41 108 59 c 2
 269 653 l 2
 275 672 268 680 250 680 c 2
 174 680 l 1
 183 712 l 1
 478 712 l 25
 470 680 l 25
 394 680 l 18
 376 680 365 672 360 653 c 2
 199 59 l 2
 194 41 200 32 218 32 c 2
 404 32 l 2
 433 32 487 45 528 84 c 0
 591 146 634 268 634 268 c 1
 658 268 l 1
 574 0 l 1
 -10 0 l 1
EndSplineSet
Layer: 2
SplineSet
-10 0 m 1,0,-1
 -2 32 l 1,1,-1
 74 32 l 2,2,3
 100 32 100 32 108 59 c 2,4,-1
 269 653 l 2,5,6
 278 680 278 680 250 680 c 2,7,-1
 174 680 l 1,8,-1
 183 712 l 1,9,-1
 478 712 l 1,10,-1
 470 680 l 1,11,-1
 394 680 l 2,12,13
 367 680 367 680 360 653 c 2,14,-1
 199 59 l 2,15,16
 192 32 192 32 218 32 c 2,17,-1
 404 32 l 2,18,19
 430 32 430 32 465 45 c 128,-1,20
 500 58 500 58 528 84 c 0,21,22
 556 112 556 112 582.5 158 c 128,-1,23
 609 204 609 204 622 236 c 2,24,-1
 634 268 l 1,25,-1
 658 268 l 1,26,-1
 574 0 l 1,27,-1
 -10 0 l 1,0,-1
EndSplineSet
EndChar

StartChar: M
Encoding: 77 77 45
Width: 894
VWidth: 1039
Flags: W
TeX: 77 0
HStem: -12 21G<348 384.04> 0 32<-2 89.6891 180.4 260 492 597.609 691.79 782> 680 32<182 281.346 328 348 755 770 858.391 964>
VStem: 348 88<157 680>
DStem2: 99.5062 -12 138.506 -12 0.262189 0.965016<111.713 711.044> 436 157 373 -12 0.483278 0.875467<0 612.035> 582.71 -12 673.71 -12 0.262189 0.965016<75.6736 716.441>
AnchorPoint: "Top" 586 762 basechar 0
AnchorPoint: "Bottom" 386 0 basechar 0
LayerCount: 3
Fore
SplineSet
-10 0 m 25x70
 -2 32 l 25
 46 32 l 18
 92 32 123 76 137 126 c 10
 280 653 l 18
 286 672 279 680 261 680 c 10
 174 680 l 25
 182 712 l 25
 436 712 l 25
 436 157 l 25
 740 712 l 25
 972 712 l 25
 964 680 l 25
 888 680 l 18
 869 680 859 672 854 653 c 10
 693 59 l 18
 688 41 695 32 714 32 c 10
 790 32 l 25
 782 0 l 25
 484 0 l 25
 492 32 l 25
 568 32 l 18x70
 587 32 597 41 602 59 c 10
 770 680 l 17
 755 680 l 1
 373 -12 l 9
 348 -12 l 17xb0
 348 680 l 1
 328 680 l 9
 176 126 l 18
 172 111 170 97 170 84 c 0
 170 54 183 32 220 32 c 10
 268 32 l 25
 260 0 l 25
 -10 0 l 25x70
EndSplineSet
Layer: 2
SplineSet
-10 0 m 1,0,-1
 -2 32 l 1,1,-1
 46 32 l 2,2,3
 78 32 78 32 102 58.5 c 128,-1,4
 126 85 126 85 137 126 c 2,5,-1
 280 653 l 2,6,7
 288 680 288 680 261 680 c 2,8,-1
 174 680 l 1,9,-1
 182 712 l 1,10,-1
 436 712 l 1,11,-1
 436 157 l 1,12,-1
 740 712 l 1,13,-1
 972 712 l 1,14,-1
 964 680 l 1,15,-1
 888 680 l 2,16,17
 861 680 861 680 854 653 c 2,18,-1
 693 59 l 2,19,20
 686 32 686 32 714 32 c 2,21,-1
 790 32 l 1,22,-1
 782 0 l 1,23,-1
 484 0 l 1,24,-1
 492 32 l 1,25,-1
 568 32 l 2,26,27
 594 32 594 32 602 59 c 2,28,-1
 770 680 l 1,29,-1
 755 680 l 1,30,-1
 373 -12 l 1,31,-1
 348 -12 l 1,32,-1
 348 680 l 1,33,-1
 328 680 l 1,34,-1
 176 126 l 2,35,36
 170 104 170 104 170 84 c 0,37,38
 170 32 170 32 220 32 c 2,39,-1
 268 32 l 1,40,-1
 260 0 l 1,41,-1
 -10 0 l 1,0,-1
EndSplineSet
EndChar

StartChar: N
Encoding: 78 78 46
Width: 790
VWidth: 1039
Flags: W
TeX: 78 0
HStem: -18 21G<525.882 578.43> 0 32<-2 89.4949 179.352 260> 680 32<182 281.115 614 694.915 785.554 876>
DStem2: 97.8761 -18 136.876 -18 0.262189 0.965016<116.967 654.105> 364 712 312 603 0.335279 -0.942119<85.2564 619.329> 533.061 -18 573 -18 0.262189 0.965016<152.329 668.902>
AnchorPoint: "Bottom" 376 0 basechar 0
AnchorPoint: "Top" 540 762 basechar 0
LayerCount: 3
Fore
SplineSet
-10 0 m 25x60
 -2 32 l 25
 46 32 l 18x60
 91 32 124 76 137 126 c 10
 280 653 l 18
 285 672 279 680 261 680 c 10
 174 680 l 25
 182 712 l 25
 364 712 l 25
 573 129 l 25
 698 586 l 18
 703 603 705 617 705 629 c 0
 705 664 687 680 654 680 c 10
 606 680 l 25
 614 712 l 25
 884 712 l 25
 876 680 l 25
 828 680 l 18
 791 680 753 646 737 586 c 10
 573 -18 l 25
 533 -18 l 17xa0
 312 603 l 1
 307 603 l 9
 176 126 l 18
 172 111 170 96 170 83 c 0
 170 53 182 32 220 32 c 10
 268 32 l 25
 260 0 l 25
 -10 0 l 25x60
EndSplineSet
Layer: 2
SplineSet
-10 0 m 1,0,-1
 -2 32 l 1,1,-1
 46 32 l 2,2,3
 78 32 78 32 102 59 c 128,-1,4
 126 86 126 86 137 126 c 2,5,-1
 280 653 l 2,6,7
 284 667 284 667 279 673.5 c 128,-1,8
 274 680 274 680 261 680 c 2,9,-1
 174 680 l 1,10,-1
 182 712 l 1,11,-1
 364 712 l 1,12,-1
 573 129 l 1,13,-1
 698 586 l 2,14,15
 705 610 705 610 705 629 c 0,16,17
 705 680 705 680 654 680 c 2,18,-1
 606 680 l 1,19,-1
 614 712 l 1,20,-1
 884 712 l 1,21,-1
 876 680 l 1,22,-1
 828 680 l 2,23,24
 800 680 800 680 774 655 c 128,-1,25
 748 630 748 630 737 586 c 2,26,-1
 573 -18 l 1,27,-1
 533 -18 l 1,28,-1
 312 603 l 1,29,-1
 307 603 l 1,30,-1
 176 126 l 2,31,32
 170 104 170 104 170 83 c 0,33,34
 170 32 170 32 220 32 c 2,35,-1
 268 32 l 1,36,-1
 260 0 l 1,37,-1
 -10 0 l 1,0,-1
EndSplineSet
EndChar

StartChar: O
Encoding: 79 79 47
Width: 710
VWidth: 1039
Flags: W
TeX: 79 0
HStem: -18 32<251.417 382.543> 698 32<395.457 526.583>
VStem: 92 96<127.737 384.303> 590 96<326.776 583.475>
AnchorPoint: "Bottom" 310 0 basechar 0
AnchorPoint: "Top" 494 762 basechar 0
LayerCount: 3
Fore
SplineSet
188 192 m 0
 188 74 234 14 312 14 c 0
 440 14 512 153 546 248 c 0
 588 366 590 485 590 520 c 0
 590 638 544 698 466 698 c 0
 338 698 266 559 232 464 c 0
 190 346 188 227 188 192 c 0
92 248 m 0
 92 518 290 730 474 730 c 0
 606 730 686 606 686 462 c 0
 686 192 488 -18 304 -18 c 0
 172 -18 92 104 92 248 c 0
EndSplineSet
Layer: 2
SplineSet
188 192 m 0,0,1
 188 104 188 104 220 59 c 128,-1,2
 252 14 252 14 312 14 c 0,3,4
 348 14 348 14 382 29.5 c 128,-1,5
 416 45 416 45 440 68.5 c 128,-1,6
 464 92 464 92 486 125 c 128,-1,7
 508 158 508 158 521 187 c 128,-1,8
 534 216 534 216 546 248 c 0,9,10
 590 372 590 372 590 520 c 0,11,12
 590 608 590 608 558 653 c 128,-1,13
 526 698 526 698 466 698 c 0,14,15
 430 698 430 698 396 682.5 c 128,-1,16
 362 667 362 667 338 643.5 c 128,-1,17
 314 620 314 620 292 587 c 128,-1,18
 270 554 270 554 257 525 c 128,-1,19
 244 496 244 496 232 464 c 0,20,21
 188 340 188 340 188 192 c 0,0,1
92 248 m 0,22,23
 92 326 92 326 114 401 c 128,-1,24
 136 476 136 476 174 534.5 c 128,-1,25
 212 593 212 593 260 637.5 c 128,-1,26
 308 682 308 682 364 706 c 128,-1,27
 420 730 420 730 474 730 c 0,28,29
 538 730 538 730 587 693 c 128,-1,30
 636 656 636 656 661 595 c 128,-1,31
 686 534 686 534 686 462 c 0,32,33
 686 384 686 384 664 309 c 128,-1,34
 642 234 642 234 604 176 c 128,-1,35
 566 118 566 118 518 74 c 128,-1,36
 470 30 470 30 414 6 c 128,-1,37
 358 -18 358 -18 304 -18 c 0,38,39
 240 -18 240 -18 191 19 c 128,-1,40
 142 56 142 56 117 116 c 128,-1,41
 92 176 92 176 92 248 c 0,22,23
EndSplineSet
EndChar

StartChar: P
Encoding: 80 80 48
Width: 654
VWidth: 1039
Flags: W
TeX: 80 0
HStem: 0 32<-2 103.609 198.139 322> 328 32<281 481.584> 680 32<183 270.34 364.517 553.6>
VStem: 594 96<468.138 640.044>
DStem2: 91.9701 0 182.97 0 0.262189 0.965016<63.0261 363.727 396.968 698.675>
AnchorPoint: "Bottom" 180 0 basechar 0
AnchorPoint: "Top" 452 762 basechar 0
LayerCount: 3
Fore
SplineSet
-10 0 m 1
 -2 32 l 1
 74 32 l 2
 93 32 103 41 108 59 c 2
 269 653 l 2
 274 670 271 680 250 680 c 2
 174 680 l 1
 183 712 l 1
 524 712 l 2
 620 712 690 657 690 554 c 0
 690 436 576 328 394 328 c 2
 272 328 l 1
 199 59 l 2
 195 37 201 32 218 32 c 10
 330 32 l 25
 322 0 l 25
 -10 0 l 1
281 360 m 1
 415 360 l 2
 466 360 519 387 552 432 c 0
 580 470 594 524 594 572 c 0
 594 650 549 680 502 680 c 2
 394 680 l 2
 376 680 365 672 360 653 c 2
 281 360 l 1
EndSplineSet
Layer: 2
SplineSet
-10 0 m 1,0,-1
 -2 32 l 1,1,-1
 74 32 l 2,2,3
 100 32 100 32 108 59 c 2,4,-1
 269 653 l 2,5,6
 274 666 274 666 269.5 673 c 128,-1,7
 265 680 265 680 250 680 c 2,8,-1
 174 680 l 1,9,-1
 183 712 l 1,10,-1
 524 712 l 2,11,12
 598 712 598 712 644 670.5 c 128,-1,13
 690 629 690 629 690 554 c 0,14,15
 690 510 690 510 669 469 c 128,-1,16
 648 428 648 428 610.5 397 c 128,-1,17
 573 366 573 366 516.5 347 c 128,-1,18
 460 328 460 328 394 328 c 2,19,-1
 272 328 l 1,20,-1
 199 59 l 2,21,22
 196 43 196 43 200 37.5 c 128,-1,23
 204 32 204 32 218 32 c 2,24,-1
 330 32 l 1,25,-1
 322 0 l 1,26,-1
 -10 0 l 1,0,-1
281 360 m 1,27,-1
 415 360 l 2,28,29
 454 360 454 360 491 379 c 128,-1,30
 528 398 528 398 552 432 c 0,31,32
 572 460 572 460 583 497 c 128,-1,33
 594 534 594 534 594 572 c 0,34,35
 594 626 594 626 567.5 653 c 128,-1,36
 541 680 541 680 502 680 c 2,37,-1
 394 680 l 2,38,39
 367 680 367 680 360 653 c 2,40,-1
 281 360 l 1,27,-1
EndSplineSet
EndChar

StartChar: Q
Encoding: 81 81 49
Width: 710
VWidth: 1039
Flags: W
TeX: 81 0
HStem: -184 52<395.993 491.246> -18 32<276.996 336.554> 155 28<275.666 340.446> 698 32<397.734 526.583>
VStem: 92 96<126.804 381.023> 231 28<38.3049 137.099> 324 88<-123.348 -15.3906> 548 24<-42.1116 -14.9583> 590 96<324.611 583.568>
AnchorPoint: "Top" 494 762 basechar 0
AnchorPoint: "Bottom" 176 0 basechar 0
LayerCount: 3
Fore
SplineSet
188 192 m 0
 188 111 209 63 240 38 c 1
 244 38 l 1
 236 49 231 65 231 82 c 0
 231 159 278 183 322 183 c 0
 374 183 405 129 411 45 c 1
 526 128 590 318 590 520 c 0
 590 638 544 698 466 698 c 0
 300 698 188 452 188 192 c 0
92 248 m 0
 92 518 290 730 474 730 c 0
 606 730 686 608 686 460 c 0
 686 216 523 45 412 5 c 1
 412 -39 l 2
 412 -72 412 -132 457 -132 c 0
 506 -132 533 -64 548 -10 c 1
 572 -17 l 1
 539 -158 472 -184 424 -184 c 0
 369 -184 324 -155 324 -91 c 0
 324 -78 327 -59 331 -40 c 2
 337 -15 l 1
 322 -18 317 -18 304 -18 c 0
 172 -18 92 104 92 248 c 0
259 82 m 0
 259 34 282 14 311 14 c 0
 323 14 334 16 344 18 c 1
 352 55 l 2
 354 63 355 70 355 81 c 0
 355 110 352 155 308 155 c 0
 278 155 259 131 259 82 c 0
EndSplineSet
Layer: 2
SplineSet
188 192 m 0,0,1
 188 80 188 80 240 38 c 1,2,-1
 244 38 l 1,3,4
 231 56 231 56 231 82 c 0,5,6
 231 135 231 135 257.5 159 c 128,-1,7
 284 183 284 183 322 183 c 128,-1,8
 360 183 360 183 383 146 c 128,-1,9
 406 109 406 109 411 45 c 1,10,11
 496 106 496 106 543 235.5 c 128,-1,12
 590 365 590 365 590 520 c 0,13,14
 590 608 590 608 558 653 c 128,-1,15
 526 698 526 698 466 698 c 128,-1,16
 406 698 406 698 353 655.5 c 128,-1,17
 300 613 300 613 264.5 542.5 c 128,-1,18
 229 472 229 472 208.5 380.5 c 128,-1,19
 188 289 188 289 188 192 c 0,0,1
92 248 m 0,20,21
 92 326 92 326 114 401 c 128,-1,22
 136 476 136 476 174 534.5 c 128,-1,23
 212 593 212 593 260 637.5 c 128,-1,24
 308 682 308 682 364 706 c 128,-1,25
 420 730 420 730 474 730 c 0,26,27
 538 730 538 730 587 693 c 128,-1,28
 636 656 636 656 661 595 c 128,-1,29
 686 534 686 534 686 460 c 0,30,31
 686 390 686 390 668 323 c 128,-1,32
 650 256 650 256 621.5 205 c 128,-1,33
 593 154 593 154 556.5 112 c 128,-1,34
 520 70 520 70 483 44 c 128,-1,35
 446 18 446 18 412 5 c 1,36,-1
 412 -39 l 2,37,38
 412 -54 412 -54 412 -62 c 128,-1,39
 412 -70 412 -70 415 -85 c 128,-1,40
 418 -100 418 -100 422 -109 c 128,-1,41
 426 -118 426 -118 435 -125 c 128,-1,42
 444 -132 444 -132 457 -132 c 0,43,44
 514 -132 514 -132 548 -10 c 1,45,-1
 572 -17 l 1,46,47
 562 -58 562 -58 548 -88.5 c 128,-1,48
 534 -119 534 -119 519.5 -136.5 c 128,-1,49
 505 -154 505 -154 487.5 -165 c 128,-1,50
 470 -176 470 -176 455 -180 c 128,-1,51
 440 -184 440 -184 424 -184 c 0,52,53
 380 -184 380 -184 352 -160.5 c 128,-1,54
 324 -137 324 -137 324 -91 c 0,55,56
 324 -73 324 -73 331 -40 c 2,57,-1
 337 -15 l 1,58,59
 322 -18 322 -18 304 -18 c 0,60,61
 240 -18 240 -18 191 19 c 128,-1,62
 142 56 142 56 117 116 c 128,-1,63
 92 176 92 176 92 248 c 0,20,21
259 82 m 0,64,65
 259 48 259 48 273.5 31 c 128,-1,66
 288 14 288 14 311 14 c 0,67,68
 324 14 324 14 344 18 c 1,69,-1
 352 55 l 2,70,71
 355 67 355 67 355 81 c 128,-1,72
 355 95 355 95 353.5 105.5 c 128,-1,73
 352 116 352 116 348 128.5 c 128,-1,74
 344 141 344 141 334 148 c 128,-1,75
 324 155 324 155 308 155 c 0,76,77
 285 155 285 155 272 136.5 c 128,-1,78
 259 118 259 118 259 82 c 0,64,65
EndSplineSet
EndChar

StartChar: R
Encoding: 82 82 50
Width: 720
VWidth: 1039
Flags: W
TeX: 82 0
HStem: -12 52<522.5 614.564> 0 32<-2 103.609 198.116 310> 356 32<288 462.453> 680 32<182 270.115 364.517 532.848>
VStem: 454 94<41.6763 200.669> 490 80<173.186 304.193> 576 96<478.972 639.025> 669 25<125.219 156.96>
DStem2: 88.7097 -12 179.71 -12 0.262189 0.965016<75.4578 405.018 438.258 711.002>
AnchorPoint: "Bottom" 336 0 basechar 0
AnchorPoint: "Top" 452 762 basechar 0
LayerCount: 3
Fore
SplineSet
-10 0 m 1x74
 -2 32 l 1
 74 32 l 2
 93 32 103 41 108 59 c 2
 269 653 l 2
 274 673 268 680 250 680 c 2
 174 680 l 1
 182 712 l 1
 493 712 l 2
 605 712 672 658 672 550 c 0
 672 462 578 387 480 369 c 1
 479 365 l 1
 510 350 570 315 570 220 c 0x76
 570 173 548 110 548 72 c 0
 548 56 555 40 576 40 c 0xba
 632 40 657 120 669 162 c 1
 694 155 l 1
 680 107 651 -12 546 -12 c 0
 499 -12 454 8 454 81 c 0xb9
 454 150 490 229 490 277 c 0
 490 332 456 356 414 356 c 2
 279 356 l 1
 199 59 l 2
 195 40 200 32 218 32 c 2
 318 32 l 1
 310 0 l 1
 -10 0 l 1x74
288 388 m 1
 410 388 l 2
 510 388 576 455 576 574 c 0
 576 646 539 680 474 680 c 2
 394 680 l 2
 376 680 365 672 360 653 c 2
 288 388 l 1
EndSplineSet
Layer: 2
SplineSet
-10 0 m 1,0,-1
 -2 32 l 1,1,-1
 74 32 l 2,2,3
 100 32 100 32 108 59 c 2,4,-1
 269 653 l 2,5,6
 272 668 272 668 268 674 c 128,-1,7
 264 680 264 680 250 680 c 2,8,-1
 174 680 l 1,9,-1
 182 712 l 1,10,-1
 493 712 l 2,11,12
 578 712 578 712 625 671 c 128,-1,13
 672 630 672 630 672 550 c 0,14,15
 672 486 672 486 614 434.5 c 128,-1,16
 556 383 556 383 480 369 c 1,17,-1
 479 365 l 1,18,19
 570 321 570 321 570 220 c 0,20,21
 570 196 570 196 559 143 c 128,-1,22
 548 90 548 90 548 72 c 0,23,24
 548 58 548 58 555 49 c 128,-1,25
 562 40 562 40 576 40 c 0,26,27
 596 40 596 40 612 52 c 128,-1,28
 628 64 628 64 639.5 86 c 128,-1,29
 651 108 651 108 657 124 c 128,-1,30
 663 140 663 140 669 162 c 1,31,-1
 694 155 l 1,32,33
 676 94 676 94 661 66 c 0,34,35
 620 -12 620 -12 546 -12 c 0,36,37
 506 -12 506 -12 480 9 c 128,-1,38
 454 30 454 30 454 81 c 0,39,40
 454 118 454 118 472 187 c 128,-1,41
 490 256 490 256 490 277 c 0,42,43
 490 316 490 316 469 336 c 128,-1,44
 448 356 448 356 414 356 c 2,45,-1
 279 356 l 1,46,-1
 199 59 l 2,47,48
 196 44 196 44 200 38 c 128,-1,49
 204 32 204 32 218 32 c 2,50,-1
 318 32 l 1,51,-1
 310 0 l 1,52,-1
 -10 0 l 1,0,-1
288 388 m 1,53,-1
 410 388 l 2,54,55
 486 388 486 388 531 437 c 128,-1,56
 576 486 576 486 576 574 c 0,57,58
 576 627 576 627 550 653.5 c 128,-1,59
 524 680 524 680 474 680 c 2,60,-1
 394 680 l 2,61,62
 367 680 367 680 360 653 c 2,63,-1
 288 388 l 1,53,-1
EndSplineSet
EndChar

StartChar: S
Encoding: 83 83 51
Width: 620
VWidth: 1039
Flags: W
TeX: 83 0
HStem: -18 32<256.717 410.698> 698 32<309.868 442.072>
VStem: 34 23<-10 17.65> 114 23<278.35 306> 177 54<499.275 624.168> 491 64<98.9407 219.318> 547 23<462 493.379> 605 23<693.263 722>
DStem2: 333 435 294 339 0.852918 -0.522045<-104.132 248.159>
AnchorPoint: "Bottom" 282 0 basechar 0
AnchorPoint: "Top" 425 762 basechar 0
LayerCount: 3
Fore
SplineSet
34 -10 m 25xfd
 114 306 l 25
 137 306 l 17
 109 156 204 14 319 14 c 0
 431 14 491 61 491 152 c 0xfd
 491 210 457 239 410 268 c 26
 294 339 l 18
 218 384 177 428 177 520 c 0
 177 666 273 730 396 730 c 0
 451 730 506 689 525 672 c 0
 538 660 545 656 554 656 c 0
 579 656 599 701 605 722 c 9
 628 722 l 25
 570 462 l 25
 547 462 l 17xfb
 552 556 485 698 387 698 c 0
 279 698 231 629 231 565 c 0
 231 494 289 460 333 435 c 2
 427 380 l 18
 507 332 555 294 555 198 c 0
 555 67 467 -18 311 -18 c 0
 215 -18 148 44 139 53 c 0
 127 65 118 73 109 73 c 0
 84 73 63 10 57 -10 c 9
 34 -10 l 25xfd
EndSplineSet
Layer: 2
SplineSet
34 -10 m 1,0,-1
 114 306 l 1,1,-1
 137 306 l 1,2,3
 124 233 124 233 146 164.5 c 128,-1,4
 168 96 168 96 215 55 c 128,-1,5
 262 14 262 14 319 14 c 0,6,7
 404 14 404 14 447.5 49 c 128,-1,8
 491 84 491 84 491 152 c 0,9,10
 491 192 491 192 470.5 217.5 c 128,-1,11
 450 243 450 243 410 268 c 2,12,-1
 294 339 l 2,13,14
 232 376 232 376 204.5 415 c 128,-1,15
 177 454 177 454 177 520 c 0,16,17
 177 574 177 574 193.5 614.5 c 128,-1,18
 210 655 210 655 240 680 c 128,-1,19
 270 705 270 705 309.5 717.5 c 128,-1,20
 349 730 349 730 396 730 c 0,21,22
 432 730 432 730 467.5 711 c 128,-1,23
 503 692 503 692 525 672 c 0,24,25
 542 656 542 656 554 656 c 0,26,27
 570 656 570 656 584 678 c 128,-1,28
 598 700 598 700 605 722 c 1,29,-1
 628 722 l 1,30,-1
 570 462 l 1,31,-1
 547 462 l 1,32,33
 550 510 550 510 530.5 564 c 128,-1,34
 511 618 511 618 472.5 658 c 128,-1,35
 434 698 434 698 387 698 c 0,36,37
 348 698 348 698 317 686 c 128,-1,38
 286 674 286 674 268 655 c 128,-1,39
 250 636 250 636 240.5 613 c 128,-1,40
 231 590 231 590 231 565 c 0,41,42
 231 544 231 544 238 526 c 128,-1,43
 245 508 245 508 253.5 496 c 128,-1,44
 262 484 262 484 278 471 c 128,-1,45
 294 458 294 458 305 451.5 c 128,-1,46
 316 445 316 445 333 435 c 2,47,-1
 427 380 l 2,48,49
 454 364 454 364 471 352 c 128,-1,50
 488 340 488 340 506 323 c 128,-1,51
 524 306 524 306 533.5 289 c 128,-1,52
 543 272 543 272 549 249 c 128,-1,53
 555 226 555 226 555 198 c 0,54,55
 555 98 555 98 490.5 40 c 128,-1,56
 426 -18 426 -18 311 -18 c 0,57,58
 278 -18 278 -18 246 -9 c 128,-1,59
 214 0 214 0 191 14.5 c 128,-1,60
 168 29 168 29 157 37.5 c 128,-1,61
 146 46 146 46 139 53 c 0,62,63
 119 73 119 73 109 73 c 0,64,65
 98 73 98 73 86 55 c 128,-1,66
 74 37 74 37 68 21.5 c 128,-1,67
 62 6 62 6 57 -10 c 1,68,-1
 34 -10 l 1,0,-1
EndSplineSet
EndChar

StartChar: T
Encoding: 84 84 52
Width: 690
VWidth: 1039
Flags: W
TeX: 84 0
HStem: 0 32<114 242.622 336.982 448> 444 21G<116 141 656 685.701> 680 32<296.118 409.323 503.257 620.859>
VStem: 116 25<444 467.45> 656 25<444 473.778>
DStem2: 230.97 0 321.97 0 0.262189 0.965016<62.9215 698.588>
AnchorPoint: "Bottom" 278 0 basechar 0
AnchorPoint: "Top" 478 762 basechar 0
LayerCount: 3
Fore
SplineSet
106 0 m 25
 114 32 l 25
 214 32 l 18
 232 32 242 41 247 59 c 10
 408 653 l 18
 414 673 406 680 390 680 c 10
 357 680 l 18
 305 680 259 643 242 627 c 0
 177 564 141 445 141 444 c 1
 116 444 l 1
 196 712 l 9
 744 712 l 17
 681 444 l 1
 656 444 l 1
 656 444 668 494 668 548 c 0
 668 659 607 680 568 680 c 10
 535 680 l 18
 516 680 503 672 499 653 c 10
 338 59 l 18
 334 41 338 32 356 32 c 10
 456 32 l 25
 448 0 l 25
 106 0 l 25
EndSplineSet
Layer: 2
SplineSet
106 0 m 1,0,-1
 114 32 l 1,1,-1
 214 32 l 2,2,3
 240 32 240 32 247 59 c 2,4,-1
 408 653 l 2,5,6
 416 680 416 680 390 680 c 2,7,-1
 357 680 l 2,8,9
 323 680 323 680 292.5 663 c 128,-1,10
 262 646 262 646 242 627 c 0,11,12
 213 599 213 599 187.5 552.5 c 128,-1,13
 162 506 162 506 151.5 477 c 128,-1,14
 141 448 141 448 141 444 c 1,15,-1
 116 444 l 1,16,-1
 196 712 l 1,17,-1
 744 712 l 1,18,-1
 681 444 l 1,19,-1
 656 444 l 1,20,21
 668 494 668 494 668 548 c 0,22,23
 668 580 668 580 661 604 c 128,-1,24
 654 628 654 628 644 642 c 128,-1,25
 634 656 634 656 620 665 c 128,-1,26
 606 674 606 674 593.5 677 c 128,-1,27
 581 680 581 680 568 680 c 2,28,-1
 535 680 l 2,29,30
 504 680 504 680 499 653 c 2,31,-1
 338 59 l 2,32,33
 335 45 335 45 339 38.5 c 128,-1,34
 343 32 343 32 356 32 c 2,35,-1
 456 32 l 1,36,-1
 448 0 l 1,37,-1
 106 0 l 1,0,-1
EndSplineSet
EndChar

StartChar: U
Encoding: 85 85 53
Width: 784
VWidth: 1039
Flags: W
TeX: 85 0
HStem: -18 32<292.755 450.489> 680 32<164 252.115 346.391 452 610 690.145 780.441 872>
VStem: 130 84<84.7998 254.945>
DStem2: 69.4464 -18 159.693 -18 0.262189 0.965016<204.698 717.24> 529.314 -18 567.597 -18 0.262189 0.965016<118.027 669.885>
AnchorPoint: "Top" 544 762 basechar 0
AnchorPoint: "Bottom" 344 0 basechar 0
LayerCount: 3
Fore
SplineSet
130 176 m 0
 130 195 134 217 139 238 c 10
 251 653 l 18
 256 672 250 680 232 680 c 10
 156 680 l 25
 164 712 l 25
 460 712 l 25
 452 680 l 25
 376 680 l 18
 357 680 347 672 342 653 c 10
 223 211 l 18
 218 190 214 172 214 154 c 0
 214 65 278 14 369 14 c 0
 500 14 564 108 588 198 c 10
 695 588 l 18
 698 600 701 620 701 630 c 0
 701 653 691 680 650 680 c 10
 602 680 l 25
 610 712 l 25
 880 712 l 25
 872 680 l 25
 824 680 l 18
 782 680 747 639 733 586 c 10
 629 208 l 18
 595 83 527 -18 361 -18 c 0
 202 -18 130 71 130 176 c 0
EndSplineSet
Layer: 2
SplineSet
130 176 m 0,0,1
 130 200 130 200 139 238 c 2,2,-1
 251 653 l 2,3,4
 254 667 254 667 250 673.5 c 128,-1,5
 246 680 246 680 232 680 c 2,6,-1
 156 680 l 1,7,-1
 164 712 l 1,8,-1
 460 712 l 1,9,-1
 452 680 l 1,10,-1
 376 680 l 2,11,12
 349 680 349 680 342 653 c 2,13,-1
 223 211 l 2,14,15
 214 173 214 173 214 154 c 0,16,17
 214 88 214 88 257 51 c 128,-1,18
 300 14 300 14 369 14 c 0,19,20
 416 14 416 14 455 30 c 128,-1,21
 494 46 494 46 519.5 73 c 128,-1,22
 545 100 545 100 561.5 131 c 128,-1,23
 578 162 578 162 588 198 c 2,24,-1
 695 588 l 2,25,26
 701 612 701 612 701 630 c 0,27,28
 701 651 701 651 689.5 665.5 c 128,-1,29
 678 680 678 680 650 680 c 2,30,-1
 602 680 l 1,31,-1
 610 712 l 1,32,-1
 880 712 l 1,33,-1
 872 680 l 1,34,-1
 824 680 l 2,35,36
 794 680 794 680 769 653.5 c 128,-1,37
 744 627 744 627 733 586 c 2,38,-1
 629 208 l 2,39,40
 616 158 616 158 596 119.5 c 128,-1,41
 576 81 576 81 545 48.5 c 128,-1,42
 514 16 514 16 467.5 -1 c 128,-1,43
 421 -18 421 -18 361 -18 c 0,44,45
 303 -18 303 -18 258 -2.5 c 128,-1,46
 213 13 213 13 185.5 39.5 c 128,-1,47
 158 66 158 66 144 101 c 128,-1,48
 130 136 130 136 130 176 c 0,0,1
EndSplineSet
EndChar

StartChar: V
Encoding: 86 86 54
Width: 752
VWidth: 1039
Flags: W
TeX: 86 0
HStem: -18 21G<248 286.248> 680 32<148 239.388 341.22 444 558 630.066 748.733 846>
VStem: 248 88<139 675.146>
DStem2: 336 139 273 -18 0.552235 0.833688<0 569.592>
AnchorPoint: "Top" 496 762 basechar 0
AnchorPoint: "Bottom" 278 0 basechar 0
LayerCount: 3
Fore
SplineSet
140 680 m 1
 148 712 l 1
 452 712 l 1
 444 680 l 1
 374 680 l 2
 341 680 336 660 336 633 c 2
 336 139 l 1
 596 536 l 2
 621 574 638 606 638 638 c 0
 638 662 623 680 594 680 c 2
 550 680 l 1
 558 712 l 1
 854 712 l 1
 846 680 l 1
 807 680 l 2
 753 680 708 642 687 607 c 2
 273 -18 l 1
 248 -18 l 1
 248 636 l 2
 244 672 227 680 200 680 c 2
 140 680 l 1
EndSplineSet
Layer: 2
SplineSet
140 680 m 1,0,-1
 148 712 l 1,1,-1
 452 712 l 1,2,-1
 444 680 l 1,3,-1
 374 680 l 2,4,5
 351 680 351 680 343.5 668 c 128,-1,6
 336 656 336 656 336 633 c 2,7,-1
 336 139 l 1,8,-1
 596 536 l 2,9,10
 638 600 638 600 638 638 c 0,11,12
 638 656 638 656 626.5 668 c 128,-1,13
 615 680 615 680 594 680 c 2,14,-1
 550 680 l 1,15,-1
 558 712 l 1,16,-1
 854 712 l 1,17,-1
 846 680 l 1,18,-1
 807 680 l 2,19,20
 770 680 770 680 737 658 c 128,-1,21
 704 636 704 636 687 607 c 2,22,-1
 273 -18 l 1,23,-1
 248 -18 l 1,24,-1
 248 636 l 2,25,26
 245 662 245 662 233.5 671 c 128,-1,27
 222 680 222 680 200 680 c 2,28,-1
 140 680 l 1,0,-1
EndSplineSet
EndChar

StartChar: W
Encoding: 87 87 55
Width: 1078
VWidth: 1039
Flags: W
TeX: 87 0
HStem: -18 21G<244 281.636 607 644.616> 680 32<148 235.662 336.36 436 516 600.438 709.94 804 884 959.625 1076.79 1172>
VStem: 244 88<145 675.543> 607 88<156 517 552.273 670.622>
DStem2: 332 145 269 -18 0.534112 0.845414<0 461.375> 695 156 632 -18 0.533533 0.845779<0 547.213>
AnchorPoint: "Top" 668 762 basechar 0
AnchorPoint: "Bottom" 468 0 basechar 0
LayerCount: 3
Fore
SplineSet
140 680 m 1
 148 712 l 1
 444 712 l 1
 436 680 l 1
 368 680 l 2
 335 680 332 660 332 633 c 2
 332 145 l 1
 576 536 l 2
 605 580 607 620 607 636 c 0
 607 672 587 680 560 680 c 2
 508 680 l 1
 516 712 l 1
 812 712 l 1
 804 680 l 1
 747 680 l 2
 713 680 695 654 695 617 c 2
 695 156 l 1
 933 531 l 2
 951 559 971 599 971 636 c 0
 971 654 954 680 931 680 c 2
 876 680 l 1
 884 712 l 1
 1180 712 l 1
 1172 680 l 1
 1128 680 l 2
 1077 680 1046 640 1025 605 c 2
 632 -18 l 1
 607 -18 l 1
 607 517 l 1
 269 -18 l 1
 244 -18 l 1
 244 636 l 2
 240 672 224 680 197 680 c 2
 140 680 l 1
EndSplineSet
Layer: 2
SplineSet
140 680 m 1,0,-1
 148 712 l 1,1,-1
 444 712 l 1,2,-1
 436 680 l 1,3,-1
 368 680 l 2,4,5
 346 680 346 680 339 668.5 c 128,-1,6
 332 657 332 657 332 633 c 2,7,-1
 332 145 l 1,8,-1
 576 536 l 2,9,10
 607 583 607 583 607 636 c 0,11,12
 607 661 607 661 594.5 670.5 c 128,-1,13
 582 680 582 680 560 680 c 2,14,-1
 508 680 l 1,15,-1
 516 712 l 1,16,-1
 812 712 l 1,17,-1
 804 680 l 1,18,-1
 747 680 l 2,19,20
 722 680 722 680 708.5 663 c 128,-1,21
 695 646 695 646 695 617 c 2,22,-1
 695 156 l 1,23,-1
 933 531 l 2,24,25
 971 590 971 590 971 636 c 0,26,27
 971 651 971 651 959 665.5 c 128,-1,28
 947 680 947 680 931 680 c 2,29,-1
 876 680 l 1,30,-1
 884 712 l 1,31,-1
 1180 712 l 1,32,-1
 1172 680 l 1,33,-1
 1128 680 l 2,34,35
 1070 680 1070 680 1025 605 c 2,36,-1
 632 -18 l 1,37,-1
 607 -18 l 1,38,-1
 607 517 l 1,39,-1
 269 -18 l 1,40,-1
 244 -18 l 1,41,-1
 244 636 l 2,42,43
 241 662 241 662 230 671 c 128,-1,44
 219 680 219 680 197 680 c 2,45,-1
 140 680 l 1,0,-1
EndSplineSet
EndChar

StartChar: X
Encoding: 88 88 56
Width: 840
VWidth: 1039
Flags: W
TeX: 88 0
HStem: 0 32<19 126.791 260.496 330 440 538.383 654.178 752> 680 32<160 269.564 389.492 464 574 645.773 771.242 878>
DStem2: 201 108 281 140 0.670475 0.741932<16.7528 305.349 418.331 695.218> 386 630 289 630 0.414535 -0.910033<-31.4911 234.047 312.018 596.543>
AnchorPoint: "Top" 536 762 basechar 0
AnchorPoint: "Bottom" 376 0 basechar 0
LayerCount: 3
Fore
SplineSet
10 0 m 1
 19 32 l 1
 62 32 l 2
 122 32 163 66 201 108 c 2
 418 345 l 1
 289 630 l 2
 274 663 266 680 220 680 c 2
 152 680 l 1
 160 712 l 1
 472 712 l 1
 464 680 l 1
 419 680 l 2
 401 680 373 659 386 630 c 2
 483 417 l 1
 634 582 l 2
 648 597 654 613 654 638 c 0
 654 668 633 680 603 680 c 2
 566 680 l 1
 574 712 l 1
 886 712 l 1
 878 680 l 1
 842 680 l 2
 803 680 758 667 722 628 c 2
 499 381 l 1
 642 68 l 2
 657 36 672 32 699 32 c 2
 760 32 l 1
 752 0 l 1
 432 0 l 1
 440 32 l 1
 504 32 l 2
 530 32 552 49 538 80 c 2
 434 309 l 1
 281 140 l 2
 259 116 253 100 253 74 c 0
 253 35 286 32 305 32 c 2
 339 32 l 1
 330 0 l 1
 10 0 l 1
EndSplineSet
Layer: 2
SplineSet
10 0 m 1,0,-1
 19 32 l 1,1,-1
 62 32 l 2,2,3
 104 32 104 32 136 52 c 128,-1,4
 168 72 168 72 201 108 c 2,5,-1
 418 345 l 1,6,-1
 289 630 l 2,7,8
 282 646 282 646 278 652.5 c 128,-1,9
 274 659 274 659 266 666.5 c 128,-1,10
 258 674 258 674 247.5 677 c 128,-1,11
 237 680 237 680 220 680 c 2,12,-1
 152 680 l 1,13,-1
 160 712 l 1,14,-1
 472 712 l 1,15,-1
 464 680 l 1,16,-1
 419 680 l 2,17,18
 403 680 403 680 390 665 c 128,-1,19
 377 650 377 650 386 630 c 2,20,-1
 483 417 l 1,21,-1
 634 582 l 2,22,23
 654 604 654 604 654 638 c 0,24,25
 654 680 654 680 603 680 c 2,26,-1
 566 680 l 1,27,-1
 574 712 l 1,28,-1
 886 712 l 1,29,-1
 878 680 l 1,30,-1
 842 680 l 2,31,32
 770 680 770 680 722 628 c 2,33,-1
 499 381 l 1,34,-1
 642 68 l 2,35,36
 652 46 652 46 664.5 39 c 128,-1,37
 677 32 677 32 699 32 c 2,38,-1
 760 32 l 1,39,-1
 752 0 l 1,40,-1
 432 0 l 1,41,-1
 440 32 l 1,42,-1
 504 32 l 2,43,44
 526 32 526 32 537 45 c 128,-1,45
 548 58 548 58 538 80 c 2,46,-1
 434 309 l 1,47,-1
 281 140 l 2,48,49
 265 122 265 122 259 108 c 128,-1,50
 253 94 253 94 253 74 c 0,51,52
 253 32 253 32 305 32 c 2,53,-1
 339 32 l 1,54,-1
 330 0 l 1,55,-1
 10 0 l 1,0,-1
EndSplineSet
EndChar

StartChar: Y
Encoding: 89 89 57
Width: 720
VWidth: 1039
Flags: W
TeX: 89 0
HStem: 0 32<114 242.97 336.813 448> 680 32<122 224.465 333.875 430 534 610.618 720.05 822>
DStem2: 231.242 0 322.242 0 0.262189 0.965016<62.9989 329.36> 395 355 238 636 0.241099 -0.9705<-318.311 0> 395 355 411 329 0.661175 0.750232<0 348.631>
AnchorPoint: "Top" 490 762 basechar 0
AnchorPoint: "Bottom" 278 0 basechar 0
LayerCount: 3
Fore
SplineSet
106 0 m 25
 114 32 l 25
 214 32 l 18
 232 32 242 40 247 58 c 10
 317 318 l 17
 238 636 l 2
 227 669 215 680 188 680 c 2
 114 680 l 1
 122 712 l 1
 438 712 l 1
 430 680 l 1
 371 680 l 2
 337 680 320 654 329 633 c 2
 395 355 l 25
 567 553 l 18
 586 575 617 609 617 641 c 0
 617 661 608 680 569 680 c 2
 526 680 l 1
 534 712 l 1
 830 712 l 1
 822 680 l 1
 775 680 l 2
 724 680 683 639 656 607 c 2
 411 329 l 9
 338 58 l 18
 332 40 338 32 356 32 c 10
 456 32 l 25
 448 0 l 25
 106 0 l 25
EndSplineSet
Layer: 2
SplineSet
106 0 m 1,0,-1
 114 32 l 1,1,-1
 214 32 l 2,2,3
 240 32 240 32 247 58 c 2,4,-1
 317 318 l 1,5,-1
 238 636 l 2,6,7
 230 661 230 661 219 670.5 c 128,-1,8
 208 680 208 680 188 680 c 2,9,-1
 114 680 l 1,10,-1
 122 712 l 1,11,-1
 438 712 l 1,12,-1
 430 680 l 1,13,-1
 371 680 l 2,14,15
 346 680 346 680 334 665 c 128,-1,16
 322 650 322 650 329 633 c 1,17,-1
 395 355 l 1,18,-1
 567 553 l 2,19,20
 582 571 582 571 589.5 579.5 c 128,-1,21
 597 588 597 588 607 607 c 128,-1,22
 617 626 617 626 617 641 c 0,23,24
 617 680 617 680 569 680 c 2,25,-1
 526 680 l 1,26,-1
 534 712 l 1,27,-1
 830 712 l 1,28,-1
 822 680 l 1,29,-1
 775 680 l 2,30,31
 718 680 718 680 656 607 c 2,32,-1
 411 329 l 1,33,-1
 338 58 l 2,34,35
 330 32 330 32 356 32 c 2,36,-1
 456 32 l 1,37,-1
 448 0 l 1,38,-1
 106 0 l 1,0,-1
EndSplineSet
EndChar

StartChar: Z
Encoding: 90 90 58
Width: 680
Flags: W
TeX: 90 0
HStem: 0 32<158 457.464> 680 32<299.21 552>
VStem: 621 25<246.186 268>
DStem2: 44 31 158 32 0.616374 0.787454<71.0541 824.175>
AnchorPoint: "Top" 428 762 basechar 0
AnchorPoint: "Bottom" 278 0 basechar 0
LayerCount: 3
Fore
SplineSet
36 0 m 9
 44 31 l 17
 552 680 l 1
 372 680 l 2
 314 680 269 657 216 602 c 0
 159 543 141 481 141 480 c 1
 116 480 l 1
 200 712 l 9
 672 712 l 25
 664 680 l 17
 158 32 l 1
 380 32 l 2
 411 32 458 37 506 79 c 0
 576 140 621 268 621 268 c 1
 646 268 l 1
 560 0 l 1
 36 0 l 9
EndSplineSet
Layer: 2
SplineSet
36 0 m 1,0,-1
 44 31 l 1,1,-1
 552 680 l 1,2,-1
 372 680 l 2,3,4
 328 680 328 680 292 662 c 128,-1,5
 256 644 256 644 216 602 c 0,6,7
 190 576 190 576 171.5 545 c 128,-1,8
 153 514 153 514 147 498 c 128,-1,9
 141 482 141 482 141 480 c 1,10,-1
 116 480 l 1,11,-1
 200 712 l 1,12,-1
 672 712 l 1,13,-1
 664 680 l 1,14,-1
 158 32 l 1,15,-1
 380 32 l 2,16,17
 452 32 452 32 506 79 c 0,18,19
 537 106 537 106 565.5 153 c 128,-1,20
 594 200 594 200 608 234 c 2,21,-1
 621 268 l 1,22,-1
 646 268 l 1,23,-1
 560 0 l 1,24,-1
 36 0 l 1,0,-1
EndSplineSet
EndChar

StartChar: bracketleft
Encoding: 91 91 59
Width: 380
Flags: W
TeX: 98 0
HStem: -198 30<110.094 234> 682 30<329.896 474>
DStem2: 24 -198 94.155 -198 0.262189 0.965016<55.4311 936.229>
LayerCount: 3
Fore
SplineSet
24 -198 m 25
 272 712 l 25
 482 712 l 25
 474 682 l 25
 354 682 l 18
 338 680 333 678 328 662 c 10
 111 -136 l 18
 107 -152 111 -166 125 -168 c 10
 242 -168 l 25
 234 -198 l 25
 24 -198 l 25
EndSplineSet
Layer: 2
SplineSet
24 -198 m 1,0,-1
 272 712 l 1,1,-1
 482 712 l 1,2,-1
 474 682 l 1,3,-1
 354 682 l 1,4,5
 342 680 342 680 337 677 c 128,-1,6
 332 674 332 674 328 662 c 2,7,-1
 111 -136 l 2,8,9
 108 -148 108 -148 111.5 -157 c 128,-1,10
 115 -166 115 -166 125 -168 c 1,11,-1
 242 -168 l 1,12,-1
 234 -198 l 1,13,-1
 24 -198 l 1,0,-1
EndSplineSet
EndChar

StartChar: backslash
Encoding: 92 92 60
Width: 440
Flags: W
TeX: 98 0
HStem: 710 20G<72 118.422>
DStem2: 112 730 72 730 0.305743 -0.952114<0 962.444>
LayerCount: 3
Fore
SplineSet
72 730 m 25
 112 730 l 25
 410 -198 l 25
 370 -198 l 25
 72 730 l 25
EndSplineSet
Layer: 2
SplineSet
72 730 m 1,0,-1
 112 730 l 1,1,-1
 410 -198 l 1,2,-1
 370 -198 l 1,3,-1
 72 730 l 1,0,-1
EndSplineSet
EndChar

StartChar: bracketright
Encoding: 93 93 61
Width: 380
Flags: W
TeX: 98 0
HStem: -198 30<-82 62.1035> 682 30<158 281.906>
DStem2: 50.4153 -198 120 -198 0.262189 0.965016<25.2037 906.001>
LayerCount: 3
Fore
SplineSet
-90 -198 m 25
 -82 -168 l 25
 38 -168 l 18
 54 -166 59 -164 64 -148 c 10
 281 650 l 18
 285 666 281 680 267 682 c 10
 150 682 l 25
 158 712 l 25
 368 712 l 25
 120 -198 l 29
 -90 -198 l 25
EndSplineSet
Layer: 2
SplineSet
-90 -198 m 1,0,-1
 -82 -168 l 1,1,-1
 38 -168 l 1,2,3
 50 -166 50 -166 55 -163 c 128,-1,4
 60 -160 60 -160 64 -148 c 2,5,-1
 281 650 l 2,6,7
 284 662 284 662 280.5 671 c 128,-1,8
 277 680 277 680 267 682 c 1,9,-1
 150 682 l 1,10,-1
 158 712 l 1,11,-1
 368 712 l 1,12,-1
 120 -198 l 1,13,-1
 -90 -198 l 1,0,-1
EndSplineSet
EndChar

StartChar: asciicircum
Encoding: 94 94 62
Width: 580
Flags: W
TeX: 97 0
HStem: 622 78<277 355>
DStem2: 88 336 136 336 0.530836 0.847475<25.4801 363.408> 316 700 316 622 0.530836 -0.847475<66.103 404.031>
LayerCount: 3
Fore
SplineSet
88 336 m 25
 316 700 l 25
 544 336 l 25
 496 336 l 25
 316 622 l 29
 136 336 l 25
 88 336 l 25
EndSplineSet
Layer: 2
SplineSet
88 336 m 1,0,-1
 316 700 l 1,1,-1
 544 336 l 1,2,-1
 496 336 l 1,3,-1
 316 622 l 1,4,-1
 136 336 l 1,5,-1
 88 336 l 1,0,-1
EndSplineSet
EndChar

StartChar: underscore
Encoding: 95 95 63
Width: 520
Flags: W
TeX: 117 0
HStem: -158 40<-31 479>
LayerCount: 3
Fore
SplineSet
-41 -158 m 25
 -31 -118 l 25
 489 -118 l 25
 479 -158 l 25
 -41 -158 l 25
EndSplineSet
Layer: 2
SplineSet
-41 -158 m 1,0,-1
 -31 -118 l 1,1,-1
 489 -118 l 1,2,-1
 479 -158 l 1,3,-1
 -41 -158 l 1,0,-1
EndSplineSet
EndChar

StartChar: grave
Encoding: 96 96 64
AltUni2: 0002cb.ffffffff.0
Width: 440
VWidth: 959
Flags: W
TeX: 103 0
HStem: 508 168
VStem: 214 116
LayerCount: 3
Fore
SplineSet
214 640 m 0
 214 650 220 676 250 676 c 0
 271 676 281 664 290 637 c 10
 330 518 l 25
 313 508 l 25
 228 605 l 18
 219 615 214 629 214 640 c 0
EndSplineSet
Layer: 2
SplineSet
214 640 m 0,0,1
 214 652 214 652 222 664 c 128,-1,2
 230 676 230 676 250 676 c 0,3,4
 266 676 266 676 274.5 667 c 128,-1,5
 283 658 283 658 290 637 c 2,6,-1
 330 518 l 1,7,-1
 313 508 l 1,8,-1
 228 605 l 2,9,10
 214 620 214 620 214 640 c 0,0,1
EndSplineSet
EndChar

StartChar: a
Encoding: 97 97 65
Width: 536
Flags: W
TeX: 97 0
HStem: -12 34<336 406.983> -12 24<133.498 197.667> 432 24<243.491 313.682>
VStem: 42 72<37.1427 225.028> 304 58<22.0502 137.763>
AnchorPoint: "Top" 322 508 basechar 0
AnchorPoint: "Bottom" 212 0 basechar 0
LayerCount: 3
Fore
SplineSet
42 125 m 0x78
 42 216 77 297 101 335 c 0
 146 406 211 456 277 456 c 0
 315 456 354 432 369 368 c 1
 373 366 l 1
 395 444 l 1
 461 444 l 1
 376 129 l 2
 372 113 362 73 362 49 c 0
 362 32 366 22 380 22 c 0
 418 22 459 92 489 182 c 9
 509 176 l 17
 481 94 430 -12 362 -12 c 0xb8
 310 -12 304 50 304 90 c 0
 304 110 305 117 305 117 c 1
 302 119 l 1
 282 76 224 -12 154 -12 c 0
 82 -12 42 44 42 125 c 0x78
114 85 m 0
 114 52 124 12 160 12 c 0x78
 211 12 258 70 294 150 c 0
 320 208 344 292 344 340 c 0
 344 400 318 432 277 432 c 0
 231 432 191 366 170 320 c 0
 137 247 114 157 114 85 c 0
EndSplineSet
Layer: 2
SplineSet
42 125 m 0,0,1
 42 186 42 186 60 243 c 128,-1,2
 78 300 78 300 101 335 c 0,3,4
 136 390 136 390 182.5 423 c 128,-1,5
 229 456 229 456 277 456 c 0,6,7
 308 456 308 456 333 434.5 c 128,-1,8
 358 413 358 413 369 368 c 1,9,-1
 373 366 l 1,10,-1
 395 444 l 1,11,-1
 461 444 l 1,12,-1
 376 129 l 2,13,14
 362 73 362 73 362 49 c 0,15,16
 362 22 362 22 380 22 c 0,17,18
 408 22 408 22 437 66.5 c 128,-1,19
 466 111 466 111 489 182 c 1,20,-1
 509 176 l 1,21,22
 498 142 498 142 484 111.5 c 128,-1,23
 470 81 470 81 451 51.5 c 128,-1,24
 432 22 432 22 409 5 c 128,-1,25
 386 -12 386 -12 362 -12 c 0,26,27
 304 -12 304 -12 304 90 c 2,28,-1
 305 117 l 1,29,-1
 302 119 l 1,30,31
 294 100 294 100 280 80 c 128,-1,32
 266 60 266 60 247 38 c 128,-1,33
 228 16 228 16 203 2 c 128,-1,34
 178 -12 178 -12 154 -12 c 0,35,36
 101 -12 101 -12 71.5 25.5 c 128,-1,37
 42 63 42 63 42 125 c 0,0,1
114 85 m 0,38,39
 114 56 114 56 125 34 c 128,-1,40
 136 12 136 12 160 12 c 0,41,42
 196 12 196 12 231 49 c 128,-1,43
 266 86 266 86 294 150 c 0,44,45
 314 196 314 196 329 250.5 c 128,-1,46
 344 305 344 305 344 340 c 0,47,48
 344 384 344 384 326 408 c 128,-1,49
 308 432 308 432 277 432 c 0,50,51
 260 432 260 432 244 421 c 128,-1,52
 228 410 228 410 214 392.5 c 128,-1,53
 200 375 200 375 189.5 357.5 c 128,-1,54
 179 340 179 340 170 320 c 0,55,56
 144 264 144 264 129 201 c 128,-1,57
 114 138 114 138 114 85 c 0,38,39
EndSplineSet
EndChar

StartChar: b
Encoding: 98 98 66
Width: 480
VWidth: 959
Flags: W
TeX: 98 0
HStem: -12 24<165.021 239.187> 432 24<289.949 352.277> 688 24<109 206.001>
VStem: 68 70<48.1816 221.848> 374 72<213.361 401.061>
DStem2: 20.4763 -12 88.8317 -12 0.262189 0.965016<396.154 719.492>
AnchorPoint: "Bottom" 196 0 basechar 0
LayerCount: 3
Fore
SplineSet
138 106 m 0
 138 78 138 12 202 12 c 0
 253 12 289 75 313 120 c 0
 348 186 374 266 374 349 c 0
 374 382 361 432 330 432 c 0
 284 432 233 384 194 306 c 0
 163 243 138 166 138 106 c 0
68 136 m 0
 68 152 69 168 74 185 c 10
 206 666 l 18
 211 683 206 688 191 688 c 2
 102 688 l 1
 109 712 l 1
 114 712 286 712 286 712 c 1
 188 353 l 1
 193 349 l 1
 226 407 278 456 338 456 c 0
 413 456 446 379 446 310 c 0
 446 222 387 106 335 52 c 0
 294 10 250 -12 188 -12 c 0
 126 -12 68 42 68 136 c 0
EndSplineSet
Layer: 2
SplineSet
138 106 m 0,0,1
 138 94 138 94 138.5 85 c 128,-1,2
 139 76 139 76 142.5 61 c 128,-1,3
 146 46 146 46 152 36.5 c 128,-1,4
 158 27 158 27 171 19.5 c 128,-1,5
 184 12 184 12 202 12 c 128,-1,6
 220 12 220 12 237 22 c 128,-1,7
 254 32 254 32 268.5 50 c 128,-1,8
 283 68 283 68 292.5 83 c 128,-1,9
 302 98 302 98 313 120 c 0,10,11
 374 235 374 235 374 349 c 0,12,13
 374 378 374 378 362.5 405 c 128,-1,14
 351 432 351 432 330 432 c 0,15,16
 296 432 296 432 260 398.5 c 128,-1,17
 224 365 224 365 194 306 c 0,18,19
 138 192 138 192 138 106 c 0,0,1
68 136 m 0,20,21
 68 164 68 164 74 185 c 2,22,-1
 206 666 l 2,23,24
 210 678 210 678 206 683 c 128,-1,25
 202 688 202 688 191 688 c 2,26,-1
 102 688 l 1,27,-1
 109 712 l 1,28,-1
 286 712 l 1,29,-1
 188 353 l 1,30,-1
 193 349 l 1,31,32
 220 396 220 396 258 426 c 128,-1,33
 296 456 296 456 338 456 c 0,34,35
 365 456 365 456 386.5 443 c 128,-1,36
 408 430 408 430 420.5 409 c 128,-1,37
 433 388 433 388 439.5 362.5 c 128,-1,38
 446 337 446 337 446 310 c 0,39,40
 446 248 446 248 411.5 172 c 128,-1,41
 377 96 377 96 335 52 c 0,42,43
 304 20 304 20 269 4 c 128,-1,44
 234 -12 234 -12 188 -12 c 0,45,46
 139 -12 139 -12 103.5 28 c 128,-1,47
 68 68 68 68 68 136 c 0,20,21
EndSplineSet
EndChar

StartChar: c
Encoding: 99 99 67
Width: 424
VWidth: 959
Flags: W
TeX: 99 0
HStem: -12 24<155.402 241.416> 432 24<247.254 323.445>
VStem: 52 72<63.0203 243.043> 333 53<336 423.772>
AnchorPoint: "Bottom" 180 0 basechar 0
AnchorPoint: "Top" 314 508 basechar 0
LayerCount: 3
Fore
SplineSet
52 158 m 0
 52 235 80 318 140 381 c 0
 183 426 228 456 290 456 c 0
 333 456 386 432 386 356 c 0
 386 316 360 286 329 286 c 0
 302 286 290 307 290 324 c 0
 290 348 307 365 322 376 c 0
 332 384 333 394 333 402 c 0
 333 410 324 432 286 432 c 0
 213 432 170 318 150 258 c 0
 134 211 124 130 124 98 c 0
 124 34 159 12 191 12 c 0
 289 12 339 133 347 155 c 1
 368 148 l 1
 338 62 269 -12 186 -12 c 0
 103 -12 52 67 52 158 c 0
EndSplineSet
Layer: 2
SplineSet
52 158 m 0,0,1
 52 218 52 218 74 277 c 128,-1,2
 96 336 96 336 140 381 c 0,3,4
 175 418 175 418 210.5 437 c 128,-1,5
 246 456 246 456 290 456 c 0,6,7
 308 456 308 456 324 451 c 128,-1,8
 340 446 340 446 354 435 c 128,-1,9
 368 424 368 424 377 403.5 c 128,-1,10
 386 383 386 383 386 356 c 0,11,12
 386 326 386 326 369 306 c 128,-1,13
 352 286 352 286 329 286 c 0,14,15
 310 286 310 286 300 298 c 128,-1,16
 290 310 290 310 290 324 c 0,17,18
 290 352 290 352 322 376 c 0,19,20
 333 385 333 385 333 402 c 0,21,22
 333 412 333 412 322 422 c 128,-1,23
 311 432 311 432 286 432 c 0,24,25
 208 432 208 432 150 258 c 0,26,27
 139 226 139 226 131.5 176 c 128,-1,28
 124 126 124 126 124 98 c 0,29,30
 124 54 124 54 144 33 c 128,-1,31
 164 12 164 12 191 12 c 128,-1,32
 218 12 218 12 244 25 c 128,-1,33
 270 38 270 38 286 55.5 c 128,-1,34
 302 73 302 73 316.5 95.5 c 128,-1,35
 331 118 331 118 337 131 c 128,-1,36
 343 144 343 144 347 155 c 1,37,-1
 368 148 l 1,38,39
 344 80 344 80 295 34 c 128,-1,40
 246 -12 246 -12 186 -12 c 128,-1,41
 126 -12 126 -12 89 37.5 c 128,-1,42
 52 87 52 87 52 158 c 0,0,1
EndSplineSet
EndChar

StartChar: d
Encoding: 100 100 68
Width: 530
Flags: W
TeX: 100 0
HStem: -12 34<336 406.983> -12 24<133.498 197.667> 432 24<243.499 313.893> 688 24<357 454>
VStem: 42 72<37.1427 224.454> 304 58<22.0502 136.661>
DStem2: 270.3 -12 337.691 -12 0.262189 0.965016<391.703 719.482>
AnchorPoint: "Bottom" 212 0 basechar 0
LayerCount: 3
Fore
SplineSet
114 85 m 0x7c
 114 52 124 12 160 12 c 0
 211 12 258 70 294 150 c 0
 320 208 344 292 344 340 c 0
 344 400 318 432 277 432 c 0
 231 432 191 366 170 320 c 0
 137 247 114 157 114 85 c 0x7c
42 125 m 0
 42 216 89 305 113 343 c 0
 158 415 223 456 283 456 c 0
 321 456 358 427 369 368 c 1
 373 366 l 1
 454 666 l 2
 455 671 458 688 438 688 c 6
 350 688 l 1
 357 712 l 1
 362 712 534 712 534 712 c 1
 376 129 l 2
 372 113 362 73 362 49 c 0
 362 32 366 22 380 22 c 0
 418 22 460 94 489 182 c 9
 509 176 l 17
 480 94 430 -12 362 -12 c 0xbc
 310 -12 304 50 304 90 c 0
 304 110 305 117 305 117 c 1
 302 119 l 1
 282 76 224 -12 154 -12 c 0
 82 -12 42 44 42 125 c 0
EndSplineSet
Layer: 2
SplineSet
114 85 m 0,0,1
 114 56 114 56 125 34 c 128,-1,2
 136 12 136 12 160 12 c 0,3,4
 196 12 196 12 231 49 c 128,-1,5
 266 86 266 86 294 150 c 0,6,7
 314 196 314 196 329 250.5 c 128,-1,8
 344 305 344 305 344 340 c 0,9,10
 344 384 344 384 326 408 c 128,-1,11
 308 432 308 432 277 432 c 0,12,13
 260 432 260 432 244 421 c 128,-1,14
 228 410 228 410 214 392.5 c 128,-1,15
 200 375 200 375 189.5 357.5 c 128,-1,16
 179 340 179 340 170 320 c 0,17,18
 144 264 144 264 129 201 c 128,-1,19
 114 138 114 138 114 85 c 0,0,1
42 125 m 0,20,21
 42 185 42 185 64.5 243.5 c 128,-1,22
 87 302 87 302 113 343 c 0,23,24
 146 396 146 396 192 426 c 128,-1,25
 238 456 238 456 283 456 c 0,26,27
 313 456 313 456 337 433 c 128,-1,28
 361 410 361 410 369 368 c 1,29,-1
 373 366 l 1,30,-1
 454 666 l 2,31,32
 458 688 458 688 438 688 c 2,33,-1
 350 688 l 1,34,-1
 357 712 l 1,35,-1
 534 712 l 1,36,-1
 376 129 l 2,37,38
 362 73 362 73 362 49 c 0,39,40
 362 22 362 22 380 22 c 0,41,42
 408 22 408 22 437 67 c 128,-1,43
 466 112 466 112 489 182 c 1,44,-1
 509 176 l 1,45,46
 442 -12 442 -12 362 -12 c 0,47,48
 304 -12 304 -12 304 90 c 2,49,-1
 305 117 l 1,50,-1
 302 119 l 1,51,52
 294 100 294 100 280 80 c 128,-1,53
 266 60 266 60 247 38 c 128,-1,54
 228 16 228 16 203 2 c 128,-1,55
 178 -12 178 -12 154 -12 c 0,56,57
 101 -12 101 -12 71.5 25.5 c 128,-1,58
 42 63 42 63 42 125 c 0,20,21
EndSplineSet
EndChar

StartChar: e
Encoding: 101 101 69
Width: 410
VWidth: 959
Flags: W
TeX: 101 0
HStem: -12 24<155.402 241.416> 215 25<144 222.15> 432 24<248.891 320.317>
VStem: 52 72<63.0203 213.325> 333 48<307.473 426.987>
AnchorPoint: "Top" 312 508 basechar 0
AnchorPoint: "Bottom" 182 0 basechar 0
LayerCount: 3
Fore
SplineSet
52 158 m 0
 52 235 80 318 140 381 c 0
 183 426 234 456 290 456 c 0
 338 456 381 436 381 372 c 0
 381 316 340 275 280 247 c 0
 229 223 174 218 138 215 c 1
 132 191 124 140 124 98 c 0
 124 34 159 12 191 12 c 0
 289 12 339 133 347 155 c 1
 368 148 l 1
 338 62 269 -12 186 -12 c 0
 103 -12 52 67 52 158 c 0
144 240 m 1
 173 242 219 246 261 265 c 0
 301 283 333 324 333 378 c 0
 333 419 313 432 291 432 c 0
 232 432 182 364 164 313 c 0
 159 298 146 249 144 240 c 1
EndSplineSet
Layer: 2
SplineSet
52 158 m 0,0,1
 52 218 52 218 74 277 c 128,-1,2
 96 336 96 336 140 381 c 0,3,4
 212 456 212 456 290 456 c 0,5,6
 330 456 330 456 355.5 436 c 128,-1,7
 381 416 381 416 381 372 c 0,8,9
 381 294 381 294 280 247 c 0,10,11
 228 222 228 222 138 215 c 1,12,13
 124 159 124 159 124 98 c 0,14,15
 124 54 124 54 144 33 c 128,-1,16
 164 12 164 12 191 12 c 128,-1,17
 218 12 218 12 244 25 c 128,-1,18
 270 38 270 38 286 55.5 c 128,-1,19
 302 73 302 73 316.5 95.5 c 128,-1,20
 331 118 331 118 337 131 c 128,-1,21
 343 144 343 144 347 155 c 1,22,-1
 368 148 l 1,23,24
 344 80 344 80 295 34 c 128,-1,25
 246 -12 246 -12 186 -12 c 128,-1,26
 126 -12 126 -12 89 37.5 c 128,-1,27
 52 87 52 87 52 158 c 0,0,1
144 240 m 1,28,29
 217 245 217 245 261 265 c 0,30,31
 292 279 292 279 312.5 309 c 128,-1,32
 333 339 333 339 333 378 c 0,33,34
 333 406 333 406 321.5 419 c 128,-1,35
 310 432 310 432 291 432 c 0,36,37
 250 432 250 432 215 395 c 128,-1,38
 180 358 180 358 164 313 c 0,39,40
 152 279 152 279 144 240 c 1,28,29
EndSplineSet
EndChar

StartChar: f
Encoding: 102 102 70
Width: 320
Flags: W
TeX: 102 0
HStem: -238 21G<-42 31.5046> 416 28<41 138 213 319> 696 24<332.163 408.761>
VStem: 412 52<645.856 695.197>
DStem2: -42 -238 26 -238 0.262189 0.965016<17.8289 678.315 724.999 872.14>
AnchorPoint: "Bottom" 224 0 basechar 0
AnchorPoint: "Top" 396 752 basechar 0
LayerCount: 3
Fore
SplineSet
-42 -238 m 1
 138 416 l 1
 35 416 l 1
 41 444 l 1
 145 444 l 1
 157 483 l 2
 166 516 192 572 206 596 c 0
 236 646 292 720 383 720 c 0
 431 720 464 687 464 648 c 0
 464 611 441 586 413 586 c 0
 392 586 380 599 380 619 c 0
 380 633 388 645 396 651 c 0
 408 657 412 665 412 673 c 0
 412 687 401 696 384 696 c 0
 327 696 277 670 231 506 c 2
 213 444 l 1
 325 444 l 1
 319 416 l 1
 206 416 l 1
 26 -238 l 1
 -42 -238 l 1
EndSplineSet
Layer: 2
SplineSet
-42 -238 m 1,0,-1
 138 416 l 1,1,-1
 35 416 l 1,2,-1
 41 444 l 1,3,-1
 145 444 l 1,4,-1
 157 483 l 2,5,6
 164 506 164 506 179 541 c 128,-1,7
 194 576 194 576 206 596 c 0,8,9
 280 720 280 720 383 720 c 0,10,11
 418 720 418 720 441 699 c 128,-1,12
 464 678 464 678 464 648 c 0,13,14
 464 621 464 621 449 603.5 c 128,-1,15
 434 586 434 586 413 586 c 0,16,17
 398 586 398 586 389 595 c 128,-1,18
 380 604 380 604 380 619 c 0,19,20
 380 639 380 639 396 651 c 1,21,22
 412 659 412 659 412 673 c 0,23,24
 412 684 412 684 404.5 690 c 128,-1,25
 397 696 397 696 384 696 c 0,26,27
 366 696 366 696 351 692 c 128,-1,28
 336 688 336 688 319 676 c 128,-1,29
 302 664 302 664 288 644 c 128,-1,30
 274 624 274 624 259 589 c 128,-1,31
 244 554 244 554 231 506 c 2,32,-1
 213 444 l 1,33,-1
 325 444 l 1,34,-1
 319 416 l 1,35,-1
 206 416 l 1,36,-1
 26 -238 l 1,37,-1
 -42 -238 l 1,0,-1
EndSplineSet
EndChar

StartChar: g
Encoding: 103 103 71
Width: 480
Flags: W
TeX: 103 0
HStem: -248 24<56.8846 149.225> -12 24<133.498 197.667> 432 24<243.499 313.893>
VStem: -17 66<-211.957 -125.742> 42 72<37.1427 224.454>
DStem2: 204.967 -248 272.522 -248 0.262189 0.965016<131.287 377.853 636.577 717.616>
AnchorPoint: "Top" 322 508 basechar 0
LayerCount: 3
Fore
SplineSet
114 85 m 0xe8
 114 52 124 12 160 12 c 0
 211 12 258 70 294 150 c 0
 320 208 344 292 344 340 c 0
 344 400 318 432 277 432 c 0
 231 432 191 366 170 320 c 0
 137 247 114 157 114 85 c 0xe8
-17 -150 m 0xf0
 -17 -110 11 -90 37 -90 c 0
 65 -90 77 -112 77 -130 c 0
 77 -148 68 -162 58 -170 c 0
 51 -176 49 -180 49 -192 c 0xf0
 49 -210 60 -224 92 -224 c 0
 135 -224 167 -212 201 -167 c 0
 238 -118 256 -61 268 -16 c 10
 268 -16 303 106 305 117 c 1
 302 119 l 1
 282 76 224 -12 154 -12 c 0
 82 -12 42 44 42 125 c 0xe8
 42 216 89 305 113 343 c 0
 158 415 223 456 283 456 c 0
 321 456 358 427 369 368 c 1
 373 366 l 1
 395 444 l 1
 461 444 l 1
 338 -7 l 2
 323 -61 285 -144 233 -192 c 0
 188 -234 137 -248 100 -248 c 0
 30 -248 -17 -212 -17 -150 c 0xf0
EndSplineSet
Layer: 2
SplineSet
114 85 m 0,0,1
 114 56 114 56 125 34 c 128,-1,2
 136 12 136 12 160 12 c 0,3,4
 196 12 196 12 231 49 c 128,-1,5
 266 86 266 86 294 150 c 0,6,7
 314 196 314 196 329 250.5 c 128,-1,8
 344 305 344 305 344 340 c 0,9,10
 344 384 344 384 326 408 c 128,-1,11
 308 432 308 432 277 432 c 0,12,13
 260 432 260 432 244 421 c 128,-1,14
 228 410 228 410 214 392.5 c 128,-1,15
 200 375 200 375 189.5 357.5 c 128,-1,16
 179 340 179 340 170 320 c 0,17,18
 144 264 144 264 129 201 c 128,-1,19
 114 138 114 138 114 85 c 0,0,1
-17 -150 m 0,20,21
 -17 -122 -17 -122 -0.5 -106 c 128,-1,22
 16 -90 16 -90 37 -90 c 0,23,24
 56 -90 56 -90 66.5 -102 c 128,-1,25
 77 -114 77 -114 77 -130 c 0,26,27
 77 -155 77 -155 58 -170 c 0,28,29
 49 -178 49 -178 49 -192 c 0,30,31
 49 -224 49 -224 92 -224 c 0,32,33
 126 -224 126 -224 151 -212 c 128,-1,34
 176 -200 176 -200 201 -167 c 0,35,36
 242 -112 242 -112 268 -16 c 0,37,38
 303 106 303 106 305 117 c 1,39,-1
 302 119 l 1,40,41
 294 100 294 100 280 80 c 128,-1,42
 266 60 266 60 247 38 c 128,-1,43
 228 16 228 16 203 2 c 128,-1,44
 178 -12 178 -12 154 -12 c 0,45,46
 101 -12 101 -12 71.5 25.5 c 128,-1,47
 42 63 42 63 42 125 c 0,48,49
 42 185 42 185 64.5 243.5 c 128,-1,50
 87 302 87 302 113 343 c 0,51,52
 146 396 146 396 192 426 c 128,-1,53
 238 456 238 456 283 456 c 0,54,55
 313 456 313 456 337 433 c 128,-1,56
 361 410 361 410 369 368 c 1,57,-1
 373 366 l 1,58,-1
 395 444 l 1,59,-1
 461 444 l 1,60,-1
 338 -7 l 2,61,62
 325 -54 325 -54 297 -106.5 c 128,-1,63
 269 -159 269 -159 233 -192 c 0,64,65
 202 -221 202 -221 167 -234.5 c 128,-1,66
 132 -248 132 -248 100 -248 c 0,67,68
 47 -248 47 -248 15 -222 c 128,-1,69
 -17 -196 -17 -196 -17 -150 c 0,20,21
EndSplineSet
AlternateSubs2: "'aalt' Access All Alternates in Latin lookup 0 subtable" uni1D79
Substitution2: "'ss02' Insular Forms for Old English-1" uni1D79
Substitution2: "'salt' Stylistic Alternatives-1" uni1D79
EndChar

StartChar: h
Encoding: 104 104 72
Width: 512
Flags: W
TeX: 104 0
HStem: -12 30<330.687 382.819> 426 30<313.323 371.577> 688 24<109 206.001>
VStem: 275 52<18.2187 121.401> 375 52<322.203 425.807>
DStem2: 20.7397 -12 86.7397 -12 0.262189 0.965016<29.7395 251.769 271.368 719.529> 295 186 343 109 0.394663 0.918826<-100.35 210.705>
AnchorPoint: "Top" 356 752 basechar 0
AnchorPoint: "Bottom" 200 0 basechar 0
LayerCount: 3
Fore
SplineSet
24 0 m 9
 206 666 l 18
 211 683 205 688 190 688 c 2
 102 688 l 1
 109 712 l 1
 114 712 286 712 286 712 c 1
 154 233 l 1
 158 230 l 1
 193 293 267 456 362 456 c 0
 401 456 427 424 427 360 c 0
 427 331 417 281 407 258 c 2
 343 109 l 2
 338 98 327 68 327 50 c 0
 327 33 334 18 350 18 c 0
 402 18 449 130 468 182 c 9
 488 176 l 17
 456 82 404 -12 339 -12 c 0
 306 -12 275 16 275 84 c 0
 275 113 284 160 295 186 c 2
 359 335 l 2
 364 346 375 376 375 394 c 0
 375 411 369 426 353 426 c 0
 314 426 272 391 226 313 c 0
 170 219 127 123 110 66 c 2
 90 0 l 1
 24 0 l 9
EndSplineSet
Layer: 2
SplineSet
24 0 m 1,0,-1
 206 666 l 2,1,2
 210 678 210 678 206 683 c 128,-1,3
 202 688 202 688 190 688 c 2,4,-1
 102 688 l 1,5,-1
 109 712 l 1,6,-1
 286 712 l 1,7,-1
 154 233 l 1,8,-1
 158 230 l 1,9,10
 162 236 162 236 175 261.5 c 128,-1,11
 188 287 188 287 197 303 c 128,-1,12
 206 319 206 319 222 344.5 c 128,-1,13
 238 370 238 370 253 387 c 128,-1,14
 268 404 268 404 286 421.5 c 128,-1,15
 304 439 304 439 323 447.5 c 128,-1,16
 342 456 342 456 362 456 c 0,17,18
 392 456 392 456 409.5 431.5 c 128,-1,19
 427 407 427 407 427 360 c 0,20,21
 427 338 427 338 420.5 307 c 128,-1,22
 414 276 414 276 407 258 c 2,23,-1
 343 109 l 2,24,25
 327 74 327 74 327 50 c 0,26,27
 327 36 327 36 332.5 27 c 128,-1,28
 338 18 338 18 350 18 c 0,29,30
 368 18 368 18 387 35.5 c 128,-1,31
 406 53 406 53 422 81.5 c 128,-1,32
 438 110 438 110 448.5 133.5 c 128,-1,33
 459 157 459 157 468 182 c 1,34,-1
 488 176 l 1,35,36
 470 125 470 125 449.5 85 c 128,-1,37
 429 45 429 45 399.5 16.5 c 128,-1,38
 370 -12 370 -12 339 -12 c 0,39,40
 312 -12 312 -12 293.5 12 c 128,-1,41
 275 36 275 36 275 84 c 0,42,43
 275 106 275 106 281 136 c 128,-1,44
 287 166 287 166 295 186 c 2,45,-1
 359 335 l 2,46,47
 375 370 375 370 375 394 c 0,48,49
 375 426 375 426 353 426 c 0,50,51
 292 426 292 426 226 313 c 0,52,53
 186 246 186 246 155 178.5 c 128,-1,54
 124 111 124 111 110 66 c 2,55,-1
 90 0 l 1,56,-1
 24 0 l 1,0,-1
EndSplineSet
EndChar

StartChar: k
Encoding: 107 107 75
Width: 490
Flags: W
TeX: 107 0
HStem: -12 35<305.984 352.844> 226 24<160 248.887> 416 40<342.254 404> 688 24<109 206.001>
VStem: 236 68<23.8142 161.024> 260 64<93.3701 216.628> 386 70<344.188 415.663>
DStem2: 20.7397 -12 86.7397 -12 0.262189 0.965016<29.7395 264.613 289.347 719.529>
AnchorPoint: "Bottom" 196 0 basechar 0
LayerCount: 3
Fore
SplineSet
24 0 m 1xf6
 206 666 l 2
 211 683 205 688 190 688 c 2
 102 688 l 1
 109 712 l 1
 114 712 286 712 286 712 c 1
 160 250 l 1
 223 250 l 2
 262 250 292 324 309 379 c 0
 328 442 366 456 394 456 c 0
 414 456 433 444 440 434 c 0
 454 415 456 402 456 384 c 0
 456 347 434 322 406 322 c 0
 390 322 370 333 370 356 c 0
 370 367 375 377 379 383 c 0
 383 389 386 394 386 400 c 0
 386 410 382 416 367 416 c 0
 347 416 338 399 331 377 c 0
 318 334 287 254 259 243 c 1
 258 238 l 1
 289 235 324 209 324 162 c 0xf6
 324 119 304 81 304 53 c 0
 304 41 308 23 325 23 c 0
 333 23 337 24 350 34 c 0
 390 64 416 140 432 182 c 1
 452 176 l 1
 423 92 375 -12 308 -12 c 0
 273 -12 236 8 236 68 c 0xfa
 236 116 260 147 260 181 c 0
 260 207 254 226 214 226 c 2
 154 226 l 1
 90 0 l 1
 24 0 l 1xf6
EndSplineSet
Layer: 2
SplineSet
24 0 m 1,0,-1
 206 666 l 2,1,2
 210 678 210 678 206 683 c 128,-1,3
 202 688 202 688 190 688 c 2,4,-1
 102 688 l 1,5,-1
 109 712 l 1,6,-1
 286 712 l 1,7,-1
 160 250 l 1,8,-1
 223 250 l 2,9,10
 269 250 269 250 309 379 c 0,11,12
 322 422 322 422 345 439 c 128,-1,13
 368 456 368 456 394 456 c 0,14,15
 408 456 408 456 421 449 c 128,-1,16
 434 442 434 442 440 434 c 0,17,18
 456 412 456 412 456 384 c 128,-1,19
 456 356 456 356 442 339 c 128,-1,20
 428 322 428 322 406 322 c 0,21,22
 392 322 392 322 381 331 c 128,-1,23
 370 340 370 340 370 356 c 0,24,25
 370 370 370 370 379 383 c 0,26,27
 386 394 386 394 386 400 c 0,28,29
 386 416 386 416 367 416 c 0,30,31
 353 416 353 416 345 406 c 128,-1,32
 337 396 337 396 331 377 c 0,33,34
 318 334 318 334 298 292 c 128,-1,35
 278 250 278 250 259 243 c 1,36,-1
 258 238 l 1,37,38
 284 236 284 236 304 215.5 c 128,-1,39
 324 195 324 195 324 162 c 0,40,41
 324 138 324 138 314 101.5 c 128,-1,42
 304 65 304 65 304 53 c 0,43,44
 304 42 304 42 309 32.5 c 128,-1,45
 314 23 314 23 325 23 c 128,-1,46
 336 23 336 23 350 34 c 0,47,48
 356 39 356 39 362.5 45.5 c 128,-1,49
 369 52 369 52 374.5 60.5 c 128,-1,50
 380 69 380 69 385 76.5 c 128,-1,51
 390 84 390 84 395.5 95 c 128,-1,52
 401 106 401 106 404.5 113 c 128,-1,53
 408 120 408 120 413 132 c 128,-1,54
 418 144 418 144 420 149 c 128,-1,55
 422 154 422 154 426.5 167 c 128,-1,56
 431 180 431 180 432 182 c 1,57,-1
 452 176 l 1,58,59
 387 -12 387 -12 308 -12 c 0,60,61
 278 -12 278 -12 257 7 c 128,-1,62
 236 26 236 26 236 68 c 0,63,64
 236 94 236 94 248 130 c 128,-1,65
 260 166 260 166 260 181 c 0,66,67
 260 204 260 204 251 215 c 128,-1,68
 242 226 242 226 214 226 c 2,69,-1
 154 226 l 1,70,-1
 90 0 l 1,71,-1
 24 0 l 1,0,-1
EndSplineSet
EndChar

StartChar: l
Encoding: 108 108 76
Width: 290
Flags: W
TeX: 108 0
HStem: -12 34<86.5 157.818> 688 24<109 206.001>
VStem: 54 58<22.0502 157>
DStem2: 19.9856 -12 87.2459 -12 0.262189 0.965016<108.262 719.727>
AnchorPoint: "Top" 260 762 basechar 0
AnchorPoint: "Bottom" 112 0 basechar 0
LayerCount: 3
Fore
SplineSet
54 90 m 0
 54 110 61 138 64 150 c 2
 206 666 l 2
 211 683 205 688 190 688 c 2
 102 688 l 1
 109 712 l 1
 114 712 284 712 284 712 c 1
 128 138 l 2
 124 122 112 74 112 49 c 0
 112 32 116 22 131 22 c 0
 172 22 213 105 239 182 c 9
 259 176 l 17
 236 112 188 -12 112 -12 c 0
 61 -12 54 50 54 90 c 0
EndSplineSet
Layer: 2
SplineSet
54 90 m 0,0,1
 54 110 54 110 64 150 c 2,2,-1
 206 666 l 2,3,4
 210 678 210 678 206 683 c 128,-1,5
 202 688 202 688 190 688 c 2,6,-1
 102 688 l 1,7,-1
 109 712 l 1,8,-1
 284 712 l 1,9,-1
 128 138 l 2,10,11
 112 74 112 74 112 49 c 0,12,13
 112 22 112 22 131 22 c 128,-1,14
 150 22 150 22 171 47 c 128,-1,15
 192 72 192 72 208.5 106 c 128,-1,16
 225 140 225 140 239 182 c 1,17,-1
 259 176 l 1,18,19
 250 150 250 150 242 131 c 128,-1,20
 234 112 234 112 219 83 c 128,-1,21
 204 54 204 54 189.5 35 c 128,-1,22
 175 16 175 16 154.5 2 c 128,-1,23
 134 -12 134 -12 112 -12 c 0,24,25
 54 -12 54 -12 54 90 c 0,0,1
EndSplineSet
EndChar

StartChar: m
Encoding: 109 109 77
Width: 806
Flags: W
TeX: 109 0
HStem: -12 30<624.687 676.819> 426 30<139.686 208.5 362.625 412.487 607.323 665.577>
VStem: 183 58<284.579 421.711> 418 58<292.945 424.094> 569 52<18.2187 121.401> 669 52<322.203 425.807>
DStem2: 80.7397 -12 146.74 -12 0.262189 0.965016<29.7395 247.865 271.368 393.305> 314.74 -12 380.74 -12 0.262189 0.965016<29.7395 251.769 271.631 400.747> 589 186 637 109 0.394663 0.918826<-100.35 210.705>
AnchorPoint: "Bottom" 352 0 basechar 0
AnchorPoint: "Top" 488 508 basechar 0
LayerCount: 3
Fore
SplineSet
36 268 m 17
 57 328 107 456 182 456 c 0
 235 456 241 393 241 353 c 0
 241 333 227 260 214 233 c 1
 218 230 l 1
 254 296 332 456 399 456 c 0
 458 456 476 414 476 361 c 0
 476 329 454 250 449 233 c 1
 452 230 l 1
 487 293 561 456 656 456 c 0
 695 456 721 424 721 360 c 0
 721 331 711 281 701 258 c 2
 637 109 l 2
 632 98 621 68 621 50 c 0
 621 33 628 18 644 18 c 0
 696 18 743 130 762 182 c 9
 782 176 l 17
 750 82 698 -12 633 -12 c 0
 600 -12 569 16 569 84 c 0
 569 113 578 160 589 186 c 2
 653 335 l 2
 658 346 669 376 669 394 c 0
 669 411 663 426 647 426 c 0
 608 426 566 391 520 313 c 0
 464 219 421 123 404 66 c 2
 384 0 l 1
 318 0 l 9
 401 309 l 18
 406 328 418 361 418 387 c 0
 418 415 405 426 386 426 c 0
 329 426 198 157 170 66 c 2
 150 0 l 1
 84 0 l 9
 168 309 l 18
 172 325 183 369 183 394 c 0
 183 411 179 422 164 422 c 0
 116 422 75 315 56 262 c 9
 36 268 l 17
EndSplineSet
Layer: 2
SplineSet
36 268 m 1,0,1
 102 456 102 456 182 456 c 0,2,3
 241 456 241 456 241 353 c 0,4,5
 241 336 241 336 232 294 c 128,-1,6
 223 252 223 252 214 233 c 1,7,-1
 218 230 l 1,8,9
 222 236 222 236 231.5 255 c 128,-1,10
 241 274 241 274 247.5 286 c 128,-1,11
 254 298 254 298 265.5 318 c 128,-1,12
 277 338 277 338 286.5 352 c 128,-1,13
 296 366 296 366 308 383 c 128,-1,14
 320 400 320 400 331 412 c 128,-1,15
 342 424 342 424 353.5 435 c 128,-1,16
 365 446 365 446 376.5 451 c 128,-1,17
 388 456 388 456 399 456 c 0,18,19
 476 456 476 456 476 361 c 0,20,21
 476 325 476 325 449 233 c 1,22,-1
 452 230 l 1,23,24
 456 236 456 236 469 261.5 c 128,-1,25
 482 287 482 287 491 303 c 128,-1,26
 500 319 500 319 516 344.5 c 128,-1,27
 532 370 532 370 547 387 c 128,-1,28
 562 404 562 404 580 421.5 c 128,-1,29
 598 439 598 439 617 447.5 c 128,-1,30
 636 456 636 456 656 456 c 0,31,32
 686 456 686 456 703.5 431.5 c 128,-1,33
 721 407 721 407 721 360 c 0,34,35
 721 338 721 338 714.5 307 c 128,-1,36
 708 276 708 276 701 258 c 2,37,-1
 637 109 l 2,38,39
 621 74 621 74 621 50 c 0,40,41
 621 36 621 36 626.5 27 c 128,-1,42
 632 18 632 18 644 18 c 0,43,44
 662 18 662 18 681 35.5 c 128,-1,45
 700 53 700 53 716 81.5 c 128,-1,46
 732 110 732 110 742.5 133.5 c 128,-1,47
 753 157 753 157 762 182 c 1,48,-1
 782 176 l 1,49,50
 764 125 764 125 743.5 85 c 128,-1,51
 723 45 723 45 693.5 16.5 c 128,-1,52
 664 -12 664 -12 633 -12 c 0,53,54
 606 -12 606 -12 587.5 12 c 128,-1,55
 569 36 569 36 569 84 c 0,56,57
 569 106 569 106 575 136 c 128,-1,58
 581 166 581 166 589 186 c 2,59,-1
 653 335 l 2,60,61
 669 370 669 370 669 394 c 0,62,63
 669 426 669 426 647 426 c 0,64,65
 586 426 586 426 520 313 c 0,66,67
 480 246 480 246 449 178.5 c 128,-1,68
 418 111 418 111 404 66 c 2,69,-1
 384 0 l 1,70,-1
 318 0 l 1,71,-1
 401 309 l 2,72,73
 402 313 402 313 405.5 325 c 128,-1,74
 409 337 409 337 411.5 345.5 c 128,-1,75
 414 354 414 354 416 366 c 128,-1,76
 418 378 418 378 418 387 c 0,77,78
 418 426 418 426 386 426 c 0,79,80
 360 426 360 426 312 354 c 128,-1,81
 264 282 264 282 225 199 c 128,-1,82
 186 116 186 116 170 66 c 2,83,-1
 150 0 l 1,84,-1
 84 0 l 1,85,-1
 168 309 l 2,86,87
 183 369 183 369 183 394 c 0,88,89
 183 422 183 422 164 422 c 0,90,91
 114 422 114 422 56 262 c 1,92,-1
 36 268 l 1,0,1
EndSplineSet
EndChar

StartChar: n
Encoding: 110 110 78
Width: 572
Flags: W
TeX: 110 0
HStem: -12 30<390.687 442.819> 422 34<137.07 208.176 370.32 433.287>
VStem: 183 58<285.155 421.95> 335 52<18.2187 121.401> 435 52<322.203 425.807>
DStem2: 80.7397 -12 146.74 -12 0.262189 0.965016<29.7395 251.769 271.631 393.915> 355 186 403 109 0.394663 0.918826<-100.35 210.705>
AnchorPoint: "Top" 350 508 basechar 0
AnchorPoint: "Bottom" 260 0 basechar 0
LayerCount: 3
Fore
SplineSet
36 268 m 17
 57 328 107 456 183 456 c 0
 234 456 241 394 241 354 c 0
 241 326 224 255 215 233 c 1
 218 230 l 1
 253 293 327 456 422 456 c 0
 461 456 487 424 487 360 c 0
 487 331 477 281 467 258 c 2
 403 109 l 2
 398 98 387 68 387 50 c 0
 387 33 394 18 410 18 c 0
 462 18 509 130 528 182 c 9
 548 176 l 17
 516 82 464 -12 399 -12 c 0
 366 -12 335 16 335 84 c 0
 335 113 344 160 355 186 c 2
 419 335 l 2
 424 346 435 376 435 394 c 0
 435 411 429 426 413 426 c 0
 374 426 332 391 286 313 c 0
 230 219 187 123 170 66 c 2
 150 0 l 1
 84 0 l 9
 168 310 l 18
 172 326 183 370 183 395 c 0
 183 412 179 422 164 422 c 0
 123 422 82 339 56 262 c 9
 36 268 l 17
EndSplineSet
Layer: 2
SplineSet
36 268 m 1,0,1
 102 456 102 456 183 456 c 0,2,3
 241 456 241 456 241 354 c 0,4,5
 241 334 241 334 231.5 292.5 c 128,-1,6
 222 251 222 251 215 233 c 1,7,-1
 218 230 l 1,8,9
 222 236 222 236 235 261.5 c 128,-1,10
 248 287 248 287 257 303 c 128,-1,11
 266 319 266 319 282 344.5 c 128,-1,12
 298 370 298 370 313 387 c 128,-1,13
 328 404 328 404 346 421.5 c 128,-1,14
 364 439 364 439 383 447.5 c 128,-1,15
 402 456 402 456 422 456 c 0,16,17
 452 456 452 456 469.5 431.5 c 128,-1,18
 487 407 487 407 487 360 c 0,19,20
 487 338 487 338 480.5 307 c 128,-1,21
 474 276 474 276 467 258 c 2,22,-1
 403 109 l 2,23,24
 387 74 387 74 387 50 c 0,25,26
 387 36 387 36 392.5 27 c 128,-1,27
 398 18 398 18 410 18 c 0,28,29
 428 18 428 18 447 35.5 c 128,-1,30
 466 53 466 53 482 81.5 c 128,-1,31
 498 110 498 110 508.5 133.5 c 128,-1,32
 519 157 519 157 528 182 c 1,33,-1
 548 176 l 1,34,35
 530 125 530 125 509.5 85 c 128,-1,36
 489 45 489 45 459.5 16.5 c 128,-1,37
 430 -12 430 -12 399 -12 c 0,38,39
 372 -12 372 -12 353.5 12 c 128,-1,40
 335 36 335 36 335 84 c 0,41,42
 335 106 335 106 341 136 c 128,-1,43
 347 166 347 166 355 186 c 2,44,-1
 419 335 l 2,45,46
 435 370 435 370 435 394 c 0,47,48
 435 426 435 426 413 426 c 0,49,50
 352 426 352 426 286 313 c 0,51,52
 246 246 246 246 215 178.5 c 128,-1,53
 184 111 184 111 170 66 c 2,54,-1
 150 0 l 1,55,-1
 84 0 l 1,56,-1
 168 310 l 2,57,58
 183 370 183 370 183 395 c 0,59,60
 183 422 183 422 164 422 c 0,61,62
 144 422 144 422 123 397 c 128,-1,63
 102 372 102 372 86 338 c 128,-1,64
 70 304 70 304 56 262 c 1,65,-1
 36 268 l 1,0,1
EndSplineSet
EndChar

StartChar: o
Encoding: 111 111 79
Width: 462
VWidth: 959
Flags: W
TeX: 111 0
HStem: -12 24<154.822 230.128> 432 24<249.665 324.86>
VStem: 52 72<63.1041 241.537> 354 72<202.463 381.897>
AnchorPoint: "Top" 314 508 basechar 0
AnchorPoint: "Bottom" 191 0 basechar 0
LayerCount: 3
Fore
SplineSet
124 104 m 0
 124 52 146 12 190 12 c 0
 250 12 283 74 307 130 c 0
 334 193 354 276 354 340 c 0
 354 392 334 432 290 432 c 0
 230 432 195 370 171 314 c 0
 144 251 124 168 124 104 c 0
52 164 m 0
 52 304 164 456 294 456 c 0
 358 456 426 400 426 280 c 0
 426 140 316 -12 186 -12 c 0
 122 -12 52 44 52 164 c 0
EndSplineSet
Layer: 2
SplineSet
124 104 m 0,0,1
 124 63 124 63 141 37.5 c 128,-1,2
 158 12 158 12 190 12 c 0,3,4
 212 12 212 12 230 22 c 128,-1,5
 248 32 248 32 262.5 51 c 128,-1,6
 277 70 277 70 286.5 87.5 c 128,-1,7
 296 105 296 105 307 130 c 0,8,9
 328 178 328 178 341 235.5 c 128,-1,10
 354 293 354 293 354 340 c 0,11,12
 354 381 354 381 338 406.5 c 128,-1,13
 322 432 322 432 290 432 c 0,14,15
 268 432 268 432 249.5 422 c 128,-1,16
 231 412 231 412 216.5 393.5 c 128,-1,17
 202 375 202 375 192 356.5 c 128,-1,18
 182 338 182 338 171 314 c 0,19,20
 150 266 150 266 137 208.5 c 128,-1,21
 124 151 124 151 124 104 c 0,0,1
52 164 m 0,22,23
 52 216 52 216 72 269 c 128,-1,24
 92 322 92 322 124 363 c 128,-1,25
 156 404 156 404 201.5 430 c 128,-1,26
 247 456 247 456 294 456 c 0,27,28
 318 456 318 456 341.5 445 c 128,-1,29
 365 434 365 434 384 413 c 128,-1,30
 403 392 403 392 414.5 357.5 c 128,-1,31
 426 323 426 323 426 280 c 0,32,33
 426 228 426 228 406.5 175 c 128,-1,34
 387 122 387 122 355 81 c 128,-1,35
 323 40 323 40 278 14 c 128,-1,36
 233 -12 233 -12 186 -12 c 0,37,38
 133 -12 133 -12 92.5 34 c 128,-1,39
 52 80 52 80 52 164 c 0,22,23
EndSplineSet
EndChar

StartChar: p
Encoding: 112 112 80
Width: 540
VWidth: 959
Flags: W
TeX: 112 0
HStem: -238 28<-68 30.1409 100.999 230> -12 24<230.318 300.509> 422 34<135.958 206> 432 24<346.333 410.502>
VStem: 182 58<326.231 421.861> 430 72<218.972 406.857>
DStem2: 19.4153 -238 87.4153 -238 0.262189 0.965016<52.3427 344.689>
AnchorPoint: "Top" 348 508 basechar 0
LayerCount: 3
Fore
SplineSet
200 104 m 0xdc
 200 44 226 12 267 12 c 0
 313 12 353 78 374 124 c 0
 407 197 430 287 430 359 c 0
 430 392 420 432 384 432 c 0
 333 432 286 374 250 294 c 0
 224 236 200 152 200 104 c 0xdc
-76 -238 m 1
 -68 -210 l 1
 6 -210 l 2
 22 -210 29 -204 33 -188 c 2
 170 321 l 2
 172 329 182 370 182 395 c 0
 182 414 177 422 162 422 c 0
 123 422 79 334 55 262 c 9
 35 268 l 17
 56 328 105 456 183 456 c 0xec
 229 456 240 401 240 361 c 0
 240 341 239 327 239 327 c 1
 242 325 l 1
 262 368 320 456 390 456 c 0
 462 456 502 400 502 319 c 0
 502 228 467 147 443 109 c 0
 398 38 333 -12 267 -12 c 0
 229 -12 190 12 175 76 c 1
 171 78 l 1
 101 -188 l 2
 97 -204 100 -210 116 -210 c 2
 238 -210 l 1
 230 -238 l 1
 -76 -238 l 1
EndSplineSet
Layer: 2
SplineSet
200 104 m 0,0,1
 200 60 200 60 218 36 c 128,-1,2
 236 12 236 12 267 12 c 0,3,4
 284 12 284 12 300 23 c 128,-1,5
 316 34 316 34 330 51.5 c 128,-1,6
 344 69 344 69 354.5 86.5 c 128,-1,7
 365 104 365 104 374 124 c 0,8,9
 400 180 400 180 415 243 c 128,-1,10
 430 306 430 306 430 359 c 0,11,12
 430 388 430 388 419 410 c 128,-1,13
 408 432 408 432 384 432 c 0,14,15
 348 432 348 432 313 395 c 128,-1,16
 278 358 278 358 250 294 c 0,17,18
 230 248 230 248 215 193.5 c 128,-1,19
 200 139 200 139 200 104 c 0,0,1
-76 -238 m 1,20,-1
 -68 -210 l 1,21,-1
 6 -210 l 2,22,23
 18 -210 18 -210 24 -205 c 128,-1,24
 30 -200 30 -200 33 -188 c 2,25,-1
 170 321 l 2,26,27
 182 369 182 369 182 395 c 0,28,29
 182 410 182 410 177.5 416 c 128,-1,30
 173 422 173 422 162 422 c 0,31,32
 144 422 144 422 122.5 396 c 128,-1,33
 101 370 101 370 84.5 335.5 c 128,-1,34
 68 301 68 301 55 262 c 1,35,-1
 35 268 l 1,36,37
 101 456 101 456 183 456 c 0,38,39
 200 456 200 456 211.5 447 c 128,-1,40
 223 438 223 438 229 423 c 128,-1,41
 235 408 235 408 237.5 393 c 128,-1,42
 240 378 240 378 240 361 c 2,43,-1
 239 327 l 1,44,-1
 242 325 l 1,45,46
 250 344 250 344 264 364 c 128,-1,47
 278 384 278 384 297 406 c 128,-1,48
 316 428 316 428 341 442 c 128,-1,49
 366 456 366 456 390 456 c 0,50,51
 443 456 443 456 472.5 418.5 c 128,-1,52
 502 381 502 381 502 319 c 0,53,54
 502 258 502 258 484 201 c 128,-1,55
 466 144 466 144 443 109 c 0,56,57
 408 54 408 54 361.5 21 c 128,-1,58
 315 -12 315 -12 267 -12 c 0,59,60
 236 -12 236 -12 211 9.5 c 128,-1,61
 186 31 186 31 175 76 c 1,62,-1
 171 78 l 1,63,-1
 101 -188 l 2,64,65
 98 -200 98 -200 101 -205 c 128,-1,66
 104 -210 104 -210 116 -210 c 2,67,-1
 238 -210 l 1,68,-1
 230 -238 l 1,69,-1
 -76 -238 l 1,20,-1
EndSplineSet
EndChar

StartChar: q
Encoding: 113 113 81
Width: 480
VWidth: 959
Flags: W
TeX: 113 0
HStem: -238 28<74 219.141 289.999 373> -12 24<133.498 199.969> 432 24<243.499 313.975>
VStem: 42 72<37.1427 224.454>
AnchorPoint: "Top" 322 508 basechar 0
LayerCount: 3
Fore
SplineSet
114 85 m 0
 114 52 124 12 160 12 c 0
 211 12 258 70 294 150 c 0
 320 208 344 292 344 340 c 0
 344 400 318 432 277 432 c 0
 231 432 191 366 170 320 c 0
 137 247 114 157 114 85 c 0
42 125 m 0
 42 216 89 305 113 343 c 0
 158 415 223 456 283 456 c 0
 320 456 361 430 373 349 c 1
 378 349 l 1
 444 444 l 9
 462 444 l 25
 290 -188 l 2
 286 -204 291 -210 307 -210 c 2
 381 -210 l 1
 373 -238 l 1
 66 -238 l 1
 74 -210 l 1
 195 -210 l 2
 211 -210 218 -204 222 -188 c 2
 222 -188 303 106 305 117 c 1
 302 119 l 1
 277 65 224 -12 154 -12 c 0
 82 -12 42 44 42 125 c 0
EndSplineSet
Layer: 2
SplineSet
114 85 m 0,0,1
 114 56 114 56 125 34 c 128,-1,2
 136 12 136 12 160 12 c 0,3,4
 196 12 196 12 231 49 c 128,-1,5
 266 86 266 86 294 150 c 0,6,7
 314 196 314 196 329 250.5 c 128,-1,8
 344 305 344 305 344 340 c 0,9,10
 344 384 344 384 326 408 c 128,-1,11
 308 432 308 432 277 432 c 0,12,13
 260 432 260 432 244 421 c 128,-1,14
 228 410 228 410 214 392.5 c 128,-1,15
 200 375 200 375 189.5 357.5 c 128,-1,16
 179 340 179 340 170 320 c 0,17,18
 144 264 144 264 129 201 c 128,-1,19
 114 138 114 138 114 85 c 0,0,1
42 125 m 0,20,21
 42 185 42 185 64.5 243.5 c 128,-1,22
 87 302 87 302 113 343 c 0,23,24
 146 396 146 396 192 426 c 128,-1,25
 238 456 238 456 283 456 c 0,26,27
 314 456 314 456 339 430.5 c 128,-1,28
 364 405 364 405 373 349 c 1,29,-1
 378 349 l 1,30,-1
 444 444 l 1,31,-1
 462 444 l 1,32,-1
 290 -188 l 2,33,34
 287 -200 287 -200 291 -205 c 128,-1,35
 295 -210 295 -210 307 -210 c 2,36,-1
 381 -210 l 1,37,-1
 373 -238 l 1,38,-1
 66 -238 l 1,39,-1
 74 -210 l 1,40,-1
 195 -210 l 2,41,42
 207 -210 207 -210 213 -205 c 128,-1,43
 219 -200 219 -200 222 -188 c 0,44,45
 303 106 303 106 305 117 c 1,46,-1
 302 119 l 1,47,48
 292 96 292 96 278 75 c 128,-1,49
 264 54 264 54 245 33.5 c 128,-1,50
 226 13 226 13 202.5 0.5 c 128,-1,51
 179 -12 179 -12 154 -12 c 0,52,53
 101 -12 101 -12 71.5 25.5 c 128,-1,54
 42 63 42 63 42 125 c 0,20,21
EndSplineSet
EndChar

StartChar: r
Encoding: 114 114 82
Width: 430
Flags: W
TeX: 114 0
HStem: 0 21G<84 156.129> 422 34<137.014 208.176 336.889 396.5>
VStem: 183 58<291.132 421.95> 367 79<349.267 420.975>
DStem2: 84 0 150 0 0.262189 0.965016<17.3045 279.128 324.449 381.868>
AnchorPoint: "Bottom" 128 0 basechar 0
AnchorPoint: "Top" 290 508 basechar 0
LayerCount: 3
Fore
SplineSet
36 268 m 17
 57 328 107 456 183 456 c 0
 234 456 241 394 241 354 c 0
 241 334 235 306 232 296 c 1
 239 294 l 1
 273 365 322 456 379 456 c 0
 426 456 446 421 446 387 c 0
 446 355 424 320 384 320 c 0
 361 320 345 338 345 362 c 0
 345 377 350 386 357 394 c 0
 362 399 367 404 367 409 c 0
 367 415 366 421 354 421 c 0
 304 421 203 174 169 62 c 2
 150 0 l 1
 84 0 l 9
 168 310 l 18
 172 326 183 370 183 395 c 0
 183 412 179 422 164 422 c 0
 123 422 81 336 56 262 c 9
 36 268 l 17
EndSplineSet
Layer: 2
SplineSet
36 268 m 1,0,1
 102 456 102 456 183 456 c 0,2,3
 241 456 241 456 241 354 c 0,4,5
 241 326 241 326 232 296 c 1,6,-1
 239 294 l 1,7,8
 254 326 254 326 267.5 350 c 128,-1,9
 281 374 281 374 299.5 400.5 c 128,-1,10
 318 427 318 427 338.5 441.5 c 128,-1,11
 359 456 359 456 379 456 c 0,12,13
 412 456 412 456 429 436 c 128,-1,14
 446 416 446 416 446 387 c 0,15,16
 446 361 446 361 429 340.5 c 128,-1,17
 412 320 412 320 384 320 c 0,18,19
 367 320 367 320 356 332 c 128,-1,20
 345 344 345 344 345 362 c 128,-1,21
 345 380 345 380 357 394 c 0,22,23
 367 404 367 404 367 409 c 0,24,25
 367 412 367 412 366.5 414.5 c 128,-1,26
 366 417 366 417 363 419 c 128,-1,27
 360 421 360 421 354 421 c 0,28,29
 331 421 331 421 292 353 c 128,-1,30
 253 285 253 285 220.5 204.5 c 128,-1,31
 188 124 188 124 169 62 c 2,32,-1
 150 0 l 1,33,-1
 84 0 l 1,34,-1
 168 310 l 2,35,36
 183 370 183 370 183 395 c 0,37,38
 183 422 183 422 164 422 c 0,39,40
 136 422 136 422 107 374.5 c 128,-1,41
 78 327 78 327 56 262 c 1,42,-1
 36 268 l 1,0,1
EndSplineSet
EndChar

StartChar: s
Encoding: 115 115 83
Width: 420
Flags: W
TeX: 115 0
HStem: -12 24<105.549 230.93> 432 24<213.749 313.218>
VStem: 24 45<40.5451 118.5> 118 48<294.591 389.717> 280 56<64.1691 153.612> 345 53<330.5 402.128>
DStem2: 195 289 165 226 0.798968 -0.601374<-51.6516 171.246>
AnchorPoint: "Bottom" 156 0 basechar 0
AnchorPoint: "Top" 290 508 basechar 0
LayerCount: 3
Fore
SplineSet
24 106 m 0
 24 131 39 172 79 172 c 0
 97 172 116 158 116 133 c 0
 116 115 107 105 95 101 c 0
 81 97 69 90 69 67 c 0
 69 23 137 12 171 12 c 0
 246 12 280 52 280 96 c 0
 280 121 270 147 248 163 c 10
 165 226 l 18
 137 244 118 272 118 317 c 0
 118 409 200 456 272 456 c 0
 359 456 398 380 398 344 c 0
 398 317 383 287 346 287 c 0
 327 287 306 301 306 324 c 0
 306 330 308 345 319 354 c 0
 323 358 328 361 333 364 c 0
 340 368 345 372 345 380 c 0
 345 413 300 432 266 432 c 0
 218 432 166 404 166 345 c 0
 166 309 177 301 195 289 c 10
 288 219 l 18
 311 202 336 180 336 136 c 0
 336 65 275 -12 165 -12 c 0
 69 -12 24 49 24 106 c 0
EndSplineSet
Layer: 2
SplineSet
24 106 m 0,0,1
 24 130 24 130 38 151 c 128,-1,2
 52 172 52 172 79 172 c 0,3,4
 94 172 94 172 105 161.5 c 128,-1,5
 116 151 116 151 116 133 c 0,6,7
 116 108 116 108 95 101 c 0,8,9
 82 98 82 98 75.5 90.5 c 128,-1,10
 69 83 69 83 69 67 c 0,11,12
 69 52 69 52 79.5 40 c 128,-1,13
 90 28 90 28 107 22.5 c 128,-1,14
 124 17 124 17 140 14.5 c 128,-1,15
 156 12 156 12 171 12 c 0,16,17
 224 12 224 12 252 36 c 128,-1,18
 280 60 280 60 280 96 c 0,19,20
 280 140 280 140 248 163 c 2,21,-1
 165 226 l 2,22,23
 118 256 118 256 118 317 c 0,24,25
 118 350 118 350 132 377 c 128,-1,26
 146 404 146 404 168 421 c 128,-1,27
 190 438 190 438 217 447 c 128,-1,28
 244 456 244 456 272 456 c 0,29,30
 302 456 302 456 328 444 c 128,-1,31
 354 432 354 432 368 413.5 c 128,-1,32
 382 395 382 395 390 376.5 c 128,-1,33
 398 358 398 358 398 344 c 0,34,35
 398 321 398 321 385 304 c 128,-1,36
 372 287 372 287 346 287 c 0,37,38
 330 287 330 287 318 297.5 c 128,-1,39
 306 308 306 308 306 324 c 0,40,41
 306 344 306 344 319 354 c 0,42,43
 323 358 323 358 333 364 c 0,44,45
 345 371 345 371 345 380 c 0,46,47
 345 403 345 403 319.5 417.5 c 128,-1,48
 294 432 294 432 266 432 c 0,49,50
 226 432 226 432 196 409 c 128,-1,51
 166 386 166 386 166 345 c 0,52,53
 166 328 166 328 170 317 c 128,-1,54
 174 306 174 306 179 301 c 128,-1,55
 184 296 184 296 195 289 c 2,56,-1
 288 219 l 2,57,58
 302 208 302 208 311 199 c 128,-1,59
 320 190 320 190 328 173 c 128,-1,60
 336 156 336 156 336 136 c 0,61,62
 336 109 336 109 324.5 83 c 128,-1,63
 313 57 313 57 292 35.5 c 128,-1,64
 271 14 271 14 237.5 1 c 128,-1,65
 204 -12 204 -12 165 -12 c 0,66,67
 98 -12 98 -12 61 23.5 c 128,-1,68
 24 59 24 59 24 106 c 0,0,1
EndSplineSet
EndChar

StartChar: t
Encoding: 116 116 84
Width: 320
Flags: W
TeX: 116 0
HStem: -12 35<113.522 175.359> 416 28<73 135 209 315> 664 20G<202.583 274>
VStem: 52 58<23.839 157.109> 237 20<150.696 178.1>
DStem2: 18.715 -12 85.3967 -12 0.262189 0.965016<91.3701 443.516 489.938 721.28>
AnchorPoint: "Bottom" 120 0 basechar 0
AnchorPoint: "Top" 260 762 basechar 0
LayerCount: 3
Fore
SplineSet
52 72 m 0
 52 107 59 138 63 154 c 2
 135 416 l 1
 66 416 l 1
 73 444 l 1
 143 444 l 1
 208 684 l 1
 274 684 l 1
 209 444 l 1
 322 444 l 1
 315 416 l 1
 201 416 l 1
 118 108 l 2
 114 95 110 67 110 52 c 0
 110 43 117 23 139 23 c 0
 146 23 157 26 165 31 c 0
 199 55 220 122 237 182 c 9
 257 176 l 17
 235 85 201 -12 126 -12 c 0
 83 -12 52 19 52 72 c 0
EndSplineSet
Layer: 2
SplineSet
52 72 m 0,0,1
 52 110 52 110 63 154 c 2,2,-1
 135 416 l 1,3,-1
 66 416 l 1,4,-1
 73 444 l 1,5,-1
 143 444 l 1,6,-1
 208 684 l 1,7,-1
 274 684 l 1,8,-1
 209 444 l 1,9,-1
 322 444 l 1,10,-1
 315 416 l 1,11,-1
 201 416 l 1,12,-1
 118 108 l 2,13,14
 110 82 110 82 110 52 c 0,15,16
 110 42 110 42 117 32.5 c 128,-1,17
 124 23 124 23 139 23 c 0,18,19
 152 23 152 23 165 31 c 0,20,21
 188 47 188 47 204 85.5 c 128,-1,22
 220 124 220 124 237 182 c 1,23,-1
 257 176 l 1,24,25
 250 146 250 146 242 121.5 c 128,-1,26
 234 97 234 97 223 71 c 128,-1,27
 212 45 212 45 198.5 27.5 c 128,-1,28
 185 10 185 10 166.5 -1 c 128,-1,29
 148 -12 148 -12 126 -12 c 0,30,31
 93 -12 93 -12 72.5 10.5 c 128,-1,32
 52 33 52 33 52 72 c 0,0,1
EndSplineSet
EndChar

StartChar: u
Encoding: 117 117 85
Width: 572
Flags: W
TeX: 117 0
HStem: -12 30<152.423 210.677 376.528 444.464> 426 30<141.181 193.313>
VStem: 97 52<18.193 121.797> 197 52<322.599 425.781> 343 58<22.0502 158.845>
DStem2: 117 186 165 109 0.394663 0.918826<-100.348 210.708> 308.412 -12 376.333 -12 0.262189 0.965016<108.8 231.084 241.685 472.975>
AnchorPoint: "Bottom" 262 0 basechar 0
AnchorPoint: "Top" 348 508 basechar 0
LayerCount: 3
Fore
SplineSet
36 268 m 17
 68 362 120 456 185 456 c 0
 218 456 249 428 249 360 c 0
 249 331 240 284 229 258 c 2
 165 109 l 2
 160 98 149 68 149 50 c 0
 149 33 155 18 171 18 c 0
 210 18 252 53 298 131 c 0
 354 225 397 321 414 378 c 2
 434 444 l 1
 500 444 l 9
 416 134 l 18
 412 118 401 74 401 49 c 0
 401 32 405 22 420 22 c 0
 461 22 502 105 528 182 c 9
 548 176 l 17
 527 116 477 -12 401 -12 c 0
 350 -12 343 50 343 90 c 0
 343 118 360 189 369 211 c 1
 366 214 l 1
 331 151 257 -12 162 -12 c 0
 123 -12 97 20 97 84 c 0
 97 113 107 163 117 186 c 2
 181 335 l 2
 186 346 197 376 197 394 c 0
 197 411 190 426 174 426 c 0
 122 426 75 314 56 262 c 9
 36 268 l 17
EndSplineSet
Layer: 2
SplineSet
36 268 m 1,0,1
 54 319 54 319 74.5 359 c 128,-1,2
 95 399 95 399 124.5 427.5 c 128,-1,3
 154 456 154 456 185 456 c 0,4,5
 212 456 212 456 230.5 432 c 128,-1,6
 249 408 249 408 249 360 c 0,7,8
 249 338 249 338 243 308 c 128,-1,9
 237 278 237 278 229 258 c 2,10,-1
 165 109 l 2,11,12
 149 74 149 74 149 50 c 0,13,14
 149 18 149 18 171 18 c 0,15,16
 232 18 232 18 298 131 c 0,17,18
 338 198 338 198 369 265.5 c 128,-1,19
 400 333 400 333 414 378 c 2,20,-1
 434 444 l 1,21,-1
 500 444 l 1,22,-1
 416 134 l 2,23,24
 401 74 401 74 401 49 c 0,25,26
 401 22 401 22 420 22 c 0,27,28
 440 22 440 22 461 47 c 128,-1,29
 482 72 482 72 498 106 c 128,-1,30
 514 140 514 140 528 182 c 1,31,-1
 548 176 l 1,32,33
 482 -12 482 -12 401 -12 c 0,34,35
 343 -12 343 -12 343 90 c 0,36,37
 343 110 343 110 352.5 151.5 c 128,-1,38
 362 193 362 193 369 211 c 1,39,-1
 366 214 l 1,40,41
 362 208 362 208 349 182.5 c 128,-1,42
 336 157 336 157 327 141 c 128,-1,43
 318 125 318 125 302 99.5 c 128,-1,44
 286 74 286 74 271 57 c 128,-1,45
 256 40 256 40 238 22.5 c 128,-1,46
 220 5 220 5 201 -3.5 c 128,-1,47
 182 -12 182 -12 162 -12 c 0,48,49
 132 -12 132 -12 114.5 12.5 c 128,-1,50
 97 37 97 37 97 84 c 0,51,52
 97 106 97 106 103.5 137 c 128,-1,53
 110 168 110 168 117 186 c 2,54,-1
 181 335 l 2,55,56
 197 370 197 370 197 394 c 0,57,58
 197 408 197 408 191.5 417 c 128,-1,59
 186 426 186 426 174 426 c 0,60,61
 156 426 156 426 137 408.5 c 128,-1,62
 118 391 118 391 102 362.5 c 128,-1,63
 86 334 86 334 75.5 310.5 c 128,-1,64
 65 287 65 287 56 262 c 1,65,-1
 36 268 l 1,0,1
EndSplineSet
EndChar

StartChar: v
Encoding: 118 118 86
Width: 472
Flags: W
TeX: 118 0
HStem: -12 24<155.853 241.015> 348 108<346.55 413.129> 426 30<141.181 193.313>
VStem: 97 52<16.523 121.797> 197 52<322.599 425.781> 416 36<247.914 369.006>
DStem2: 117 186 165 109 0.394663 0.918826<-100.348 210.708>
AnchorPoint: "Bottom" 182 0 basechar 0
AnchorPoint: "Top" 306 508 basechar 0
LayerCount: 3
Fore
SplineSet
36 268 m 17xbc
 68 362 120 456 185 456 c 0xbc
 218 456 249 428 249 360 c 0
 249 331 240 284 229 258 c 2
 165 109 l 2
 160 98 149 68 149 50 c 0
 149 24 159 12 190 12 c 0
 324 12 416 220 416 310 c 0
 416 339 399 345 386 348 c 0
 366 352 332 370 332 406 c 0
 332 437 352 456 381 456 c 0xdc
 435 456 452 394 452 344 c 0
 452 262 374 -12 178 -12 c 0
 139 -12 97 20 97 84 c 0
 97 113 107 163 117 186 c 2
 181 335 l 2
 186 346 197 376 197 394 c 0
 197 411 190 426 174 426 c 0
 122 426 75 314 56 262 c 9
 36 268 l 17xbc
EndSplineSet
Layer: 2
SplineSet
36 268 m 1,0,1
 54 319 54 319 74.5 359 c 128,-1,2
 95 399 95 399 124.5 427.5 c 128,-1,3
 154 456 154 456 185 456 c 0,4,5
 212 456 212 456 230.5 432 c 128,-1,6
 249 408 249 408 249 360 c 0,7,8
 249 338 249 338 243 308 c 128,-1,9
 237 278 237 278 229 258 c 2,10,-1
 165 109 l 2,11,12
 149 74 149 74 149 50 c 0,13,14
 149 30 149 30 158.5 21 c 128,-1,15
 168 12 168 12 190 12 c 0,16,17
 228 12 228 12 264.5 34 c 128,-1,18
 301 56 301 56 327.5 91 c 128,-1,19
 354 126 354 126 375 166 c 128,-1,20
 396 206 396 206 406 244 c 128,-1,21
 416 282 416 282 416 310 c 0,22,23
 416 330 416 330 408 337.5 c 128,-1,24
 400 345 400 345 386 348 c 0,25,26
 366 352 366 352 349 367 c 128,-1,27
 332 382 332 382 332 406 c 0,28,29
 332 429 332 429 345.5 442.5 c 128,-1,30
 359 456 359 456 381 456 c 0,31,32
 406 456 406 456 423 438 c 128,-1,33
 440 420 440 420 446 396 c 128,-1,34
 452 372 452 372 452 344 c 0,35,36
 452 326 452 326 447 299 c 128,-1,37
 442 272 442 272 431.5 238 c 128,-1,38
 421 204 421 204 406 169.5 c 128,-1,39
 391 135 391 135 368 102.5 c 128,-1,40
 345 70 345 70 318 44.5 c 128,-1,41
 291 19 291 19 254.5 3.5 c 128,-1,42
 218 -12 218 -12 178 -12 c 0,43,44
 146 -12 146 -12 121.5 13.5 c 128,-1,45
 97 39 97 39 97 84 c 0,46,47
 97 106 97 106 103.5 137 c 128,-1,48
 110 168 110 168 117 186 c 2,49,-1
 181 335 l 2,50,51
 197 370 197 370 197 394 c 0,52,53
 197 408 197 408 191.5 417 c 128,-1,54
 186 426 186 426 174 426 c 0,55,56
 156 426 156 426 137 408.5 c 128,-1,57
 118 391 118 391 102 362.5 c 128,-1,58
 86 334 86 334 75.5 310.5 c 128,-1,59
 65 287 65 287 56 262 c 1,60,-1
 36 268 l 1,0,1
EndSplineSet
EndChar

StartChar: w
Encoding: 119 119 87
Width: 716
Flags: W
TeX: 119 0
HStem: -12 24<156.129 217.12 408.41 485.015> 348 108<590.55 657.129> 426 30<141.181 193.313>
VStem: 97 52<13.5128 121.797> 197 52<322.599 425.781> 343 58<14.2316 149.612> 660 36<247.914 369.156>
DStem2: 117 186 165 109 0.394663 0.918826<-100.348 210.708> 309.344 -12 376.397 -12 0.262189 0.965016<97.0228 162.692 177.847 472.731>
AnchorPoint: "Bottom" 324 0 basechar 0
AnchorPoint: "Top" 456 508 basechar 0
LayerCount: 3
Fore
SplineSet
36 268 m 17xbe
 68 362 120 456 185 456 c 0xbe
 218 456 249 428 249 360 c 0
 249 331 240 284 229 258 c 2
 165 109 l 2
 160 98 149 68 149 50 c 0
 149 24 160 12 184 12 c 0
 262 12 368 202 402 324 c 2
 434 444 l 1
 500 444 l 9
 409 108 l 18
 403 85 401 60 401 46 c 0
 401 30 411 12 434 12 c 0
 568 12 660 220 660 310 c 0
 660 339 645 345 630 348 c 0
 610 352 576 370 576 406 c 0
 576 437 596 456 625 456 c 0xde
 679 456 696 394 696 344 c 0
 696 262 618 -12 422 -12 c 0
 380 -12 343 10 343 78 c 0
 343 108 346 123 352 145 c 1
 346 147 l 1
 307 68 237 -12 174 -12 c 0
 132 -12 97 20 97 84 c 0
 97 113 107 163 117 186 c 2
 181 335 l 2
 186 346 197 376 197 394 c 0
 197 411 190 426 174 426 c 0
 122 426 75 314 56 262 c 9
 36 268 l 17xbe
EndSplineSet
Layer: 2
SplineSet
36 268 m 1,0,1
 54 319 54 319 74.5 359 c 128,-1,2
 95 399 95 399 124.5 427.5 c 128,-1,3
 154 456 154 456 185 456 c 0,4,5
 212 456 212 456 230.5 432 c 128,-1,6
 249 408 249 408 249 360 c 0,7,8
 249 338 249 338 243 308 c 128,-1,9
 237 278 237 278 229 258 c 2,10,-1
 165 109 l 2,11,12
 149 74 149 74 149 50 c 0,13,14
 149 12 149 12 184 12 c 0,15,16
 212 12 212 12 246 43.5 c 128,-1,17
 280 75 280 75 310 122.5 c 128,-1,18
 340 170 340 170 364.5 224 c 128,-1,19
 389 278 389 278 402 324 c 2,20,-1
 434 444 l 1,21,-1
 500 444 l 1,22,-1
 409 108 l 2,23,24
 401 78 401 78 401 46 c 0,25,26
 401 32 401 32 409.5 22 c 128,-1,27
 418 12 418 12 434 12 c 0,28,29
 472 12 472 12 508.5 34 c 128,-1,30
 545 56 545 56 571.5 91 c 128,-1,31
 598 126 598 126 619 166 c 128,-1,32
 640 206 640 206 650 244 c 128,-1,33
 660 282 660 282 660 310 c 0,34,35
 660 330 660 330 652 337.5 c 128,-1,36
 644 345 644 345 630 348 c 0,37,38
 610 352 610 352 593 367 c 128,-1,39
 576 382 576 382 576 406 c 0,40,41
 576 429 576 429 589.5 442.5 c 128,-1,42
 603 456 603 456 625 456 c 0,43,44
 650 456 650 456 667 438 c 128,-1,45
 684 420 684 420 690 396 c 128,-1,46
 696 372 696 372 696 344 c 0,47,48
 696 326 696 326 691 299 c 128,-1,49
 686 272 686 272 675.5 238 c 128,-1,50
 665 204 665 204 650 169.5 c 128,-1,51
 635 135 635 135 612 102.5 c 128,-1,52
 589 70 589 70 562 44.5 c 128,-1,53
 535 19 535 19 498.5 3.5 c 128,-1,54
 462 -12 462 -12 422 -12 c 0,55,56
 387 -12 387 -12 365 9 c 128,-1,57
 343 30 343 30 343 78 c 0,58,59
 343 112 343 112 352 145 c 1,60,-1
 346 147 l 1,61,62
 314 82 314 82 266 35 c 128,-1,63
 218 -12 218 -12 174 -12 c 0,64,65
 141 -12 141 -12 119 13 c 128,-1,66
 97 38 97 38 97 84 c 0,67,68
 97 106 97 106 103.5 137 c 128,-1,69
 110 168 110 168 117 186 c 2,70,-1
 181 335 l 2,71,72
 197 370 197 370 197 394 c 0,73,74
 197 408 197 408 191.5 417 c 128,-1,75
 186 426 186 426 174 426 c 0,76,77
 156 426 156 426 137 408.5 c 128,-1,78
 118 391 118 391 102 362.5 c 128,-1,79
 86 334 86 334 75.5 310.5 c 128,-1,80
 65 287 65 287 56 262 c 1,81,-1
 36 268 l 1,0,1
EndSplineSet
EndChar

StartChar: x
Encoding: 120 120 88
Width: 564
VWidth: 959
Flags: W
TeX: 120 0
HStem: -12 24<79.6419 140.297 311.985 382.978> 432 24<186.022 257.015 428.802 489.358>
VStem: 25 54<12.1461 68.5> 490 54<375.5 431.854>
DStem2: 185.857 -12 255.986 -12 0.262189 0.965016<121.112 382.243>
AnchorPoint: "Bottom" 230 0 basechar 0
AnchorPoint: "Top" 362 508 basechar 0
LayerCount: 3
Fore
SplineSet
25 59 m 0
 25 78 30 98 43 114 c 0
 53 127 69 138 89 138 c 0
 97 138 106 135 113 130 c 0
 121 124 127 113 127 98 c 0
 127 72 112 57 96 50 c 0
 83 44 79 41 79 28 c 0
 79 18 88 12 101 12 c 0
 169 12 217 102 244 202 c 2
 269 294 l 2
 277 323 277 346 277 360 c 0
 277 398 263 432 225 432 c 0
 169 432 111 354 84 289 c 1
 63 296 l 1
 92 368 152 456 233 456 c 0
 295 456 318 403 321 355 c 1
 325 353 l 1
 364 414 413 456 469 456 c 0
 492 456 516 446 526 434 c 0
 540 418 544 396 544 385 c 0
 544 366 539 346 526 330 c 0
 516 317 500 306 480 306 c 0
 472 306 463 309 456 314 c 0
 448 320 442 331 442 346 c 0
 442 369 454 382 471 390 c 0
 486 397 490 404 490 416 c 0
 490 426 481 432 468 432 c 0
 400 432 354 340 325 242 c 2
 300 150 l 2
 292 123 292 98 292 84 c 0
 292 46 306 12 344 12 c 0
 400 12 458 90 485 155 c 1
 506 148 l 1
 477 76 417 -12 336 -12 c 0
 274 -12 251 41 248 89 c 1
 244 91 l 1
 205 30 156 -12 100 -12 c 0
 77 -12 53 -2 43 10 c 0
 29 26 25 48 25 59 c 0
EndSplineSet
Layer: 2
SplineSet
25 59 m 0,0,1
 25 92 25 92 43 114 c 0,2,3
 62 138 62 138 89 138 c 0,4,5
 102 138 102 138 113 130 c 0,6,7
 127 120 127 120 127 98 c 0,8,9
 127 64 127 64 96 50 c 0,10,11
 86 45 86 45 82.5 41.5 c 128,-1,12
 79 38 79 38 79 28 c 0,13,14
 79 20 79 20 85 16 c 128,-1,15
 91 12 91 12 101 12 c 0,16,17
 148 12 148 12 185 65.5 c 128,-1,18
 222 119 222 119 244 202 c 2,19,-1
 269 294 l 2,20,21
 277 323 277 323 277 360 c 0,22,23
 277 392 277 392 264.5 412 c 128,-1,24
 252 432 252 432 225 432 c 0,25,26
 186 432 186 432 146.5 388 c 128,-1,27
 107 344 107 344 84 289 c 1,28,-1
 63 296 l 1,29,30
 74 325 74 325 90.5 351.5 c 128,-1,31
 107 378 107 378 128.5 402.5 c 128,-1,32
 150 427 150 427 177 441.5 c 128,-1,33
 204 456 204 456 233 456 c 0,34,35
 276 456 276 456 297 426.5 c 128,-1,36
 318 397 318 397 321 355 c 1,37,-1
 325 353 l 1,38,39
 391 456 391 456 469 456 c 0,40,41
 486 456 486 456 502 449.5 c 128,-1,42
 518 443 518 443 526 434 c 0,43,44
 544 414 544 414 544 385 c 0,45,46
 544 352 544 352 526 330 c 0,47,48
 508 306 508 306 480 306 c 0,49,50
 467 306 467 306 456 314 c 0,51,52
 442 324 442 324 442 346 c 0,53,54
 442 376 442 376 471 390 c 0,55,56
 482 395 482 395 486 400.5 c 128,-1,57
 490 406 490 406 490 416 c 0,58,59
 490 424 490 424 484 428 c 128,-1,60
 478 432 478 432 468 432 c 0,61,62
 444 432 444 432 421.5 416.5 c 128,-1,63
 399 401 399 401 381.5 373.5 c 128,-1,64
 364 346 364 346 350 314 c 128,-1,65
 336 282 336 282 325 242 c 2,66,-1
 300 150 l 2,67,68
 292 123 292 123 292 84 c 0,69,70
 292 52 292 52 305 32 c 128,-1,71
 318 12 318 12 344 12 c 0,72,73
 383 12 383 12 422.5 56 c 128,-1,74
 462 100 462 100 485 155 c 1,75,-1
 506 148 l 1,76,77
 494 119 494 119 478 92.5 c 128,-1,78
 462 66 462 66 441 41.5 c 128,-1,79
 420 17 420 17 392.5 2.5 c 128,-1,80
 365 -12 365 -12 336 -12 c 0,81,82
 294 -12 294 -12 272 17.5 c 128,-1,83
 250 47 250 47 248 89 c 1,84,-1
 244 91 l 1,85,86
 178 -12 178 -12 100 -12 c 0,87,88
 83 -12 83 -12 66.5 -5.5 c 128,-1,89
 50 1 50 1 43 10 c 0,90,91
 25 30 25 30 25 59 c 0,0,1
EndSplineSet
EndChar

StartChar: y
Encoding: 121 121 89
Width: 512
Flags: W
TeX: 121 0
HStem: -248 24<97.8086 192.749> -12 24<156.129 217.12> 426 30<141.181 193.313>
VStem: 24 66<-210.413 -125.742> 97 52<13.5128 121.797> 197 52<322.599 425.781>
DStem2: 117 186 165 109 0.394663 0.918826<-100.348 210.708> 245.967 -248 315.62 -248 0.262189 0.965016<133.856 407.052 429.287 717.354>
AnchorPoint: "Bottom" 156 -206 basechar 0
AnchorPoint: "Top" 348 508 basechar 0
LayerCount: 3
Fore
SplineSet
24 -150 m 0
 24 -110 52 -90 78 -90 c 0
 106 -90 118 -112 118 -130 c 0
 118 -148 109 -162 99 -170 c 0
 92 -176 90 -180 90 -192 c 0
 90 -210 101 -224 133 -224 c 0
 178 -224 208 -213 243 -170 c 0
 282 -122 300 -50 309 -16 c 2
 352 145 l 1
 346 147 l 1
 307 68 237 -12 174 -12 c 0
 132 -12 97 20 97 84 c 0
 97 113 107 163 117 186 c 2
 181 335 l 2
 186 346 197 376 197 394 c 0
 197 411 190 426 174 426 c 0
 122 426 75 314 56 262 c 9
 36 268 l 17
 68 362 120 456 185 456 c 0
 218 456 249 428 249 360 c 0
 249 331 240 284 229 258 c 2
 165 109 l 2
 160 98 149 68 149 50 c 0
 149 24 160 12 184 12 c 0
 262 12 368 202 402 324 c 2
 435 444 l 1
 501 444 l 9
 383 0 l 18
 371 -44 338 -129 283 -186 c 0
 237 -234 181 -248 144 -248 c 0
 74 -248 24 -212 24 -150 c 0
EndSplineSet
Layer: 2
SplineSet
24 -150 m 0,0,1
 24 -122 24 -122 40 -106 c 128,-1,2
 56 -90 56 -90 78 -90 c 0,3,4
 98 -90 98 -90 108 -102 c 128,-1,5
 118 -114 118 -114 118 -130 c 0,6,7
 118 -155 118 -155 99 -170 c 0,8,9
 90 -178 90 -178 90 -192 c 0,10,11
 90 -224 90 -224 133 -224 c 0,12,13
 168 -224 168 -224 193 -212.5 c 128,-1,14
 218 -201 218 -201 243 -170 c 0,15,16
 280 -124 280 -124 309 -16 c 2,17,-1
 352 145 l 1,18,-1
 346 147 l 1,19,20
 314 82 314 82 266 35 c 128,-1,21
 218 -12 218 -12 174 -12 c 0,22,23
 141 -12 141 -12 119 13 c 128,-1,24
 97 38 97 38 97 84 c 0,25,26
 97 106 97 106 103.5 137 c 128,-1,27
 110 168 110 168 117 186 c 2,28,-1
 181 335 l 2,29,30
 197 370 197 370 197 394 c 0,31,32
 197 408 197 408 191.5 417 c 128,-1,33
 186 426 186 426 174 426 c 0,34,35
 156 426 156 426 137 408.5 c 128,-1,36
 118 391 118 391 102 362.5 c 128,-1,37
 86 334 86 334 75.5 310.5 c 128,-1,38
 65 287 65 287 56 262 c 1,39,-1
 36 268 l 1,40,41
 54 319 54 319 74.5 359 c 128,-1,42
 95 399 95 399 124.5 427.5 c 128,-1,43
 154 456 154 456 185 456 c 0,44,45
 212 456 212 456 230.5 432 c 128,-1,46
 249 408 249 408 249 360 c 0,47,48
 249 338 249 338 243 308 c 128,-1,49
 237 278 237 278 229 258 c 2,50,-1
 165 109 l 2,51,52
 149 74 149 74 149 50 c 0,53,54
 149 12 149 12 184 12 c 0,55,56
 212 12 212 12 246 43.5 c 128,-1,57
 280 75 280 75 310 122.5 c 128,-1,58
 340 170 340 170 364.5 224 c 128,-1,59
 389 278 389 278 402 324 c 2,60,-1
 435 444 l 1,61,-1
 501 444 l 1,62,-1
 383 0 l 2,63,64
 372 -43 372 -43 346 -95.5 c 128,-1,65
 320 -148 320 -148 283 -186 c 0,66,67
 252 -219 252 -219 214.5 -233.5 c 128,-1,68
 177 -248 177 -248 144 -248 c 0,69,70
 90 -248 90 -248 57 -222 c 128,-1,71
 24 -196 24 -196 24 -150 c 0,0,1
EndSplineSet
EndChar

StartChar: z
Encoding: 122 122 90
Width: 440
Flags: W
TeX: 122 0
HStem: -12 64<162.434 294.662> 336 30<316.287 361.615> 384 72<161.512 250.304>
VStem: 26 34<17.5 75.7995> 78 16<289.938 303.235> 361 19<146.219 165.947> 369 41<352.002 421.29>
AnchorPoint: "Top" 294 508 basechar 0
AnchorPoint: "Bottom" 168 0 basechar 0
LayerCount: 3
Fore
SplineSet
26 30 m 0xfc
 26 132 122 206 197 237 c 0
 311 284 353 309 371 352 c 1
 371 352 369 355 369 356 c 1
 349 341 333 336 318 336 c 0
 286 336 268 349 251 362 c 0
 236 374 222 384 202 384 c 0
 136 384 108 322 94 286 c 1
 78 293 l 1
 92 344 140 456 216 456 c 0
 256 456 282 426 301 399 c 0
 315 381 327 366 340 366 c 0
 360 366 369 374 369 384 c 0
 369 390 368 394 360 398 c 0
 354 401 344 410 344 424 c 0
 344 441 352 456 372 456 c 0
 399 456 410 434 410 408 c 0xfa
 410 341 332 256 239 216 c 0
 105 159 81 143 73 107 c 1
 105 99 127 90 149 78 c 0
 178 63 205 52 244 52 c 0
 312 52 346 124 361 171 c 9
 380 163 l 17
 359 94 320 -12 233 -12 c 0
 177 -12 146 20 123 46 c 0
 108 63 95 76 81 76 c 0
 75 76 60 76 60 60 c 0
 60 50 69 46 75 44 c 0
 87 39 92 29 92 19 c 0
 92 4 84 -12 62 -12 c 0
 41 -12 26 5 26 30 c 0xfc
EndSplineSet
Layer: 2
SplineSet
26 30 m 0,0,1
 26 66 26 66 42 100 c 128,-1,2
 58 134 58 134 84 160 c 128,-1,3
 110 186 110 186 138.5 205 c 128,-1,4
 167 224 167 224 197 237 c 0,5,6
 285 273 285 273 321.5 296.5 c 128,-1,7
 358 320 358 320 371 352 c 1,8,9
 369 355 369 355 369 356 c 1,10,11
 342 336 342 336 318 336 c 0,12,13
 303 336 303 336 289.5 340 c 128,-1,14
 276 344 276 344 269 349 c 128,-1,15
 262 354 262 354 251 362 c 0,16,17
 224 384 224 384 202 384 c 0,18,19
 178 384 178 384 159.5 374.5 c 128,-1,20
 141 365 141 365 128 347.5 c 128,-1,21
 115 330 115 330 108 317 c 128,-1,22
 101 304 101 304 94 286 c 1,23,-1
 78 293 l 1,24,25
 84 316 84 316 95 341 c 128,-1,26
 106 366 106 366 123 393 c 128,-1,27
 140 420 140 420 165 438 c 128,-1,28
 190 456 190 456 216 456 c 0,29,30
 261 456 261 456 301 399 c 0,31,32
 314 382 314 382 322.5 374 c 128,-1,33
 331 366 331 366 340 366 c 0,34,35
 369 366 369 366 369 384 c 0,36,37
 369 394 369 394 360 398 c 0,38,39
 344 406 344 406 344 424 c 0,40,41
 344 438 344 438 351 447 c 128,-1,42
 358 456 358 456 372 456 c 0,43,44
 391 456 391 456 400.5 442.5 c 128,-1,45
 410 429 410 429 410 408 c 0,46,47
 410 358 410 358 360 302 c 128,-1,48
 310 246 310 246 239 216 c 0,49,50
 138 174 138 174 108.5 154 c 128,-1,51
 79 134 79 134 73 107 c 1,52,53
 115 96 115 96 149 78 c 0,54,55
 200 52 200 52 244 52 c 0,56,57
 268 52 268 52 288.5 63.5 c 128,-1,58
 309 75 309 75 322.5 94.5 c 128,-1,59
 336 114 336 114 345 132 c 128,-1,60
 354 150 354 150 361 171 c 1,61,-1
 380 163 l 1,62,63
 372 138 372 138 365 118 c 128,-1,64
 358 98 358 98 344.5 72 c 128,-1,65
 331 46 331 46 316.5 29 c 128,-1,66
 302 12 302 12 280 0 c 128,-1,67
 258 -12 258 -12 233 -12 c 0,68,69
 207 -12 207 -12 184.5 -2 c 128,-1,70
 162 8 162 8 150 18.5 c 128,-1,71
 138 29 138 29 123 46 c 0,72,73
 96 76 96 76 81 76 c 0,74,75
 60 76 60 76 60 60 c 0,76,77
 60 49 60 49 75 44 c 0,78,79
 92 37 92 37 92 19 c 0,80,81
 92 6 92 6 85 -3 c 128,-1,82
 78 -12 78 -12 62 -12 c 128,-1,83
 46 -12 46 -12 36 0 c 128,-1,84
 26 12 26 12 26 30 c 0,0,1
EndSplineSet
EndChar

StartChar: braceleft
Encoding: 123 123 91
Width: 420
Flags: W
TeX: 98 0
HStem: 258 18<125 182.028> 706 24<437.77 467.75>
VStem: 106 48<-138.053 -29.7619> 208 48<130.665 238.422> 260 74<373.682 587.806>
LayerCount: 3
Fore
SplineSet
106 -71 m 0
 106 24 208 127 208 207 c 0
 208 250 172 258 120 258 c 9
 125 276 l 17
 197 276 260 286 260 425 c 2
 260 473 l 2
 260 626 341 692 466 730 c 9
 472 706 l 17
 373 675 337 654 334 536 c 2
 334 475 l 2
 331 398 305 301 194 268 c 1
 193 266 l 1
 224 255 256 229 256 174 c 0
 256 71 154 -28 154 -99 c 0
 154 -139 192 -156 234 -172 c 9
 215 -196 l 17
 145 -171 106 -130 106 -71 c 0
EndSplineSet
Layer: 2
SplineSet
106 -71 m 0,0,1
 106 -39 106 -39 122 1.5 c 128,-1,2
 138 42 138 42 157 74 c 128,-1,3
 176 106 176 106 192 143 c 128,-1,4
 208 180 208 180 208 207 c 0,5,6
 208 237 208 237 186 247.5 c 128,-1,7
 164 258 164 258 120 258 c 1,8,-1
 125 276 l 1,9,10
 146 276 146 276 160 277.5 c 128,-1,11
 174 279 174 279 191.5 283.5 c 128,-1,12
 209 288 209 288 220 298 c 128,-1,13
 231 308 231 308 240.5 324 c 128,-1,14
 250 340 250 340 255 365.5 c 128,-1,15
 260 391 260 391 260 425 c 2,16,-1
 260 473 l 2,17,18
 260 529 260 529 274 572 c 128,-1,19
 288 615 288 615 316 645 c 128,-1,20
 344 675 344 675 380 695 c 128,-1,21
 416 715 416 715 466 730 c 1,22,-1
 472 706 l 1,23,24
 444 698 444 698 427 691 c 128,-1,25
 410 684 410 684 393 674 c 128,-1,26
 376 664 376 664 367 653 c 128,-1,27
 358 642 358 642 350 625.5 c 128,-1,28
 342 609 342 609 338.5 587.5 c 128,-1,29
 335 566 335 566 334 536 c 2,30,-1
 334 475 l 2,31,32
 328 308 328 308 194 268 c 1,33,-1
 193 266 l 1,34,35
 256 244 256 244 256 174 c 0,36,37
 256 140 256 140 240 98 c 128,-1,38
 224 56 224 56 205 25 c 128,-1,39
 186 -6 186 -6 170 -41 c 128,-1,40
 154 -76 154 -76 154 -99 c 0,41,42
 154 -114 154 -114 160 -125 c 128,-1,43
 166 -136 166 -136 179 -145 c 128,-1,44
 192 -154 192 -154 203.5 -159.5 c 128,-1,45
 215 -165 215 -165 234 -172 c 1,46,-1
 215 -196 l 1,47,48
 106 -157 106 -157 106 -71 c 0,0,1
EndSplineSet
EndChar

StartChar: bar
Encoding: 124 124 92
Width: 284
Flags: W
TeX: 98 0
HStem: 710 20G<144 188>
VStem: 144 44<-198 730>
LayerCount: 3
Fore
SplineSet
144 -198 m 25
 144 730 l 25
 188 730 l 25
 188 -198 l 25
 144 -198 l 25
EndSplineSet
Layer: 2
SplineSet
144 -198 m 1,0,-1
 144 730 l 1,1,-1
 188 730 l 1,2,-1
 188 -198 l 1,3,-1
 144 -198 l 1,0,-1
EndSplineSet
EndChar

StartChar: braceright
Encoding: 125 125 93
Width: 420
Flags: W
TeX: 98 0
HStem: -196 24<-3.75 26.2305> 258 18<281.972 339> 710 20G<233.167 284>
VStem: 130 74<-53.8062 160.318> 208 48<295.578 403.335> 310 48<563.762 672.053>
LayerCount: 3
Fore
SplineSet
-8 -172 m 17
 91 -141 127 -120 130 -2 c 2
 130 59 l 2
 133 136 159 233 270 266 c 1
 271 268 l 1
 240 279 208 305 208 360 c 0
 208 463 310 562 310 633 c 0
 310 673 272 690 230 706 c 9
 249 730 l 17
 319 705 358 664 358 605 c 0
 358 510 256 407 256 327 c 0
 256 284 292 276 344 276 c 9
 339 258 l 17
 267 258 204 248 204 109 c 2
 204 61 l 2
 204 -92 123 -158 -2 -196 c 9
 -8 -172 l 17
EndSplineSet
Layer: 2
SplineSet
-8 -172 m 1,0,1
 20 -164 20 -164 37 -157 c 128,-1,2
 54 -150 54 -150 71 -140 c 128,-1,3
 88 -130 88 -130 97 -119 c 128,-1,4
 106 -108 106 -108 114 -91.5 c 128,-1,5
 122 -75 122 -75 125.5 -53.5 c 128,-1,6
 129 -32 129 -32 130 -2 c 2,7,-1
 130 59 l 2,8,9
 136 226 136 226 270 266 c 1,10,-1
 271 268 l 1,11,12
 208 290 208 290 208 360 c 0,13,14
 208 394 208 394 224 436 c 128,-1,15
 240 478 240 478 259 509 c 128,-1,16
 278 540 278 540 294 575 c 128,-1,17
 310 610 310 610 310 633 c 0,18,19
 310 648 310 648 304 659 c 128,-1,20
 298 670 298 670 285 679 c 128,-1,21
 272 688 272 688 260.5 693.5 c 128,-1,22
 249 699 249 699 230 706 c 1,23,-1
 249 730 l 1,24,25
 358 691 358 691 358 605 c 0,26,27
 358 573 358 573 342 532.5 c 128,-1,28
 326 492 326 492 307 460 c 128,-1,29
 288 428 288 428 272 391 c 128,-1,30
 256 354 256 354 256 327 c 0,31,32
 256 297 256 297 278 286.5 c 128,-1,33
 300 276 300 276 344 276 c 1,34,-1
 339 258 l 1,35,36
 318 258 318 258 304 256.5 c 128,-1,37
 290 255 290 255 272.5 250.5 c 128,-1,38
 255 246 255 246 244 236 c 128,-1,39
 233 226 233 226 223.5 210 c 128,-1,40
 214 194 214 194 209 168.5 c 128,-1,41
 204 143 204 143 204 109 c 2,42,-1
 204 61 l 2,43,44
 204 5 204 5 190 -38 c 128,-1,45
 176 -81 176 -81 148 -111 c 128,-1,46
 120 -141 120 -141 84 -161 c 128,-1,47
 48 -181 48 -181 -2 -196 c 1,48,-1
 -8 -172 l 1,0,1
EndSplineSet
EndChar

StartChar: asciitilde
Encoding: 126 126 94
Width: 660
Flags: W
TeX: 97 0
HStem: 170 62<463.115 584.243> 290 62<99.7566 219.556>
VStem: 60 34<201.963 280.939> 590 34<241.061 320.037>
LayerCount: 3
Fore
SplineSet
60 253 m 0
 60 301 97 352 174 352 c 0
 237 352 312 319 382 288 c 0
 446 259 506 232 550 232 c 0
 570 232 590 249 590 278 c 0
 590 308 573 325 548 338 c 9
 560 359 l 17
 602 340 624 307 624 269 c 0
 624 221 587 170 510 170 c 0
 446 170 372 203 302 234 c 0
 240 261 177 290 134 290 c 0
 114 290 94 273 94 244 c 0
 94 214 111 197 136 184 c 9
 124 163 l 17
 82 182 60 215 60 253 c 0
EndSplineSet
Layer: 2
SplineSet
60 253 m 0,0,1
 60 292 60 292 90 322 c 128,-1,2
 120 352 120 352 174 352 c 0,3,4
 204 352 204 352 243 341 c 128,-1,5
 282 330 282 330 309 319 c 128,-1,6
 336 308 336 308 382 288 c 0,7,8
 424 269 424 269 446.5 259.5 c 128,-1,9
 469 250 469 250 499.5 241 c 128,-1,10
 530 232 530 232 550 232 c 0,11,12
 566 232 566 232 578 244.5 c 128,-1,13
 590 257 590 257 590 278 c 0,14,15
 590 316 590 316 548 338 c 1,16,-1
 560 359 l 1,17,18
 591 345 591 345 607.5 321.5 c 128,-1,19
 624 298 624 298 624 269 c 0,20,21
 624 230 624 230 594 200 c 128,-1,22
 564 170 564 170 510 170 c 0,23,24
 480 170 480 170 440.5 181 c 128,-1,25
 401 192 401 192 375.5 202.5 c 128,-1,26
 350 213 350 213 302 234 c 0,27,28
 210 274 210 274 178 283 c 0,29,30
 152 290 152 290 134 290 c 0,31,32
 118 290 118 290 106 277.5 c 128,-1,33
 94 265 94 265 94 244 c 0,34,35
 94 206 94 206 136 184 c 1,36,-1
 124 163 l 1,37,38
 93 177 93 177 76.5 200.5 c 128,-1,39
 60 224 60 224 60 253 c 0,0,1
EndSplineSet
EndChar

StartChar: exclamdown
Encoding: 161 161 96
Width: 280
Flags: W
TeX: 101 0
HStem: -248 21G<30.5 62> 334 124<155.59 252.41>
VStem: -4 122<-226.789 -95.0818> 142 124<347.59 444.41>
LayerCount: 3
Fore
SplineSet
142 396 m 0
 142 432 168 458 204 458 c 0
 240 458 266 432 266 396 c 0
 266 360 240 334 204 334 c 0
 168 334 142 360 142 396 c 0
-4 -178 m 0
 -4 -142 24 -76 54 -8 c 0
 70 29 86 66 98 100 c 10
 168 288 l 25
 192 288 l 25
 156 85 l 18
 148 41 141 -8 137 -47 c 0
 132 -92 126 -136 118 -178 c 0
 107 -234 76 -248 48 -248 c 0
 13 -248 -4 -221 -4 -178 c 0
EndSplineSet
Layer: 2
SplineSet
142 396 m 128,-1,1
 142 423 142 423 159.5 440.5 c 128,-1,2
 177 458 177 458 204 458 c 128,-1,3
 231 458 231 458 248.5 440.5 c 128,-1,4
 266 423 266 423 266 396 c 128,-1,5
 266 369 266 369 248.5 351.5 c 128,-1,6
 231 334 231 334 204 334 c 128,-1,7
 177 334 177 334 159.5 351.5 c 128,-1,0
 142 369 142 369 142 396 c 128,-1,1
-4 -178 m 0,8,9
 -4 -140 -4 -140 54 -8 c 0,10,11
 86 66 86 66 98 100 c 2,12,-1
 168 288 l 1,13,-1
 192 288 l 1,14,-1
 156 85 l 2,15,16
 144 16 144 16 137 -47 c 0,17,18
 128 -122 128 -122 118 -178 c 0,19,20
 104 -248 104 -248 48 -248 c 0,21,22
 22 -248 22 -248 9 -229.5 c 128,-1,23
 -4 -211 -4 -211 -4 -178 c 0,8,9
EndSplineSet
EndChar

StartChar: cent
Encoding: 162 162 97
Width: 580
VWidth: 959
Flags: W
TeX: 99 0
HStem: -12 24<268 330.088> 432 24<330.103 358 390 424.188>
VStem: 136 72<62.3878 242.512> 437 53<336 418.643>
DStem2: 208 -120 232 -120 0.262189 0.965016<6.29254 116.21 143.135 572.017 603.568 721.467>
LayerCount: 3
Fore
SplineSet
136 158 m 0
 136 198 143 295 224 381 c 0
 267 427 309 453 365 456 c 1
 398 576 l 1
 422 576 l 1
 390 456 l 1
 434 456 490 422 490 356 c 0
 490 316 464 286 433 286 c 0
 406 286 394 304 394 321 c 0
 394 342 411 359 426 370 c 0
 436 378 437 386 437 393 c 0
 437 415 419 432 383 432 c 1
 268 12 l 1
 270 12 273 12 275 12 c 0
 345 12 399 65 429 126 c 1
 450 119 l 1
 424 64 365 -12 270 -12 c 0
 267 -12 264 -12 262 -12 c 1
 232 -120 l 1
 208 -120 l 1
 239 -8 l 1
 174 9 136 79 136 158 c 0
208 98 m 0
 208 59 221 30 246 18 c 1
 358 432 l 1
 345 432 320 419 298 392 c 0
 275 364 253 319 234 258 c 0
 210 181 208 130 208 98 c 0
EndSplineSet
Layer: 2
SplineSet
136 158 m 0,0,1
 136 288 136 288 224 381 c 0,2,3
 258 417 258 417 291 435.5 c 128,-1,4
 324 454 324 454 365 456 c 1,5,-1
 398 576 l 1,6,-1
 422 576 l 1,7,-1
 390 456 l 1,8,9
 427 456 427 456 458.5 429 c 128,-1,10
 490 402 490 402 490 356 c 0,11,12
 490 326 490 326 473 306 c 128,-1,13
 456 286 456 286 433 286 c 0,14,15
 414 286 414 286 404 296.5 c 128,-1,16
 394 307 394 307 394 321 c 0,17,18
 394 346 394 346 426 370 c 0,19,20
 437 379 437 379 437 393 c 0,21,22
 437 410 437 410 423 421 c 128,-1,23
 409 432 409 432 383 432 c 1,24,-1
 268 12 l 1,25,-1
 275 12 l 2,26,27
 324 12 324 12 364 44 c 128,-1,28
 404 76 404 76 429 126 c 1,29,-1
 450 119 l 1,30,31
 439 96 439 96 423.5 75 c 128,-1,32
 408 54 408 54 386 33 c 128,-1,33
 364 12 364 12 334 0 c 128,-1,34
 304 -12 304 -12 270 -12 c 2,35,-1
 262 -12 l 1,36,-1
 232 -120 l 1,37,-1
 208 -120 l 1,38,-1
 239 -8 l 1,39,40
 192 4 192 4 164 50.5 c 128,-1,41
 136 97 136 97 136 158 c 0,0,1
208 98 m 0,42,43
 208 36 208 36 246 18 c 1,44,-1
 358 432 l 1,45,46
 347 432 347 432 330.5 421.5 c 128,-1,47
 314 411 314 411 298 392 c 0,48,49
 262 348 262 348 234 258 c 0,50,51
 208 174 208 174 208 98 c 0,42,43
EndSplineSet
EndChar

StartChar: sterling
Encoding: 163 163 98
Width: 720
VWidth: 1080
Flags: W
TeX: 115 0
HStem: -16 68<352.634 531.021> -16 24<4.6859 113.039> 102 34<28.6124 156.862> 294 28<376.862 553.433> 328 28<126.877 289.295> 510 82<592.298 659.741> 678 22<521.859 622.037>
VStem: -32 28<15.9659 76.7102> 290 78<245.236 305> 297 79<347 421.73> 656 20<192.616 221.1> 660 36<563 648.126>
LayerCount: 3
Fore
SplineSet
-32 41 m 0x7fa0
 -32 105 45 136 112 136 c 0
 150 136 186 130 219 121 c 1
 252 179 273 251 290 320 c 1x7fa0
 261 324 232 328 200 328 c 0
 156 328 138 320 108 306 c 1
 100 328 l 1
 120 342 156 356 200 356 c 0
 236 356 267 352 297 347 c 1
 331 480 405 700 574 700 c 0
 672 700 696 624 696 588 c 0
 696 538 662 510 630 510 c 0
 606 510 569 521 569 561 c 0
 569 590 592 600 606 600 c 0
 612 600 620 599 626 596 c 0
 634 592 640 592 644 592 c 0
 654 592 660 595 660 609 c 0
 660 638 639 678 573 678 c 0
 451 678 415 520 392 400 c 0
 388 376 382 351 376 332 c 1x7f50
 408 326 441 322 480 322 c 0
 524 322 549 332 572 344 c 1
 580 322 l 1
 563 309 524 294 480 294 c 0
 439 294 403 299 368 305 c 1
 343 225 308 157 267 106 c 1
 284 100 300 94 317 87 c 0
 365 68 408 52 448 52 c 0
 583 52 638 144 656 225 c 1
 676 219 l 1
 666 166 640 89 590 45 c 0
 543 3 500 -16 417 -16 c 0xbfa0
 359 -16 305 12 250 42 c 0
 221 57 l 1
 169 9 109 -16 48 -16 c 0
 11 -16 -32 0 -32 41 c 0x7fa0
-4 43 m 0
 -4 9 30 8 52 8 c 0
 109 8 153 34 187 73 c 1
 149 90 110 102 68 102 c 0
 34 102 -4 79 -4 43 c 0
EndSplineSet
Layer: 2
SplineSet
-32 41 m 0,0,1
 -32 72 -32 72 -9.5 94 c 128,-1,2
 13 116 13 116 45 126 c 128,-1,3
 77 136 77 136 112 136 c 0,4,5
 164 136 164 136 219 121 c 1,6,7
 258 189 258 189 290 320 c 1,8,9
 232 328 232 328 200 328 c 0,10,11
 170 328 170 328 152 323 c 128,-1,12
 134 318 134 318 108 306 c 1,13,-1
 100 328 l 1,14,15
 140 356 140 356 200 356 c 0,16,17
 243 356 243 356 297 347 c 1,18,19
 387 700 387 700 574 700 c 0,20,21
 602 700 602 700 624 692 c 128,-1,22
 646 684 646 684 659 671 c 128,-1,23
 672 658 672 658 681 642.5 c 128,-1,24
 690 627 690 627 693 613.5 c 128,-1,25
 696 600 696 600 696 588 c 0,26,27
 696 552 696 552 676 531 c 128,-1,28
 656 510 656 510 630 510 c 0,29,30
 607 510 607 510 588 522 c 128,-1,31
 569 534 569 534 569 561 c 0,32,33
 569 580 569 580 581 590 c 128,-1,34
 593 600 593 600 606 600 c 0,35,36
 618 600 618 600 626 596 c 128,-1,37
 634 592 634 592 644 592 c 0,38,39
 652 592 652 592 656 595.5 c 128,-1,40
 660 599 660 599 660 609 c 0,41,42
 660 636 660 636 639 657 c 128,-1,43
 618 678 618 678 573 678 c 0,44,45
 548 678 548 678 526 668.5 c 128,-1,46
 504 659 504 659 488 644.5 c 128,-1,47
 472 630 472 630 458 606 c 128,-1,48
 444 582 444 582 435 560 c 128,-1,49
 426 538 426 538 417 507 c 128,-1,50
 408 476 408 476 403 454 c 128,-1,51
 398 432 398 432 392 400 c 0,52,53
 386 364 386 364 376 332 c 1,54,55
 430 322 430 322 480 322 c 128,-1,56
 530 322 530 322 572 344 c 1,57,-1
 580 322 l 1,58,59
 566 311 566 311 538 302.5 c 128,-1,60
 510 294 510 294 480 294 c 0,61,62
 432 294 432 294 368 305 c 1,63,64
 330 185 330 185 267 106 c 1,65,66
 294 96 294 96 317 87 c 0,67,68
 362 70 362 70 391.5 61 c 128,-1,69
 421 52 421 52 448 52 c 0,70,71
 487 52 487 52 519.5 62.5 c 128,-1,72
 552 73 552 73 574 89.5 c 128,-1,73
 596 106 596 106 613.5 129 c 128,-1,74
 631 152 631 152 640.5 175.5 c 128,-1,75
 650 199 650 199 656 225 c 1,76,-1
 676 219 l 1,77,78
 667 171 667 171 645.5 123 c 128,-1,79
 624 75 624 75 590 45 c 0,80,81
 554 12 554 12 515.5 -2 c 128,-1,82
 477 -16 477 -16 417 -16 c 0,83,84
 390 -16 390 -16 359 -7 c 128,-1,85
 328 2 328 2 306 12.5 c 128,-1,86
 284 23 284 23 250 42 c 2,87,-1
 221 57 l 1,88,89
 142 -16 142 -16 48 -16 c 0,90,91
 16 -16 16 -16 -8 -2 c 128,-1,92
 -32 12 -32 12 -32 41 c 0,0,1
-4 43 m 0,93,94
 -4 31 -4 31 1 23.5 c 128,-1,95
 6 16 6 16 16 13 c 128,-1,96
 26 10 26 10 33.5 9 c 128,-1,97
 41 8 41 8 52 8 c 0,98,99
 130 8 130 8 187 73 c 1,100,101
 122 102 122 102 68 102 c 0,102,103
 40 102 40 102 18 85 c 128,-1,104
 -4 68 -4 68 -4 43 c 0,93,94
EndSplineSet
EndChar

StartChar: currency
Encoding: 164 164 99
Width: 580
Flags: W
TeX: 99 0
HStem: 122 40<233.82 402.18> 524 40<233.82 402.18>
VStem: 98 40<257.046 427.474> 498 40<257.046 427.474>
DStem2: 111 581 80 550 0.707107 -0.707107<0 97.8053 531.52 629.325> 80 136 111 105 0.707107 0.707107<0 97.8053 531.52 629.325>
LayerCount: 3
Fore
SplineSet
138 342 m 0
 138 238 214 162 318 162 c 0
 422 162 498 238 498 342 c 0
 498 446 422 524 318 524 c 0
 214 524 138 446 138 342 c 0
80 136 m 1
 147 203 l 1
 116 241 98 289 98 342 c 0
 98 395 117 444 148 482 c 1
 80 550 l 1
 111 581 l 1
 178 514 l 1
 216 545 265 564 318 564 c 0
 371 564 420 545 458 514 c 1
 525 581 l 1
 556 550 l 1
 488 482 l 1
 519 444 538 395 538 342 c 0
 538 289 520 241 489 203 c 1
 556 136 l 1
 525 105 l 1
 458 172 l 1
 420 141 371 122 318 122 c 0
 265 122 216 141 178 172 c 1
 111 105 l 1
 80 136 l 1
EndSplineSet
Layer: 2
SplineSet
138 342 m 128,-1,1
 138 264 138 264 189 213 c 128,-1,2
 240 162 240 162 318 162 c 128,-1,3
 396 162 396 162 447 213 c 128,-1,4
 498 264 498 264 498 342 c 128,-1,5
 498 420 498 420 447 472 c 128,-1,6
 396 524 396 524 318 524 c 128,-1,7
 240 524 240 524 189 472 c 128,-1,0
 138 420 138 420 138 342 c 128,-1,1
80 136 m 1,8,-1
 147 203 l 1,9,10
 98 263 98 263 98 342 c 0,11,12
 98 420 98 420 148 482 c 1,13,-1
 80 550 l 1,14,-1
 111 581 l 1,15,-1
 178 514 l 1,16,17
 240 564 240 564 318 564 c 128,-1,18
 396 564 396 564 458 514 c 1,19,-1
 525 581 l 1,20,-1
 556 550 l 1,21,-1
 488 482 l 1,22,23
 538 420 538 420 538 342 c 0,24,25
 538 263 538 263 489 203 c 1,26,-1
 556 136 l 1,27,-1
 525 105 l 1,28,-1
 458 172 l 1,29,30
 396 122 396 122 318 122 c 128,-1,31
 240 122 240 122 178 172 c 1,32,-1
 111 105 l 1,33,-1
 80 136 l 1,8,-1
EndSplineSet
EndChar

StartChar: yen
Encoding: 165 165 100
Width: 580
VWidth: 1080
Flags: W
TeX: 121 0
HStem: 0 32<73 179.094 270.646 360> 206 32<93 224 321 452> 298 32<118 249 346 477> 652 32<102 182.632 281.315 353 458 518 603.875 681>
DStem2: 167.698 0 255.698 0 0.262189 0.965016<62.4563 213.555 269.868 308.891> 335 358 252 330 0.214006 -0.976832<-292.824 0> 335 358 346 330 0.636212 0.771515<0 311.989>
LayerCount: 3
Fore
SplineSet
64 0 m 1
 73 32 l 1
 149 32 l 2
 168 32 179 41 184 60 c 2
 224 206 l 1
 84 206 l 1
 93 238 l 1
 233 238 l 1
 249 298 l 1
 109 298 l 1
 118 330 l 1
 252 330 l 1
 190 613 l 2
 185 634 180 652 156 652 c 2
 93 652 l 1
 102 684 l 1
 362 684 l 1
 353 652 l 1
 312 652 l 2
 290 652 283 644 281 635 c 0
 279 629 280 617 282 610 c 2
 335 358 l 1
 503 562 l 2
 510 571 524 594 524 612 c 0
 524 624 519 652 491 652 c 2
 449 652 l 1
 458 684 l 1
 690 684 l 1
 681 652 l 1
 643 652 l 2
 614 652 593 629 567 598 c 2
 346 330 l 1
 486 330 l 1
 477 298 l 1
 337 298 l 1
 321 238 l 1
 461 238 l 1
 452 206 l 1
 312 206 l 1
 272 60 l 2
 267 41 273 32 293 32 c 2
 369 32 l 1
 360 0 l 1
 64 0 l 1
EndSplineSet
Layer: 2
SplineSet
64 0 m 1,0,-1
 73 32 l 1,1,-1
 149 32 l 2,2,3
 176 32 176 32 184 60 c 2,4,-1
 224 206 l 1,5,-1
 84 206 l 1,6,-1
 93 238 l 1,7,-1
 233 238 l 1,8,-1
 249 298 l 1,9,-1
 109 298 l 1,10,-1
 118 330 l 1,11,-1
 252 330 l 1,12,-1
 190 613 l 2,13,14
 187 626 187 626 184.5 633 c 128,-1,15
 182 640 182 640 175 646 c 128,-1,16
 168 652 168 652 156 652 c 2,17,-1
 93 652 l 1,18,-1
 102 684 l 1,19,-1
 362 684 l 1,20,-1
 353 652 l 1,21,-1
 312 652 l 2,22,23
 285 652 285 652 281 635 c 0,24,25
 278 625 278 625 282 610 c 2,26,-1
 335 358 l 1,27,-1
 503 562 l 2,28,29
 524 589 524 589 524 612 c 0,30,31
 524 620 524 620 522 628 c 128,-1,32
 520 636 520 636 512 644 c 128,-1,33
 504 652 504 652 491 652 c 2,34,-1
 449 652 l 1,35,-1
 458 684 l 1,36,-1
 690 684 l 1,37,-1
 681 652 l 1,38,-1
 643 652 l 2,39,40
 623 652 623 652 606.5 639 c 128,-1,41
 590 626 590 626 567 598 c 2,42,-1
 346 330 l 1,43,-1
 486 330 l 1,44,-1
 477 298 l 1,45,-1
 337 298 l 1,46,-1
 321 238 l 1,47,-1
 461 238 l 1,48,-1
 452 206 l 1,49,-1
 312 206 l 1,50,-1
 272 60 l 2,51,52
 264 32 264 32 293 32 c 2,53,-1
 369 32 l 1,54,-1
 360 0 l 1,55,-1
 64 0 l 1,0,-1
EndSplineSet
EndChar

StartChar: brokenbar
Encoding: 166 166 101
Width: 284
Flags: W
TeX: 98 0
HStem: -168 21G<144 188> 710 20G<144 188>
VStem: 144 44<-168 192 370 730>
LayerCount: 3
Fore
SplineSet
144 370 m 1
 144 730 l 9
 188 730 l 17
 188 370 l 1
 144 370 l 1
144 -168 m 17
 144 192 l 1
 188 192 l 1
 188 -168 l 9
 144 -168 l 17
EndSplineSet
Layer: 2
SplineSet
144 370 m 1,0,-1
 144 730 l 1,1,-1
 188 730 l 1,2,-1
 188 370 l 1,3,-1
 144 370 l 1,0,-1
144 -168 m 1,4,-1
 144 192 l 1,5,-1
 188 192 l 1,6,-1
 188 -168 l 1,7,-1
 144 -168 l 1,4,-1
EndSplineSet
EndChar

StartChar: section
Encoding: 167 167 102
Width: 620
Flags: W
TeX: 115 0
HStem: -186 30<157.58 272.351> -48 80<119.107 171.567> 484 87<411.584 480.415> 672 30<332.079 442.42>
VStem: 72 44<-124.361 -49.8621> 104 52<236.822 332.064> 212 52<481.605 607.83> 336 52<-92.3393 30.4751> 444 52<183.936 279.178> 484 44<568.879 640.361>
DStem2: 196 220 164 149 0.797867 -0.602833<-65.0858 205.196> 320 454 269 398 0.797867 -0.602833<-42.9275 227.354>
LayerCount: 3
Fore
SplineSet
72 -54 m 0xfb80
 72 -6 105 32 150 32 c 0
 167 32 194 21 194 -12 c 0
 194 -37 175 -55 155 -55 c 0
 149 -55 143 -53 138 -51 c 0
 134 -49 130 -48 127 -48 c 0
 126 -48 124 -48 121 -50 c 0
 116 -54 116 -67 116 -74 c 0xfb80
 116 -116 155 -156 216 -156 c 0
 266 -156 336 -120 336 -26 c 0
 336 19 306 42 274 66 c 2
 164 149 l 2
 116 186 104 226 104 260 c 0
 104 325 168 405 232 437 c 1
 220 456 212 483 212 521 c 0
 212 642 316 702 394 702 c 0
 482 702 528 628 528 570 c 0
 528 522 495 484 450 484 c 0
 433 484 406 495 406 528 c 0
 406 553 425 571 445 571 c 0
 451 571 456 570 459 569 c 0
 463 568 467 567 469 567 c 0
 471 567 476 568 478 570 c 0
 483 575 484 583 484 590 c 0xf740
 484 632 445 672 384 672 c 0
 334 672 264 631 264 537 c 0
 264 494 289 476 320 454 c 2
 436 367 l 2
 484 330 496 290 496 256 c 0
 496 191 432 111 368 79 c 1
 380 60 388 33 388 -5 c 0
 388 -126 284 -186 206 -186 c 0
 118 -186 72 -112 72 -54 c 0xfb80
156 290 m 0xf780
 156 257 178 234 196 220 c 2
 331 118 l 2
 340 111 349 103 358 93 c 1
 406 121 444 174 444 226 c 0
 444 259 422 282 404 296 c 2
 269 398 l 2
 260 405 251 413 242 423 c 1
 194 395 156 342 156 290 c 0xf780
EndSplineSet
Layer: 2
SplineSet
72 -54 m 0,0,1
 72 -18 72 -18 94 7 c 128,-1,2
 116 32 116 32 150 32 c 0,3,4
 166 32 166 32 180 21 c 128,-1,5
 194 10 194 10 194 -12 c 0,6,7
 194 -30 194 -30 182 -42.5 c 128,-1,8
 170 -55 170 -55 155 -55 c 0,9,10
 148 -55 148 -55 138 -51 c 0,11,12
 132 -48 132 -48 127 -48 c 0,13,14
 124 -48 124 -48 121 -50 c 0,15,16
 116 -54 116 -54 116 -74 c 0,17,18
 116 -107 116 -107 144 -131.5 c 128,-1,19
 172 -156 172 -156 216 -156 c 0,20,21
 236 -156 236 -156 256 -148.5 c 128,-1,22
 276 -141 276 -141 294.5 -126.5 c 128,-1,23
 313 -112 313 -112 324.5 -86 c 128,-1,24
 336 -60 336 -60 336 -26 c 0,25,26
 336 -5 336 -5 326 13.5 c 128,-1,27
 316 32 316 32 305.5 41 c 128,-1,28
 295 50 295 50 274 66 c 2,29,-1
 164 149 l 2,30,31
 104 196 104 196 104 260 c 0,32,33
 104 308 104 308 143 360 c 128,-1,34
 182 412 182 412 232 437 c 1,35,36
 212 468 212 468 212 521 c 0,37,38
 212 564 212 564 229 600 c 128,-1,39
 246 636 246 636 274 657.5 c 128,-1,40
 302 679 302 679 333 690.5 c 128,-1,41
 364 702 364 702 394 702 c 0,42,43
 426 702 426 702 452 690 c 128,-1,44
 478 678 478 678 494 658 c 128,-1,45
 510 638 510 638 519 615 c 128,-1,46
 528 592 528 592 528 570 c 0,47,48
 528 534 528 534 506 509 c 128,-1,49
 484 484 484 484 450 484 c 0,50,51
 434 484 434 484 420 495 c 128,-1,52
 406 506 406 506 406 528 c 0,53,54
 406 546 406 546 418 558.5 c 128,-1,55
 430 571 430 571 445 571 c 0,56,57
 453 571 453 571 459 569 c 0,58,59
 467 567 467 567 469 567 c 0,60,61
 475 567 475 567 478 570 c 0,62,63
 484 576 484 576 484 590 c 0,64,65
 484 623 484 623 456 647.5 c 128,-1,66
 428 672 428 672 384 672 c 0,67,68
 364 672 364 672 344 664 c 128,-1,69
 324 656 324 656 305.5 640 c 128,-1,70
 287 624 287 624 275.5 597 c 128,-1,71
 264 570 264 570 264 537 c 0,72,73
 264 522 264 522 268 510 c 128,-1,74
 272 498 272 498 281 487.5 c 128,-1,75
 290 477 290 477 297.5 470.5 c 128,-1,76
 305 464 305 464 320 454 c 2,77,-1
 436 367 l 2,78,79
 496 321 496 321 496 256 c 0,80,81
 496 208 496 208 457 156 c 128,-1,82
 418 104 418 104 368 79 c 1,83,84
 388 48 388 48 388 -5 c 0,85,86
 388 -48 388 -48 371 -84 c 128,-1,87
 354 -120 354 -120 326 -141.5 c 128,-1,88
 298 -163 298 -163 267 -174.5 c 128,-1,89
 236 -186 236 -186 206 -186 c 0,90,91
 174 -186 174 -186 148 -174 c 128,-1,92
 122 -162 122 -162 106 -142 c 128,-1,93
 90 -122 90 -122 81 -99 c 128,-1,94
 72 -76 72 -76 72 -54 c 0,0,1
156 290 m 0,95,96
 156 251 156 251 196 220 c 2,97,-1
 331 118 l 2,98,99
 346 106 346 106 358 93 c 1,100,101
 395 114 395 114 419.5 151 c 128,-1,102
 444 188 444 188 444 226 c 0,103,104
 444 265 444 265 404 296 c 2,105,-1
 269 398 l 2,106,107
 254 410 254 410 242 423 c 1,108,109
 205 402 205 402 180.5 365 c 128,-1,110
 156 328 156 328 156 290 c 0,95,96
EndSplineSet
EndChar

StartChar: dieresis
Encoding: 168 168 103
Width: 440
Flags: W
TeX: 78 0
HStem: 544 104<195.236 280.764 383.236 468.764>
VStem: 186 104<553.236 638.764> 374 104<553.236 638.764>
LayerCount: 3
Fore
SplineSet
374 596 m 0
 374 626 396 648 426 648 c 0
 456 648 478 626 478 596 c 0
 478 566 456 544 426 544 c 0
 396 544 374 566 374 596 c 0
186 596 m 0
 186 626 208 648 238 648 c 0
 268 648 290 626 290 596 c 0
 290 566 268 544 238 544 c 0
 208 544 186 566 186 596 c 0
EndSplineSet
Layer: 2
SplineSet
374 596 m 128,-1,1
 374 618 374 618 389 633 c 128,-1,2
 404 648 404 648 426 648 c 128,-1,3
 448 648 448 648 463 633 c 128,-1,4
 478 618 478 618 478 596 c 128,-1,5
 478 574 478 574 463 559 c 128,-1,6
 448 544 448 544 426 544 c 128,-1,7
 404 544 404 544 389 559 c 128,-1,0
 374 574 374 574 374 596 c 128,-1,1
186 596 m 128,-1,9
 186 618 186 618 201 633 c 128,-1,10
 216 648 216 648 238 648 c 128,-1,11
 260 648 260 648 275 633 c 128,-1,12
 290 618 290 618 290 596 c 128,-1,13
 290 574 290 574 275 559 c 128,-1,14
 260 544 260 544 238 544 c 128,-1,15
 216 544 216 544 201 559 c 128,-1,8
 186 574 186 574 186 596 c 128,-1,9
EndSplineSet
EndChar

